<?xml version="1.0" encoding="utf-8"?>
<!-- Generator: Adobe Illustrator 25.0.1, SVG Export Plug-In . SVG Version: 6.00 Build 0)  -->
<svg version="1.1" id="Layer_1" xmlns="http://www.w3.org/2000/svg" xmlns:xlink="http://www.w3.org/1999/xlink" x="0px" y="0px"
	 viewBox="0 0 100 53.1" style="enable-background:new 0 0 100 53.1;" xml:space="preserve">
<style type="text/css">
	.st0{fill:#FFFFFF;}
</style>
<path class="st0" d="M11.2,28.6c-0.9-0.9-0.6-2,0.6-2.4c1.8-0.5,3.6-1,5.4-1.4c9.6-2.1,19.4-2,29.1-0.8c8.5,1.1,16.9,2.5,25.3,3.8
	c0.6,0.1,1.2,0.2,1.6,0.4c0.5,0.3,0.8,0.8,1.2,1.2c-0.5,0.3-1,0.8-1.4,0.8c-2.1-0.1-4.2-0.3-6.2-0.5c-11.6-1.5-23.2-1.2-34.9-1.2
	c-6.4,0-12.8,0.2-19.2,0.3C12,28.7,11.5,28.6,11.2,28.6z"/>
<path class="st0" d="M85.5,29.1c-3.2-2.4-6.3-4.9-9.5-7.2c-0.6-0.5-1.4-0.9-0.9-1.8c0.5-1,1.4-0.7,2.1-0.2c3.8,2.6,7.7,5.2,11.5,7.8
	c1.1,0.8,1.2,1.8,0.3,2.6c-2.5,2.5-5.1,5-7.7,7.4c-0.6,0.6-1.5,1-2.3,1.3c-0.4,0.2-1.3,0.1-1.5-0.2c-0.2-0.5-0.2-1.3,0-1.7
	c0.8-1,1.9-1.9,2.8-2.8C82,32.7,83.6,31,85.5,29.1z"/>
</svg>
