<?xml version="1.0" encoding="utf-8"?>
<!-- Generator: Adobe Illustrator 25.0.1, SVG Export Plug-In . SVG Version: 6.00 Build 0)  -->
<svg version="1.1" id="Layer_1" xmlns="http://www.w3.org/2000/svg" xmlns:xlink="http://www.w3.org/1999/xlink" x="0px" y="0px"
	 viewBox="0 0 1373.3 471.8" style="enable-background:new 0 0 1373.3 471.8;" xml:space="preserve">
<style type="text/css">
	.st0{fill:#149A9A;}
	.st1{fill:#E974AE;}
	.st2{fill:#DC4D9B;}
	.st3{fill:#50B3B3;}
	.st4{fill:#D8EEEE;}
	.st5{fill:#159C9C;}
	.st6{fill:#169C9C;}
	.st7{fill:#169D9D;}
	.st8{fill:#1B1B1B;}
</style>
<path class="st0" d="M154.5,47.2c7.2-2.5,14.5-4.3,21.9-5.9c6.9-1.4,13.8-2.4,20.8-3.1c6.7-0.7,13.5-0.8,20.3-0.8
	c7.4,0,14.8,0.4,22.1,1.3c25.5,3.1,49.5,10.8,71.9,23.2c17,9.4,32.3,21.1,45.9,35.1c25.4,26.3,42.3,57.2,50.7,92.8
	c1.9,8.1,3.2,16.2,4,24.5c1,9.9,1.3,19.7,0.8,29.6c-1.2,24.4-6.7,47.9-16.6,70.2c-10.4,23.4-24.8,44-43.2,61.8
	c-25.6,24.7-55.7,41.3-90.3,49.9c-8.9,2.2-17.9,3.7-27.1,4.6c-7.4,0.7-14.7,1.1-22.1,1c-0.5,0-1.1,0-1.6,0c-0.6,0-0.9-0.4-1-1
	c-0.1-1.3-0.3-2.7-0.4-4c-0.3-4-0.5-8-0.7-12c-0.5-8-0.6-16-0.4-24c0.2-8.5,0.8-17.1,2.1-25.5c0.4-2.9,1.3-5.7,2.5-8.4
	c2.2-4.6,5.6-8,10.2-10.1c2.9-1.3,6.1-2.1,9.2-2.5c5.2-0.7,10.5-0.7,15.7-0.3c7.2,0.6,14.4,1.2,21.6,1.7c4.2,0.3,8.4,0.4,12.5,0.1
	c3.7-0.2,7.2-0.9,10.7-2.2c2.8-1.1,5.3-2.6,7.2-4.9c2.6-3.1,3.4-6.6,2.2-10.5c-0.4-1.5-1.2-2.8-2.4-3.8c-1.8-1.6-2.9-3.6-3.7-5.8
	c-1.6-4.4-1.9-8.8-1.5-13.4c0.1-0.9,0.3-1.8,0.6-2.6c0.4-1.3,1-2.5,2.2-3.2c1.8-1.1,2.1-2.8,1.8-4.6c-0.3-1.4-0.7-2.7-1.2-4.1
	c-0.7-2-1.8-3.9-2.9-5.7c-0.7-1.2-0.7-1.3,0.2-2.3c1.7-1.9,3.5-3.8,5.2-5.7c0.7-0.7,0.9-1.4,0.9-2.4c-0.3-4.1-0.5-8.2-0.8-12.3
	c-0.1-2.2-0.2-4.4-0.3-6.7c0-0.8,0.2-1.1,1.1-1.1c2.4,0,4.8-0.1,7.2,0c1.8,0,3.3-0.5,4.8-1.4c1.9-1.2,2.8-2.9,3-5.1
	c0.1-1.7-0.3-3.4-0.8-5c-1-3-2.5-5.7-4.2-8.3c-3-4.7-6.5-9.1-10.2-13.3c-5.6-6.4-11.7-12.5-17.9-18.3c-0.3-0.3-0.6-0.6-1-0.9
	c-0.6-0.5-0.8-1.2-0.6-1.9c0.2-0.6,0.3-1.2,0.4-1.8c1.3-6.2,1.2-12.4,0.4-18.6c-1.7-11.9-5.9-23.1-11.1-33.8
	c-3.8-7.9-8.2-15.6-13.2-22.9c-0.3-0.5-0.7-1-1-1.6c-0.3-0.4-0.3-0.8-0.1-1.3c0.1-0.3,0.3-0.6,0.5-0.9c3.9-7.8,5.4-16,4.8-24.6
	c-0.2-2.4-0.6-4.8-1.2-7.1c-0.7-2.6-2-4.9-3.8-7c-2.1-2.4-4.6-4.4-7.4-6.1c-3.8-2.4-7.8-4.3-11.9-6c-7.8-3.3-15.9-5.8-23.9-8.5
	c-7.3-2.4-14.5-4.9-21.5-8c-4.9-2.2-10.1-3.3-15.5-4c-5.8-0.8-11.5-0.6-17.3-0.4c-2,0.1-3.9,0.4-5.8,0.5
	C155.1,47.9,154.5,48.2,154.5,47.2z"/>
<path class="st1" d="M139.2,415.4c-0.5,0.2-0.9,0-1.3-0.2c-7-3.1-13.8-6.5-20.5-10.3c-7.4-4.3-14.5-9-21.3-14.2
	c-4-3.1-7.9-6.3-11.7-9.7c-3.5-3.2-6.9-6.4-10.2-9.8c-8.5-8.9-16.2-18.4-23-28.7c-0.8-1.2-0.9-2.2-0.6-3.5
	c1.3-5.8,3.3-11.3,5.6-16.6c5.4-12.5,12.7-23.9,20.8-34.7c5.7-7.6,11.9-14.9,18.4-21.8c2.7-2.8,5.3-5.7,8.2-8.4
	c5.4-5,10.8-10,16.5-14.7c7.3-6,14.9-11.6,22.8-16.8c5.4-3.6,11-6.8,16.7-10c7.4-4.1,14.5-8.7,21-14.2c3.3-2.7,6.5-5.5,9.5-8.6
	c12-12.4,20.8-26.8,25.8-43.4c1.6-5.3,2.8-10.7,3.4-16.1c0.4-3.7,0.9-7.4,0.6-11.2c0-0.7,0-1.4,0-2c0.7,0,0.7,0.4,0.8,0.7
	c4.4,9.8,8.4,19.8,11.7,30.1c2.1,6.5,3.8,13.2,5,19.9c0.8,4.4,0.9,8.8,0.7,13.3c-0.1,2.1-0.6,4.2-1.4,6.2c-0.1,0.2-0.2,0.5-0.3,0.7
	c-3.1,6.2-2.4,12.4,0.3,18.5c1.6,3.7,3.8,7,6.3,10.2c3.2,4,6.9,7.7,10.9,11c3.3,2.7,4.3,6.4,2.9,10.5c-1.1,3-3.1,5.4-5.5,7.4
	c-1.9,1.6-4,3-6.2,4.2c-1.9,1.1-1.9,1.1-0.6,3c1.1,1.7,2.3,3.4,3.4,5.1c1.1,1.8,2.1,3.7,2.8,5.7c0.4,1.1,0.5,2,0.1,3.1
	c-0.4,1-0.6,2-0.8,3.1c-0.4,2.4-0.3,4.8,0.5,7.1c0.4,1.1,0.7,2.2,0.6,3.4c0,0.8-0.3,1.4-1.1,1.7c-2,0.7-3.1,2.3-4,4.1
	c-0.7,1.5-1.4,3.1-2.1,4.6c-1,2.2-1.2,4.5-0.8,6.8c0.4,2.7,0.4,5.3,0.4,8c0.1,2.6,0,5.2,0.1,7.7c0,1.4-0.5,2.4-1.6,3.2
	c-1.9,1.6-4.2,2.3-6.5,2.9c-1.5,0.4-3.1,0.7-4.7,0.7c-0.8,0-1.6,0.2-2.4,0.2c-0.7,0.1-1.4,0.2-2.1,0.1c-4.6-0.4-9.2-0.7-13.7-1.7
	c-5.3-1.3-10.5-2.5-15.8-3.7c-6.3-1.4-12.8-2.4-19.3-2c-7.7,0.4-13.8,3.7-18.4,9.8c-1.5,2.1-2.9,4.3-4,6.6c-2,4.1-4.2,8-6,12.2
	c-2.8,6.8-5,13.9-6.4,21.1c-0.8,3.9-1.4,7.9-2,11.8c-0.4,2.5-0.5,5-0.7,7.4c-0.9,9.4-0.6,18.8-0.5,28.3c0,0.4,0,0.9,0,1.3
	C139.4,415.1,139.3,415.2,139.2,415.4z"/>
<path class="st2" d="M33.5,306.9c-0.9-0.2-0.9-0.9-1.1-1.3c-3.8-9.6-6.7-19.5-8.9-29.6c-1.3-5.9-2.2-11.9-3-17.9
	c-0.3-2-0.4-4.1-0.6-6.1c-0.1-1.2,0.1-2.3,0.7-3.3c4.1-7.5,8.6-14.8,13.9-21.5c6.7-8.5,14.4-16,22.7-22.9c7.5-6.2,15.3-11.9,23-17.8
	c11.9-9,23.5-18.2,34.3-28.5c4.3-4.1,8.7-8.2,12.6-12.7c4.5-5.3,8.3-11.1,10.8-17.7c4.1-10.9,3.9-21.7-0.3-32.6
	c-2.8-7.1-6.9-13.4-11.8-19.2c-2.7-3.2-5.6-6.2-8.8-8.9c-0.4-0.3-0.8-0.7-1.2-1.1c-0.4-0.4-0.3-0.8,0.1-1.1c1-0.7,2.1-1,3.3-1
	c5.1,0,10.1-0.1,15.2-0.1c8.8,0.1,17.5,1.4,26.1,3.8c6.9,1.9,13.4,4.8,19.2,9.1c1.2,0.9,2.3,1.9,3.5,2.9c1.1,0.8,1.6,1.9,1.6,3.2
	c0,1.4,0.1,2.9,0,4.3c-0.5,7.9-1.8,15.7-4,23.3c-3,10.2-7.4,19.8-12.8,29c-5.4,9.1-11.8,17.6-18.9,25.5c-7,7.8-14.7,15-22.8,21.7
	c-9.9,8.3-19.7,16.6-29.6,25c-9,7.7-17.8,15.6-26,24.1c-8.4,8.7-15.9,18-21.8,28.6c-4.6,8.1-8.1,16.6-10.8,25.5
	C36.2,295.3,34.8,301,33.5,306.9z"/>
<path class="st1" d="M24.6,188.6c0.2-2.6,1.1-5,1.8-7.5c3-10.8,6.9-21.3,11.8-31.4c4.3-9.1,9.3-17.8,15-26.1
	c4.7-6.9,9.8-13.5,15.4-19.8c4.5-5.1,9.4-10,14.4-14.7c5.8-5.4,11.9-10.4,18.4-14.9c2.5-1.7,5-3.4,7.5-5.1c0.7-0.5,1.5-0.9,2.3-1.4
	c0.5-0.2,0.9-0.1,1.1,0.4c0.4,1.2,0.8,2.4,1,3.6c1,5,1.5,10,1.1,15.1c-0.5,6.8-2,13.3-4.5,19.7c-3.3,8.4-7.9,15.9-13.7,22.8
	c-5.3,6.3-11.2,12-17.5,17.1c-4.2,3.4-8.4,6.9-12.6,10.3c-6.5,5.4-13.3,10.4-20.1,15.5c-4.8,3.5-9.6,7-14.2,10.9
	c-1,0.9-2,1.8-2.9,2.7c-1.2,1.2-2.4,2.4-3.6,3.5C24.7,189.4,24.4,189.2,24.6,188.6z"/>
<path class="st3" d="M154.5,47.2c0.3,0.4,0.7,0.4,1.1,0.6c-0.8,0.6-1.8,0.4-2.7,0.5c-0.5,0.2-0.7-0.1-0.5-0.5
	C153.1,47.7,153.7,47.1,154.5,47.2z"/>
<path class="st4" d="M150.7,48.2c0,0.2,0,0.4,0,0.6c-0.2,0.3-0.5,0.5-0.9,0.4c-0.1,0-0.3-0.2-0.4-0.3c0,0,0-0.2,0.1-0.2
	C149.9,48.3,150.3,48.2,150.7,48.2z"/>
<g>
	<path class="st2" d="M703.6,255.8c4.7,2.6,8.5,5.5,12.5,8.2c1,0.6,1,1.6,0.4,2.5c-2.5,3.9-5.8,6.9-9.8,9
		c-11.6,5.9-23.6,6.6-35.6,1.5c-10-4.2-15.8-12.2-18.3-22.6c-1.7-7-1.4-14,0.7-20.8c3.5-11.5,11.1-18.9,22.6-22.1
		c9.2-2.6,18.4-2.1,27.2,1.6c5.5,2.3,10.2,5.8,13.5,11.2c-4,3.7-8.5,6.5-12.8,9.6c-1.2-1-2.2-2-3.3-2.9c-4.2-3.3-9-4.8-14.4-4
		c-7.5,1-12.1,5.5-13.9,12.7c-1,4.1-0.9,8.2,0.3,12.3c2.2,7.3,8.6,13.5,19.4,11.6c3.9-0.7,7.3-2.3,10-5.3
		C702.6,257.4,703,256.6,703.6,255.8z"/>
	<path class="st2" d="M527.1,252.2c0-6.7,0-13.4,0-20.2c0-1,0-1.9-0.1-2.9c-0.1-1.1-0.7-1.8-1.8-1.8c-1.8-0.1-3.5-0.1-5.3-0.1
		c-1.1,0-1.8-0.6-1.8-1.8c0-3.2-0.1-6.4,0-9.6c0-1.6,0.5-2,1.9-2.1c0.2,0,0.3,0,0.5,0c2-0.2,4.5,0.9,6-0.8c1.3-1.5,0.5-4,0.8-6
		c0.4-2.5,0.2-5.1,1-7.6c2.8-8.1,8.6-12.9,16.7-15c6.4-1.6,12.7-1,18.9,1.1c2,0.7,2.3,1.2,1.9,3.2c-0.6,3.3-1.2,6.6-1.9,9.9
		c-0.7,2.9-1,3-3.5,2.2c-1.4-0.4-2.8-0.7-4.2-0.9c-5.2-0.7-9.1,2.5-9.2,7.8c-0.2,6.6-0.7,6,5.8,6c2.9,0,5.8,0,8.6,0.1
		c1.1,0,1.7,0.7,1.8,1.8c0,0.2,0,0.3,0,0.5c-0.1,3.5,0.4,7-0.3,10.5c-3.3,1.6-6.9,0.4-10.3,0.8c-0.9,0.1-1.9,0-2.9,0
		c-2.5,0.1-2.7,0.3-2.7,2.8c0,9.9,0,19.8,0,29.8c0,5.6,0,11.2,0,16.8c0,2.1-0.4,2.5-2.6,2.5c-4.8,0-9.6,0-14.4,0
		c-2.1,0-2.3-0.3-2.6-2.6c-0.2-1.6-0.2-3.2-0.2-4.8C527.1,265.3,527.1,258.8,527.1,252.2z"/>
	<path class="st5" d="M1024.5,269.3c1.2-1.6,1.6-3.5,2.2-5.3c5.5-15.8,11-31.7,16.5-47.5c1.6-4.5,1-4.2,6.1-4.2c5,0,4.4-0.3,6,4.3
		c5.6,16,11.2,32,16.8,48c0.6,1.6,0.7,3.5,2.2,4.8c1.1-1.1,1.3-2.5,1.8-3.8c5.7-16.1,11.3-32.3,17-48.4c0.4-1.1,0.7-2.1,1.1-3.2
		c0.3-1,1-1.8,2.1-1.7c2.3,0.2,4.7-0.8,6.9,0.6c0.1,2.2-1.1,4-1.8,5.9c-6.9,18.6-13.9,37.1-20.8,55.7c-0.3,0.7-0.6,1.5-0.8,2.2
		c-0.5,2-1.7,2.7-3.8,2.7c-6.2,0-6.2,0.1-8.4-5.8c-5.5-15.3-11.1-30.7-16.6-46c-0.4-1.2-0.9-2.4-1.4-3.6c-1.7,0.8-1.6,2.4-2.1,3.7
		c-5.6,15.5-11.2,31-16.8,46.4c-2.1,5.9-0.9,5-7.4,5.1c-0.3,0-0.6,0-1,0c-1.8,0.2-2.9-0.5-3.5-2.4c-1.1-3.3-2.4-6.6-3.7-9.9
		c-6.3-16.7-12.6-33.5-18.9-50.2c-0.4-1-0.8-2.1-1-3.2c-0.2-0.7,0.3-1.2,1-1.3c0.2,0,0.3,0,0.5,0c6.9-0.6,6.9-0.6,9.2,5.9
		c5.5,15.5,10.9,31.1,16.4,46.6C1022.8,266.2,1022.9,268.1,1024.5,269.3z"/>
	<path class="st6" d="M847.4,250.3c0,7.8,0,15.7,0,23.5c0,1.3,0,2.6-0.1,3.8c0,0.9-0.6,1.5-1.5,1.5c-0.8,0.1-1.6,0.1-2.4,0.1
		c-5,0-4.7,0.2-4.7-4.7c0-16.1,0-32.3,0-48.4c0-5.5,0.5-5.4-5-5.4c-0.5,0-1,0-1.4,0c-1.8-0.1-2.1-0.4-2.1-2.4c0-1,0-1.9,0-2.9
		c0.1-0.9,0.6-1.4,1.6-1.5c1.6-0.1,3.2,0,4.8-0.1c1.8-0.1,2.1-0.4,2.2-2.4c0.1-2.4,0-4.8,0.1-7.2c0.1-3.7,1-7.3,2.8-10.5
		c4.7-8.6,14.1-11.3,20.6-10.2c2.5,0.4,5,0.9,7.3,2.1c1,0.5,1.5,1.1,1.1,2.3c-0.3,1.1-0.6,2.1-1,3.2c-0.7,1.8-0.9,1.9-2.8,1.3
		c-1.4-0.4-2.7-0.9-4.1-1.1c-7.6-1.5-14.2,3.3-15.2,10.9c-0.1,0.5-0.1,1-0.1,1.4c0.1,3.2-0.4,6.4,0.3,9.5c3,1.4,6.2,0.5,9.4,0.7
		c2.7,0.2,5.4,0.1,8.2,0.1c1.2,0,1.8,0.7,1.8,1.8c0.1,1.1,0.1,2.2,0,3.4c-0.1,1.2-0.8,1.6-1.9,1.7c-1.1,0-2.2,0-3.4,0
		c-3.5,0-7,0-10.6,0c-3.8,0-3.8,0.1-3.9,3.6c0,0.8,0,1.6,0,2.4C847.4,234.7,847.4,242.5,847.4,250.3z"/>
	<path class="st7" d="M965,225.5c1.4-0.1,1.5-1.5,2.1-2.3c4.7-7.1,11.5-10.3,19.8-11.1c1.7-0.2,2.2,0.3,2.3,2.1c0,0.2,0,0.3,0,0.5
		c-0.1,5.2,0.8,5.3-4.9,5.9c-9.2,0.9-16.5,7.8-18.8,17.4c-0.7,2.8-1.1,5.6-1,8.5c0.1,9.3,0,18.5,0,27.8c0,1.1,0,2.2-0.1,3.4
		c0,0.9-0.5,1.5-1.4,1.5c-1,0.1-1.9,0.1-2.9,0.1c-4.2,0-4.2,0-4.2-4.2c0-19.5,0-39,0-58.5c0-4.4,0-4.4,4.6-4.4c0.6,0,1.3,0,1.9,0
		c1.6,0.1,2,0.5,2.1,2c0.1,2.9,0,5.8,0.1,8.6C964.6,223.7,964.3,224.7,965,225.5z"/>
	<path class="st6" d="M1209.1,225.6c0.9-1.3,1.8-2.6,2.7-3.9c4.7-6.3,11.4-9.1,19-9.7c1.2-0.1,1.9,0.4,1.9,1.6
		c0.1,1.4,0.1,2.9,0.1,4.3c-0.1,1.8-0.5,2.1-2.3,2.3c-1.6,0.2-3.2,0.2-4.7,0.6c-6.6,1.6-11.5,5.5-14.5,11.6c-2,4.1-3,8.4-3,13
		c0,9.3,0,18.5,0,27.8c0,1.1,0,2.2,0,3.4c-0.1,2.4-0.3,2.6-2.9,2.6c-6.4,0-5.8,0.6-5.8-5.5c0-18.7,0-37.4,0-56.1
		c0-1.3,0-2.6,0.1-3.8c0-0.9,0.6-1.5,1.5-1.5c1-0.1,1.9-0.1,2.9-0.1c4.2,0,4.2,0,4.2,4.2c0,3,0,6,0,9
		C1208.6,225.5,1208.9,225.6,1209.1,225.6z"/>
	<path class="st8" d="M1110.5,305.1c1.7-0.1,3.3,1.4,3.4,3.2c0,1.6-1.2,3.1-2.7,3.3c-1.8,0.3-3.4-1.1-3.6-2.9
		C1107.4,306.9,1108.7,305.3,1110.5,305.1z"/>
	<path class="st2" d="M638.9,214.3c-0.1-3.8-0.2-3.9-4.2-4c-3.8,0-7.7,0-11.5,0c-0.6,0-1.3,0-1.9,0.1c-1.7,0.2-2.2,0.6-2.2,2.5
		c-0.1,1.9,0,3.8,0,6c-1.8-0.2-2.4-1.3-3.1-2.1c-3.1-3-6.7-4.8-10.8-6.1c-3.3-1-6.6-1-10-0.9c-11.9,0.4-21,5.8-26.1,16.5
		c-6,12.6-5.7,25.4,0.6,37.9c3.7,7.4,9.8,12.3,17.7,14.4c11.2,3,21.6,1.9,30.1-7.1c0.3-0.3,0.8-0.6,1.5-0.2c0,1.4,0,3,0,4.6
		c0.1,3,0.2,3.1,3.4,3.2c4.3,0,8.6,0,13,0c0.6,0,1.3,0,1.9-0.1c0.9-0.1,1.5-0.6,1.5-1.5c0.1-1.1,0.1-2.2,0.1-3.4c0-19.7,0-39.4,0-59
		C638.9,214.9,638.9,214.6,638.9,214.3z M619,245.3c0.2,4.5-0.9,8.6-3.6,12.2c-2.9,3.9-6.7,6.2-11.7,6.5c-10.1,0.6-17-5.1-18.6-15.2
		c-0.7-4.2-0.2-8.3,1.4-12.2c2.7-6.8,9.2-10.5,15.7-10.4c8,0.1,13.4,5.5,15.6,10.8C618.8,239.6,619.2,242.5,619,245.3z"/>
	<path class="st2" d="M788.8,230.5c-3.4-9.7-9.7-16.5-19.8-19.2c-7.4-2-14.9-2.2-22.3-0.2c-12.2,3.3-20.3,11.2-23.7,23.4
		c-1.7,6.1-1.7,12.3-0.6,18.5c2.5,13.6,12.3,23.3,25.6,26c6.7,1.4,13.4,1.4,20-0.1c7.3-1.7,13.8-4.9,18.9-11.1
		c-2.8-2.9-5.6-5.8-8.4-8.6c-1.6-1.7-1.8-1.8-3.5-0.3c-3.4,2.8-7.3,4.7-11.6,5.4c-7.3,1.2-13.7-0.4-18.5-6.5
		c-1.5-1.9-2.8-3.8-2.8-6.4c1.7-0.7,3.3-0.4,4.9-0.4c12.6,0,25.3,0,37.9,0c1.3,0,2.6,0,3.8,0c1.5-0.1,2-0.6,2.1-2.1
		C791.1,242.7,790.9,236.5,788.8,230.5z M770.8,239.3c-1.1,0.1-2.2,0.1-3.3,0.1c-3.7,0-7.3,0-11,0c0,0,0,0,0,0c-4.3,0-8.6,0-12.9,0
		c-1.7,0-2.2-0.8-1.9-2.5c2.1-10.2,14-15.8,23.2-10.8c4.4,2.4,6.5,6.4,7.3,11.1C772.5,238.3,771.9,239.2,770.8,239.3z"/>
	<path class="st6" d="M1307.7,188c0-3.6-0.1-3.7-3.8-3.7c-4.9,0-5-0.5-5,5c0,10.7,0,21.4,0,32.1c0,1.4,0.3,2.8-0.6,4.5
		c-0.9-1.2-1.7-2.2-2.4-3.1c-4-5.1-9.2-8.3-15.4-10c-3.1-0.8-6.3-1-9.5-0.9c-13.7,0.2-24.9,8.4-29.3,21.4
		c-2.5,7.5-2.7,15.1-0.7,22.7c3.2,12.3,11,20.5,23.6,23.1c12.9,2.7,24.1-0.3,32.3-11.3c0.4-0.6,0.7-1.5,2.1-1.1c0,2.3,0,4.7,0,7.1
		c0,6.4-0.3,5.5,5.8,5.6c0.5,0,1,0,1.4-0.1c0.9-0.1,1.4-0.7,1.5-1.6c0.1-1.4,0.1-2.9,0.1-4.3c0-13.7,0-27.5,0-41.2
		C1307.7,217.4,1307.7,202.7,1307.7,188z M1297.9,254.2c-3.7,13.3-16.3,20.3-29.4,17.6c-11.6-2.3-19.3-11.4-20-23.2
		c-0.1-1,0-1.9,0-2.9c-0.1-9.4,3.4-17.2,11.3-22.5c13-8.8,35.7-3.8,38.8,18.1C1299.2,245.7,1299.1,250,1297.9,254.2z"/>
	<path class="st5" d="M1174.7,274.9c0-19.5,0-39,0-58.5c0-0.8,0-1.6,0-2.4c0-1.1-0.5-1.8-1.7-1.9c-1.4,0-2.9-0.1-4.3,0
		c-2.2,0.1-2.5,0.4-2.6,2.5c0,3.5,0,7,0,10.5c-0.3,0.1-0.5,0.2-0.8,0.3c-0.9-1.1-1.7-2.2-2.6-3.3c-3.9-4.7-8.8-7.8-14.7-9.4
		c-3.4-0.9-6.9-1.1-10.4-1c-13.1,0.3-24,8.1-28.5,20.5c-2.3,6.3-2.7,12.7-1.9,19.3c1.5,11.9,9.6,25.6,27.3,27.9
		c11.9,1.5,22.1-1.8,29.5-11.8c0.4-0.6,0.6-1.5,2-1.2c0,3.4,0,6.9,0,10.4c0,1.9,0.4,2.3,2.2,2.4c0.6,0,1.3,0,1.9,0
		C1174.9,279.3,1174.7,279.6,1174.7,274.9z M1159.4,264.5c-7,7.6-15.8,9.4-25.4,6.9c-9.5-2.4-15.3-8.9-17.6-18.4
		c-1.8-7.4-1-14.7,2.8-21.3c4.3-7.4,10.8-11.7,19.4-12.3c15.8-1.1,27.4,9.8,27.6,25.6c0,0.3,0,0.6,0,1
		C1166.2,253,1164.2,259.3,1159.4,264.5z"/>
	<path class="st5" d="M937.7,241.8c-0.9-12.8-9.3-23.8-21.5-27.9c-7.8-2.6-15.7-2.7-23.5-0.2c-11.2,3.7-18.2,11.4-21.2,22.7
		c-1.7,6.3-1.6,12.7,0.1,18.9c3.2,11.5,10.4,19.2,21.9,22.7c5.2,1.6,10.6,1.9,16.1,1.1c10.7-1.5,18.8-6.7,24.1-16.1
		c3-5.2,4.3-11,4-17C937.7,244.7,937.8,243.3,937.7,241.8z M928.3,254c-3.9,14.5-17,19.7-28.3,18c-12.1-1.9-19.3-10.4-20.8-21.9
		c-0.8-5.8-0.1-11.4,2.4-16.8c3.7-7.9,10.1-12.2,18.5-13.5c4.3-0.7,8.6-0.4,12.8,1.1c9.4,3.5,14.5,10.5,16,20.3
		c0.3,1.7,0.2,3.5,0.3,4.8C929.1,249,928.9,251.5,928.3,254z"/>
</g>
</svg>
