<?xml version="1.0" encoding="utf-8"?>
<!-- Generator: Adobe Illustrator 25.0.1, SVG Export Plug-In . SVG Version: 6.00 Build 0)  -->
<svg version="1.1" id="Layer_1" xmlns="http://www.w3.org/2000/svg" xmlns:xlink="http://www.w3.org/1999/xlink" x="0px" y="0px"
	 viewBox="0 0 50 50" style="enable-background:new 0 0 50 50;" xml:space="preserve">
<style type="text/css">
	.st0{fill:#E974AE;}
</style>
<path class="st0" d="M0.8,25C0.8,12.2,11.2,1.8,24,1.8c12.8,0,23.2,10.5,23.2,23.3c0,12.8-10.5,23.2-23.3,23.2
	C11.2,48.2,0.8,37.8,0.8,25z M24,45.3c11.2,0,20.3-9.1,20.4-20.3c0-11.2-9.1-20.3-20.3-20.4C12.9,4.6,3.7,13.8,3.7,25
	C3.7,36.2,12.8,45.3,24,45.3z"/>
<path class="st0" d="M19.7,30.3c0.8-0.9,1.6-1.7,2.4-2.5c3.6-3.6,7.3-7.3,10.9-10.9c0.5-0.5,0.9-0.7,1.6-0.5c0.6,0.2,0.9,0.5,1,1.1
	c0.1,0.6-0.2,1.1-0.6,1.5c-3.5,3.5-7.1,7.1-10.6,10.6c-1.2,1.2-2.4,2.4-3.5,3.5c-0.8,0.8-1.6,0.8-2.4,0c-1.8-1.8-3.7-3.7-5.5-5.5
	c-0.7-0.7-0.8-1.6-0.1-2.2c0.6-0.6,1.5-0.5,2.2,0.2C16.5,27.1,18,28.6,19.7,30.3z"/>
</svg>
