<?xml version="1.0" encoding="utf-8"?>
<!-- Generator: Adobe Illustrator 25.0.1, SVG Export Plug-In . SVG Version: 6.00 Build 0)  -->
<svg version="1.1" id="Layer_1" xmlns="http://www.w3.org/2000/svg" xmlns:xlink="http://www.w3.org/1999/xlink" x="0px" y="0px"
	 viewBox="0 0 513 500" style="enable-background:new 0 0 513 500;" xml:space="preserve">
<style type="text/css">
	.st0{fill:#92E3A9;}
	.st1{opacity:0.7;fill:#FFFFFF;enable-background:new    ;}
	.st2{fill:#FFFFFF;stroke:#263238;stroke-linecap:round;stroke-linejoin:round;}
	.st3{fill:#263238;stroke:#263238;stroke-linecap:round;stroke-linejoin:round;}
	.st4{fill:none;stroke:#263238;stroke-linecap:round;stroke-linejoin:round;}
	.st5{fill:#92E3A9;stroke:#263238;stroke-linecap:round;stroke-linejoin:round;}
	.st6{fill:#263238;}
	.st7{fill:none;stroke:#92E3A9;stroke-linecap:round;stroke-linejoin:round;}
	.st8{fill:none;stroke:#92E3A9;stroke-linecap:round;stroke-linejoin:round;stroke-dasharray:4.2335,4.2335;}
	.st9{fill:none;stroke:#92E3A9;stroke-linecap:round;stroke-linejoin:round;stroke-dasharray:4;}
</style>
<g id="freepik--background-simple--inject-106">
	<path class="st0" d="M490,193.1c-8.4-26.4-23.4-49.4-48.5-62.2c-33.6-17.2-76-17.6-115-4.4c-22.3,7.5-42.8,20.1-62.9,33
		c-17.8,11.4-38.8,28.9-59.4,32.6c-27.9,5-86.7-35.6-136.4-24.4C17.9,178.9-4.7,241.8,1.8,281s52.7,39.2,65.1,71.3
		s68.8,59.4,145.4,41.2c76.6-18.2,116.5-28.7,153.6-14c37.1,14.7,90.4,18.9,117-42.6c10.6-24.6,16.3-50.8,16.4-76.2
		C499.3,238.3,496.8,214.6,490,193.1z"/>
	<path class="st1" d="M490,193.1c-8.4-26.4-23.4-49.4-48.5-62.2c-33.6-17.2-76-17.6-115-4.4c-22.3,7.5-42.8,20.1-62.9,33
		c-17.8,11.4-38.8,28.9-59.4,32.6c-27.9,5-86.7-35.6-136.4-24.4C17.9,178.9-4.7,241.8,1.8,281s52.7,39.2,65.1,71.3
		s68.8,59.4,145.4,41.2c76.6-18.2,116.5-28.7,153.6-14c37.1,14.7,90.4,18.9,117-42.6c10.6-24.6,16.3-50.8,16.4-76.2
		C499.3,238.3,496.8,214.6,490,193.1z"/>
</g>
<g id="freepik--character-2--inject-106">
	<path class="st2" d="M378.2,400.4c-18.7-12.8-61.9-17.4-74.1-21.3c-12.2-3.9-23.8-9.2-27.9-22.3c-4.1-13.1-0.3-41.1-0.3-41.1
		l-37.7,7.8l-37.7-7.8c0,0,3.7,28-0.3,41.1c-4.1,13.1-15.6,18.4-27.9,22.3c-12.2,3.9-55.4,8.5-74.1,21.3s-25.8,59.2-25.8,59.2h331.7
		C404.1,459.5,396.9,413.1,378.2,400.4z"/>
	<path class="st3" d="M238.7,342.4l7.4-10.5l-16.5-10.2l-29.1-6c0,0,2.7,20.1,1,34.3L238.7,342.4z"/>
	<line class="st4" x1="215.1" y1="408.3" x2="222.6" y2="409.5"/>
	<line class="st4" x1="166.4" y1="399.9" x2="208.3" y2="407.1"/>
	<line class="st4" x1="299.1" y1="400.5" x2="253.2" y2="410.1"/>
	<path class="st5" d="M352.8,195.8c0-8.1-4.7-15.4-6.1-23.3c-1.7-9.6-7.9-16-15.3-22.1c0,0,0.1-2.7-3.4-10.5
		c-5.1-11.3-21.8-20.6-21.8-20.6c-4-2.8-8.6-4.4-13.5-4.6c0,0-5.4-10.5-27.7-16.4c-22.3-5.9-25.2-2.1-25.2-2.1s-2.9-3.8-25.2,2.1
		c-22.3,5.9-27.7,16.4-27.7,16.4c-4.8,0.3-9.5,1.9-13.5,4.6c0,0-16.8,9.3-21.8,20.6c-3.5,7.8-3.4,10.5-3.4,10.5
		c-7.5,6.1-13.6,12.4-15.3,22.1c-1.4,7.9-6.1,15.2-6.1,23.3c0,8,4.6,18.5,4.6,18.5s-1.3,12.6,3.4,21c4.6,8.4,10.9,11.8,10.9,11.8
		s-4.2,8,6.3,15.5c10.5,7.6,16,7.6,16,7.6s-0.8,2.5,5.9,3.4c4.2,0.4,8.3-0.6,11.8-2.9c0,0-14.7-52.5-0.4-76.9s34.8-34.6,42.4-35.4
		c4-0.5,8.1-0.8,12.2-0.8c0,0,4.6,0,12.2,0.8c7.6,0.8,28.1,10.9,42.4,35.3s-0.4,76.9-0.4,76.9c3.5,2.3,7.6,3.4,11.8,2.9
		c6.7-0.8,5.9-3.4,5.9-3.4s5.5,0,16-7.6c10.5-7.6,6.3-15.5,6.3-15.5s6.3-3.4,10.9-11.8s3.4-21,3.4-21S352.8,203.7,352.8,195.8z"/>
	<path class="st4" d="M152.5,244.4c0,0,10.6,1.4,17.9-0.5"/>
	<path class="st4" d="M135.9,213.2c0,0,20.6,5.2,29.1,3.3"/>
	<path class="st4" d="M150.9,152.9c0,0,11.7,18.5,24.4,22.8"/>
	<path class="st4" d="M194.6,134.7c2.6,5.5,5.7,11.1,9,13.9"/>
	<path class="st4" d="M188.4,118.9c0,0,1.4,4.4,3.6,9.8"/>
	<path class="st4" d="M290.8,119.5c0,0-6.8,21.7-14.1,29.6"/>
	<path class="st4" d="M328.2,156.1c0,0-17.4,14.7-26.6,17.4"/>
	<path class="st4" d="M342.4,214.8c0,0-20.4,6.8-31,5.4"/>
	<path class="st4" d="M305.4,245c0,0,7.9,3.5,19.8,1.4"/>
	<path class="st2" d="M178.2,182.9c-13.5,32.1-2.2,76.5,7.3,106.6c1.5,4.7,3.1,9.4,4.7,14c5.1,14.9,35,35.6,38.9,38.3
		c3.9,2.8,16.2,1.8,20.1-0.2c3.9-2,30.3-26,34.6-36.6c4.3-10.6,23.1-74.7,20.5-94.8c-4.7-36.2-23.2-44.6-43.7-50.9s-46.8-3.5-61,5.9
		C189.3,172.2,182.5,172.6,178.2,182.9z"/>
	<line class="st4" x1="197.2" y1="236.3" x2="194.9" y2="240.5"/>
	<path class="st3" d="M217.3,243.1c0,0-7.7,1.6-13.4,1c-5.7-0.6-11.8-5.1-11.8-5.1s-1.3,4.5,4.2,7
		C201.6,248.5,208.7,247.5,217.3,243.1z"/>
	<line class="st4" x1="279.2" y1="236.3" x2="281.4" y2="240.5"/>
	<path class="st3" d="M259,243.1c0,0,7.7,1.6,13.4,1c5.8-0.6,11.8-5.1,11.8-5.1s1.4,4.5-4.1,7C274.7,248.4,267.7,247.5,259,243.1z"
		/>
	<path class="st4" d="M226.6,271.8c0,0-1.6,6.4-0.3,9.3c0.9,1.8,2.2,3.3,3.8,4.5"/>
	<path class="st4" d="M249.1,271.8c0,0,1.6,6.4,0.3,9.3c-0.9,1.8-2.2,3.3-3.8,4.5"/>
	<path class="st4" d="M229.1,281.7c0,0,2.1-1,4,1.2c1.9,2.2,4.8,3.9,6.7,2.9c1.9-1,4.9-4.5,4.9-4.5c0.7-0.5,1.5-0.7,2.3-0.6"/>
	<path class="st5" d="M218.7,302.1c0,0,5.1,4.1,9.3,8.1c4.2,4.1,9.7,4.2,13.7,3.9s7.9-2.5,9.7-5.1c1.7-2.5,7.1-7.5,7.1-7.5
		L218.7,302.1z"/>
	<path class="st5" d="M263.3,298.6c0,0-6.1,1.3-8,0.7c-3.8-1.2-9.9-2-12.1-2.2c-1.9-0.2-4,0.6-5.5,1.4c-1.5-0.8-3.7-1.6-5.5-1.4
		c-2.3,0.3-8.7,1.1-12.5,2.3c-1.7,0.5-6.6,0-6.6,0s5,2.4,6.6,2.7c3.8,0.8,10.6,2.3,13.9,2.7c0.8,0.1,1.5,0.2,2.1,0.2
		c1.3,0.1,2.6,0.1,3.8,0c0.6-0.1,1.3-0.1,2.1-0.2c3.1-0.4,9.3-1.7,13.2-2.5C257,301.8,263.3,298.6,263.3,298.6z"/>
	<path class="st6" d="M222.9,217.6c0,0-19.7-2.9-26.6-2.3c-6.9,0.6-9,8.3-9,8.3s2.2-4.1,9.9-4.4c7.7-0.3,20.5,3.5,24.7,2.5
		c4.2-0.9,6.4-1.3,4.9-2.9C225.7,217.9,224.3,217.4,222.9,217.6z"/>
	<path class="st6" d="M253.7,217.6c0,0,19.6-2.9,26.6-2.3c6.9,0.6,9,8.3,9,8.3s-2.2-4.1-9.9-4.4c-7.7-0.3-20.5,3.5-24.7,2.5
		c-4.2-0.9-6.4-1.3-4.9-2.9C250.8,217.9,252.3,217.4,253.7,217.6z"/>
	<path class="st7" d="M228.8,211.4l-1.6-0.5"/>
	<path class="st8" d="M223.8,210c-8.1-2.1-24-5.7-31.6-3.6c-5.2,1.5-9.6,5-12.2,9.8"/>
	<path class="st7" d="M179.1,217.7c-0.2,0.5-0.5,1-0.6,1.6"/>
	<path class="st7" d="M246,211.4l1.6-0.5"/>
	<path class="st8" d="M251.1,210c8.1-2.1,24-5.7,31.6-3.6c5.2,1.5,9.6,5,12.2,9.8"/>
	<path class="st7" d="M295.7,217.7c0.2,0.5,0.4,1,0.6,1.6"/>
	<path class="st9" d="M177.4,254.9c0,0,25.5,20.5,46.4-1.8"/>
	<path class="st9" d="M186.4,281.1c5.3,3.2,11.9,3.6,17.6,1.1c9.7-4.3,21.2-19.8,21.2-19.8"/>
	<path class="st9" d="M296.7,254.9c0,0-25.5,20.5-46.4-1.8"/>
	<path class="st9" d="M287.7,281.1c-5.3,3.2-11.9,3.6-17.6,1.1c-9.7-4.3-21.2-19.8-21.2-19.8"/>
	<path class="st9" d="M222.1,335.1c0,0,13.2,4.8,35.1-0.4"/>
	<line class="st9" x1="239.2" y1="316" x2="239.2" y2="336.7"/>
	<path class="st5" d="M178.8,276.4c-1.3,0-2.5-0.8-2.9-2c-10.9-36.8-9.9-65.2-0.6-85.9c4.8-10.6,12.6-19.4,22.5-25.4
		c15.1-9.3,42.4-11.8,63.5-5.8c17.9,5.1,40.4,19.2,45.7,57.4c1.8,12.8-3.9,41.8-8.5,58c-0.5,1.5-2.1,2.4-3.6,2
		c-1.5-0.3-2.4-1.7-2.1-3.2c0,0,0-0.1,0-0.1c7.7-26.9,9.6-47.2,8.3-55.9c-2.7-19.5-12.2-44.4-41.6-52.8c-19.2-5.5-44.9-3.2-58.5,5.1
		c-9,5.4-16.1,13.5-20.4,23c-8.8,19.4-9.7,46.7,0.8,82.2c0.4,1.5-0.5,2.9-1.9,3.3c0,0-0.1,0-0.2,0
		C179.4,276.3,179.1,276.4,178.8,276.4z"/>
</g>
</svg>
