<?xml version="1.0" encoding="utf-8"?>
<!-- Generator: Adobe Illustrator 25.0.1, SVG Export Plug-In . SVG Version: 6.00 Build 0)  -->
<svg version="1.1" id="Layer_1" xmlns="http://www.w3.org/2000/svg" xmlns:xlink="http://www.w3.org/1999/xlink" x="0px" y="0px"
	 viewBox="0 0 300 300" style="enable-background:new 0 0 300 300;" xml:space="preserve">
<style type="text/css">
	.st0{fill:#E974AE;}
	.st1{fill:#FCFCFC;}
</style>
<g>
	<g>
		<path class="st0" d="M196.3,275.2c-5.2,0-10.3-0.1-15.4-1.6c-0.4,0-0.7-0.3-0.8-0.4c-5-3.3-7.3-12-7.1-26.8
			c0.3-25.8,0.5-41.1,0.8-56.5c0.1-6.4,0.2-12.9,0.3-20.1c0.2-10.3,0.3-21.8,0.5-36.4c0-4.3,0.1-9.2,1.4-13.3
			c1.1-3.4,4-9.7,8.4-16.1V88.1c0-0.7,0.3-1.4,0.8-1.9c0.5-0.5,1.2-0.8,1.9-0.8l33.4,0.2c1.5,0,2.7,1.2,2.7,2.7l-0.1,14.6l0.2,0.4
			c3.7,5.6,8.7,13.4,9.6,15.8c1.4,4,1.6,8.2,1.6,10.4c0,38,0.1,54.8,0.3,71c0.1,15,0.2,29.5,0.3,54c-0.1,12.8-3.1,15.3-6,17.8
			c-3.4,2.8-7.2,2.8-10,2.8h-21.9C196.8,275.2,196.5,275.2,196.3,275.2z M182.9,268.5c4.5,1.3,9.3,1.3,14,1.3h22
			c2.4,0,4.7,0,6.5-1.6c2.1-1.9,4-3.4,4.1-13.7c0-18.8-0.1-31.6-0.2-43c0-3.8-0.1-7.3-0.1-10.9c0-3.8,0-7.7-0.1-11.8
			c-0.1-13.9-0.2-31.2-0.2-59.3c0-3.6-0.4-6.5-1.2-8.6c-0.6-1.7-6-10.2-9.7-15.7c-0.3-0.5-0.5-1-0.5-1.5l0.1-12.7l-28-0.2V105
			c0,0.5-0.2,1.1-0.5,1.6c-4.1,5.9-7,12-8.1,15.3c-1.1,3.5-1.2,7.9-1.2,11.8c-0.3,23.6-0.5,40.6-0.8,56.5c-0.1,6.5-0.2,13-0.3,20.3
			c-0.2,10.2-0.3,21.8-0.5,36.2C178.2,262.7,181.4,267.2,182.9,268.5z"/>
		<path class="st0" d="M196.3,274.2c-5,0-10.1-0.1-15.2-1.6c-0.2,0-0.3-0.1-0.4-0.2c-4.7-3-6.9-11.5-6.7-26
			c0.3-24.7,0.5-40.9,0.8-56.5c0.2-15.6,0.5-31.8,0.8-56.5c0-4.2,0.1-9,1.4-13c1.2-3.7,4.2-10,8.4-16.1V88.1c0-0.5,0.2-0.9,0.5-1.2
			c0.3-0.3,0.7-0.5,1.2-0.5l33.4,0.2c0.9,0,1.7,0.8,1.7,1.7l-0.1,14.9c1.7,2.6,8.9,13.5,9.9,16.2c1.2,3.5,1.5,7.4,1.5,10.1
			c0,36.2,0.1,53.9,0.3,71c0.1,14.2,0.2,28.9,0.3,54c-0.1,12.3-2.9,14.7-5.6,17c-3.1,2.6-6.6,2.6-9.4,2.6h-22
			C196.7,274.2,196.5,274.2,196.3,274.2z M182.4,269.4c4.7,1.4,9.7,1.4,14.5,1.4h22c2.5,0,5.1,0,7.2-1.8c2.3-2,4.3-3.7,4.4-14.4
			c0-25-0.2-39.7-0.3-53.9c-0.1-17.2-0.3-34.9-0.3-71.1c0-3.5-0.4-6.6-1.3-9l0,0c-0.7-1.9-6.4-10.8-9.8-15.9
			c-0.2-0.3-0.3-0.6-0.3-0.9l0.1-13.7l-30-0.2V105c0,0.3-0.1,0.7-0.3,1c-4.1,5.9-7.1,12.1-8.2,15.6c-1.1,3.6-1.2,8.1-1.2,12.1
			c-0.3,24.7-0.5,40.9-0.8,56.5c-0.2,15.6-0.5,31.8-0.8,56.5C177.2,263,180.4,267.9,182.4,269.4z"/>
	</g>
	<path class="st0" d="M223.2,54.8c1,0.8,3.7,4.1,3.7,6.8c0.3,7.9-0.8,15.3-1,23.2c0,1.8-0.1,3.7-1.3,5c-1.6,2-4.6,2.2-7.2,2.3
		c-9.9,0.2-19.9,0-29.8-0.6c-1.7-0.1-3.4-0.3-4.7-1.3c-1.7-1.4-1.9-3.7-2-5.8c-0.2-7.8,0-15.6,0.5-23.4c0.1-1.2,0.2-2.4,0.7-3.5
		s1.6-2,2.5-2.4c6.9-5.7,11.5-14.9,11.6-23.5c0,0,16.1-0.1,15.9,0.3C213.7,42.8,216,49.3,223.2,54.8z"/>
	<path class="st0" d="M210.4,93.8c-7.6,0-15.2-0.2-22.8-0.7c-1.6-0.1-3.9-0.2-5.7-1.6c-2.5-2-2.6-5.3-2.6-7.1
		c-0.2-7.8,0-15.8,0.5-23.6c0.1-1.2,0.2-2.7,0.9-4.1c0.6-1.3,1.8-2.5,3.1-3.1c6.5-5.5,10.8-14.1,10.8-22.1c0-0.9,0.8-1.7,1.7-1.7
		c16.6-0.1,16.8,0.1,17.4,1.1c0.1,0.2,0.2,0.5,0.2,0.7c1.4,10.3,3.4,16.4,10.4,21.8l0,0c1.2,0.9,4.3,4.7,4.4,8.1
		c0.2,4.7-0.2,9.3-0.5,13.8c-0.2,3.1-0.4,6.3-0.5,9.5c0,2.1-0.2,4.3-1.7,6.1c-2,2.4-5.2,2.8-8.5,2.9
		C215.2,93.8,212.8,93.8,210.4,93.8z M197.9,33.2c-0.6,8.5-5.3,17.5-12.2,23.1c-0.1,0.1-0.3,0.2-0.5,0.3c-0.5,0.2-1.2,0.8-1.6,1.5
		c-0.4,0.8-0.5,1.9-0.5,2.9c-0.5,7.7-0.7,15.5-0.5,23.2c0.1,2.1,0.3,3.7,1.3,4.5c0.9,0.7,2.3,0.8,3.8,0.9c9.8,0.6,19.8,0.8,29.6,0.6
		c2.4,0,4.8-0.3,5.9-1.6c0.8-0.9,0.9-2.4,0.9-4c0.1-3.3,0.3-6.5,0.5-9.6c0.3-4.6,0.6-8.9,0.5-13.4c-0.1-2-2.4-5-3.1-5.5
		c-7.6-5.8-10-12.6-11.5-22.8C208.4,33.2,203.1,33.2,197.9,33.2z"/>
	<g>
		<path class="st0" d="M199.7,154.4c-5.5,0-11.2,0-16.8-0.1c-0.8,0-1.6-0.7-1.6-1.6s0.7-1.6,1.6-1.6c5.1,0.1,10.4,0.1,15.7,0.1
			c9.1,0,18.7-0.1,28.6-0.3c0,0,0,0,0,0c0.9,0,1.6,0.7,1.6,1.5c0,0.9-0.7,1.6-1.5,1.6C219.1,154.3,210,154.4,199.7,154.4z"/>
		<path class="st0" d="M199.7,153.4c-5.6,0-11.2,0-16.8-0.1c-0.3,0-0.6-0.3-0.6-0.6s0.3-0.6,0.6-0.6l0,0c14.7,0.2,29.6,0.1,44.3-0.2
			l0,0c0.3,0,0.6,0.2,0.6,0.5s-0.2,0.6-0.5,0.6C218.1,153.3,208.9,153.4,199.7,153.4z"/>
	</g>
	<g>
		<path class="st0" d="M182.9,162.2c-0.8,0-1.6-0.7-1.6-1.6s0.7-1.6,1.6-1.6l13.8,0.1c0.8,0,1.6,0.7,1.6,1.6c0,0.9-0.7,1.6-1.6,1.6
			L182.9,162.2z"/>
		<path class="st0" d="M196.7,161.3L196.7,161.3l-13.8-0.1c-0.3,0-0.6-0.3-0.6-0.6s0.3-0.6,0.6-0.6l0,0l13.8,0.1
			c0.3,0,0.6,0.3,0.6,0.6C197.3,161.1,197,161.3,196.7,161.3z"/>
	</g>
	<g>
		<path class="st0" d="M219.6,238.7c-3.8,0-7.6-0.1-11.3-0.2c-1.9,0-3.7-0.1-5.6-0.1c-5.2-0.1-11.6-0.3-17.6-0.3c-1.3,0-2.6,0-3.9,0
			c-0.9,0-1.6-0.7-1.6-1.6s0.7-1.6,1.6-1.6c1.3,0,2.6,0,3.9,0c6,0,12.2,0.2,17.7,0.3c5.2,0.1,11.6,0.3,17.6,0.3c1.3,0,2.6,0,3.9,0
			c0.9,0,1.6,0.7,1.6,1.6s-0.7,1.6-1.6,1.6H219.6z"/>
		<path class="st0" d="M219.6,237.7c-5.6,0-11.3-0.2-16.9-0.3c-7.1-0.2-14.5-0.4-21.5-0.3c-0.3,0-0.6-0.2-0.6-0.6
			c0-0.3,0.2-0.6,0.6-0.6c7-0.1,14.4,0.1,21.6,0.3c7.1,0.2,14.5,0.4,21.5,0.3c0.3,0,0.6,0.2,0.6,0.6c0,0.3-0.2,0.6-0.6,0.6
			C222.7,237.7,221.1,237.7,219.6,237.7z"/>
	</g>
	<g>
		<path class="st1" d="M191.2,82.8L191.2,82.8c-0.6,0-1.2-0.3-1.2-0.6l0.6-18.7c0-0.3,0.6-0.6,1.2-0.6s1.2,0.3,1.2,0.6l-0.6,18.7
			C192.3,82.6,191.7,82.8,191.2,82.8z"/>
	</g>
	<g>
		<path class="st1" d="M216.1,82.8L216.1,82.8c-0.5,0-0.9-0.3-0.9-0.6l0.5-18.7c0-0.3,0.5-0.6,0.9-0.6c0.5,0,0.9,0.3,0.9,0.6
			l-0.5,18.7C216.9,82.6,216.6,82.8,216.1,82.8z"/>
	</g>
	<g>
		<path class="st1" d="M207.8,82.8L207.8,82.8c-0.4,0-0.9-0.3-0.9-0.6l0.4-18.7c0-0.3,0.4-0.6,0.9-0.6s0.9,0.3,0.9,0.6l-0.4,18.7
			C208.6,82.6,208.3,82.8,207.8,82.8z"/>
	</g>
	<g>
		<path class="st1" d="M199.5,82.8L199.5,82.8c-0.5,0-0.9-0.3-0.9-0.6l0.5-18.7c0-0.3,0.5-0.6,0.9-0.6c0.5,0,0.9,0.3,0.9,0.6
			l-0.5,18.7C200.3,82.6,200,82.8,199.5,82.8z"/>
	</g>
	<g>
		<path class="st0" d="M48.3,275.2c-0.7,0-1.4-0.3-1.9-0.8c-0.5-0.5-0.8-1.2-0.8-1.9V108.2c0-1.5,1.2-2.7,2.7-2.7l92-0.5
			c0.7,0,1.4,0.3,1.9,0.8c0.5,0.5,0.8,1.2,0.8,1.9l0.1,164.3c0,1.5-1.2,2.7-2.7,2.7L48.3,275.2L48.3,275.2z M50.9,269.9l86.8-0.5
			l-0.1-158.9l-86.7,0.4V269.9z"/>
		<path class="st0" d="M48.3,274.2c-0.4,0-0.9-0.2-1.2-0.5s-0.5-0.7-0.5-1.2V108.2c0-0.9,0.8-1.7,1.7-1.7l92-0.5l0,0
			c0.4,0,0.9,0.2,1.2,0.5s0.5,0.7,0.5,1.2l0.1,164.3c0,0.9-0.8,1.7-1.7,1.7L48.3,274.2L48.3,274.2z M49.9,109.9v161l88.8-0.5
			l-0.1-160.9L49.9,109.9z"/>
	</g>
	<g>
		<path class="st0" d="M83.6,174.7C78.1,189.1,72.4,202,69.7,211c-0.9,3.1-0.6,6.5,0.3,9.6c5,16,30.2,9.1,25.3-13.5
			C93.4,198.3,87.3,182.7,83.6,174.7z"/>
		<path class="st0" d="M81.4,231c-5.3,0-10.8-2.8-13-9.9c-1.1-3.6-1.3-7.4-0.3-10.5c1.7-5.7,4.5-12.7,7.8-20.9
			c2-5,4.1-10.2,6.1-15.6c0.2-0.6,0.8-1.1,1.5-1.1c0.7-0.1,1.3,0.4,1.6,1c3.6,7.8,9.9,23.7,11.9,32.8c2.9,13.4-4.1,21.7-11.8,23.7
			C84,230.8,82.7,231,81.4,231z M83.7,179.1c-1.6,4.1-3.2,8-4.7,11.9c-3.2,8.1-6,15-7.7,20.6c-0.7,2.5-0.6,5.6,0.3,8.6
			c2.1,6.7,7.9,8.4,12.7,7.1c6.2-1.6,11.8-8.5,9.3-19.7C92,199.9,87.3,187.3,83.7,179.1z"/>
	</g>
	<g>
		<path class="st0" d="M113.7,153c-3.2,7.9-6.6,15-8.2,19.9c-0.5,1.7-0.4,3.6,0.2,5.2c3,8.7,17.8,5,14.9-7.4
			C119.5,165.9,115.9,157.4,113.7,153z"/>
		<path class="st0" d="M112.5,184.5c-3.5,0-6.9-1.8-8.3-5.9c-0.7-2.1-0.8-4.4-0.2-6.3c1-3.1,2.7-7,4.6-11.5c1.2-2.7,2.4-5.6,3.6-8.5
			c0.2-0.6,0.8-1,1.5-1.1c0.7,0,1.3,0.3,1.6,0.9c2.1,4.3,5.9,13.1,7.1,18.1c1.8,7.6-2.4,12.5-7.1,13.8
			C114.3,184.4,113.4,184.5,112.5,184.5z M113.8,157.1c-0.7,1.7-1.5,3.4-2.2,5.1c-1.9,4.4-3.5,8.2-4.5,11.2
			c-0.4,1.2-0.3,2.7,0.2,4.2c1.1,3.3,4.4,4.1,6.9,3.4c3.3-0.9,6-4.3,4.7-9.8C118.1,167.4,115.8,161.5,113.8,157.1z"/>
	</g>
	<g>
		<path class="st0" d="M56.9,132.6c-0.9,0-1.6-0.7-1.6-1.5c0-0.9,0.7-1.6,1.5-1.6l4.6-0.1c17.2-0.5,38.7-1,55.4-1
			c6.2,0,11.4,0.1,15.4,0.2c0,0,0,0,0,0c0.4,0,0.9,0.2,1.2,0.6c0.2,0.3,0.3,0.7,0.2,1.1c-0.1,0.8-0.7,1.4-1.5,1.4
			c-0.1,0-0.2,0-0.3,0c-3.9-0.2-9-0.2-15.1-0.2c-16.6,0-37.9,0.6-55,1L56.9,132.6L56.9,132.6z"/>
		<path class="st0" d="M56.9,131.6c-0.3,0-0.6-0.2-0.6-0.5s0.2-0.6,0.5-0.6c23-0.6,57.9-1.6,75.4-0.9c0.3,0,0.6,0.3,0.5,0.6
			c0,0.3-0.3,0.6-0.6,0.5C114.8,130,80,131,56.9,131.6L56.9,131.6z"/>
	</g>
	<g>
		<path class="st0" d="M57.2,251.3c-0.9,0-1.6-0.7-1.6-1.6s0.7-1.6,1.6-1.6l75-0.2c0.9,0,1.6,0.7,1.6,1.6s-0.7,1.6-1.6,1.6
			L57.2,251.3L57.2,251.3z"/>
		<path class="st0" d="M57.2,250.3c-0.3,0-0.6-0.3-0.6-0.6s0.3-0.6,0.6-0.6l75-0.2l0,0c0.3,0,0.6,0.3,0.6,0.6s-0.3,0.6-0.6,0.6
			L57.2,250.3L57.2,250.3z"/>
	</g>
	<g>
		<path class="st0" d="M57.2,140.8c-0.7,0-1.3-0.5-1.5-1.2l-0.1-0.2v-0.2c0-0.9,0.6-1.6,1.4-1.6c3.1-0.4,6.2-0.6,9.2-0.6
			c2.5,0,4.9,0.1,7.4,0.4c0.8,0,1.4,0.7,1.4,1.6c0,0.8-0.7,1.5-1.6,1.5h-0.1l-0.1,0c-2.3-0.3-4.7-0.4-7.1-0.4
			c-2.9,0-5.9,0.2-8.9,0.6L57.2,140.8L57.2,140.8z"/>
		<path class="st0" d="M57.2,139.8c-0.3,0-0.5-0.2-0.6-0.5c0-0.3,0.2-0.6,0.5-0.6c5.4-0.7,10.9-0.8,16.4-0.2c0.3,0,0.5,0.3,0.5,0.6
			s-0.3,0.5-0.6,0.5C68,139,62.6,139.1,57.2,139.8C57.3,139.8,57.2,139.8,57.2,139.8z"/>
	</g>
</g>
</svg>
