<?xml version="1.0" encoding="utf-8"?>
<!-- Generator: Adobe Illustrator 25.0.1, SVG Export Plug-In . SVG Version: 6.00 Build 0)  -->
<svg version="1.1" id="Layer_1" xmlns="http://www.w3.org/2000/svg" xmlns:xlink="http://www.w3.org/1999/xlink" x="0px" y="0px"
	 viewBox="0 0 300 300" style="enable-background:new 0 0 300 300;" xml:space="preserve">
<style type="text/css">
	.st0{fill:#1D1C1B;}
</style>
<path class="st0" d="M116.8,172.9c-5.5-3.7-11-7.4-16.4-11c9.8,9.3,21.1,16.1,33.8,21c-1.8-2.2-3.7-4.4-5.7-6.8
	c0.6,0.2,1.1,0.3,1.5,0.4c0.1-0.2,0.2-0.3,0.4-0.5c-1-0.8-1.9-1.9-3.1-2.5c-15.6-7.5-28.5-18.1-38-32.6
	c-7.6-11.6-12.3-24.3-14.4-37.9c-0.2-1.3-0.3-2.5-0.5-3.8c0-0.2,0.1-0.5,0.1-1c1,4.7,2,9,2.9,13.4c9.4-2,18.5-3.9,27.7-5.9
	c-0.7-4.7-1.4-9.4-2.3-14.1c-0.1-0.4-1.2-0.9-1.8-1c-2.6-0.3-5.3-0.3-7.9-0.7c-4.8-0.6-7.6-3.9-7.8-8.7c-0.1-1.6-0.8-3.1-0.9-4.9
	c0.8,1.5,1.8,2.9,2.2,4.5c1.2,4.7,3.3,6.4,8.2,6c2.4-0.2,4.7-0.4,7.4-0.6c-0.1-1.1-0.2-2-0.2-2.9c0-1.3-0.7-1.9-2-1.7
	c-0.1,0-0.2,0-0.2,0c-2,0-4.5,0.7-5.8-0.3c-1.2-0.8-1.1-3.5-1.6-5.3c-1.2-3.9-3.6-6.7-7.2-8.5c-0.6-0.3-1.2-0.6-1.8-1
	c5.6,0.2,9.8,3,12.3,7.7c1.4,2.6,2.9,3,5.6,2.3c-0.1-2-0.3-4-0.5-6c-0.4-3.9,0.3-5.2,3.9-7c6.1-2.9,12.8-4,19.4-4.9
	c16.1-2.1,32.3-2.1,48.5-0.4c7.2,0.8,14.4,1.9,21.2,4.7c4.8,2,5.6,3.4,5,8.6c-0.2,2.1-0.4,4.2-0.6,6.5c2.8,0.1,4.7-0.2,5.7-3.4
	c0.9-2.8,3.4-5,5-7.4c-5.5-2.5-11.5-5.3-17.6-8c0.1-0.1,0.1-0.2,0.2-0.4c5.8,1.3,11.6,2.6,17.4,3.8c0.8,0.2,1.6,0.3,2.4,0.4
	c2.5,0.3,3.6-1,3.1-3.4c-1.2-5.4-2.5-10.9-3.8-16.3c-0.1-0.5-0.2-1.1,0.1-1.8c2.2,4,4.5,7.9,6.7,11.9c1.1,1.9,2.2,3.9,3.3,5.9
	c1.6,2.9,2.7,3.1,5.1,0.9c5-4.5,9.9-9.1,14.8-13.6c0.6-0.5,1.2-1,2.1-1.3c-2.6,4.4-5.2,8.9-7.8,13.3c-1,1.7-2,3.3-2.9,4.9
	c-1.7,2.9-1.2,4,2,5c4.5,1.4,9,2.8,13.5,4.2c-5.8,1.3-11.4,0-17.1-0.8c1.6-0.2,3.1-0.3,4.7-0.5c0-0.1,0.1-0.2,0.1-0.4
	c-0.9-0.3-1.9-0.7-2.8-1c-3.1-1.1-4.2-3.7-2.6-6.7c1.4-2.6,2.9-5.1,4.1-7.8c-2.4,2.2-4.7,4.4-7.2,6.5c-2.8,2.5-5.6,2.1-7.5-1.2
	c-0.6-1-1.2-2.1-1.7-3.1c-0.5-1-1.1-1.9-1.4-2.4c0,2.2,0.6,5-0.1,7.3c-1.1,3.3-4.3,2.6-7.1,2.4c1.9,1,3.7,2.1,5.7,3.2
	c-5.1,2.8-7.6,7.2-8.8,12.7c-2.6-0.3-5-0.5-7.7-0.8c-0.2,2-0.4,3.9-0.7,6.2c5.5-0.4,11.4,3.5,15.6-2.8c-0.2,2.9-2.4,5.2-6,5.9
	c-2.7,0.5-5.6,0.5-8.3,1c-0.7,0.1-1.8,0.9-1.9,1.5c-0.8,4.5-1.5,9.1-2.2,13.7c8.7,1.8,17.2,3.6,26.1,5.5c0.8-3.5,1.9-7,2.5-10.5
	c0.8-5.4,1.4-10.9,1.8-16.4c0.2-2.9,0.1-6-3.1-8c2.7,0.7,4.1,1.8,4.3,4.8c0.5,6,0.6,12.1,0.6,18.1c0,2.7-0.6,5.3-0.5,8.1
	c0.9-5.4,1.8-10.8,2.7-16.2c0.9,14-2.1,27.3-8.1,39.9c-6,12.7-14.7,23.2-26.2,31.2c-0.2-0.2-0.3-0.3-0.5-0.5c3-2.7,5.9-5.4,8.9-8
	c-0.2-0.2-0.4-0.4-0.6-0.7c-1.7,1.5-3.4,3.1-5.2,4.6c-6.7,5.9-14.3,10.5-22.5,13.8c-2.5,1-4.1,2.5-5,5.2c0.6-0.1,1-0.2,1.7-0.3
	c-1.2,1.3-2.2,2.5-3.4,3.8c10.7-0.4,36.2-19,48-35.4c12.2-16.9,18.2-36,19.2-56.7c0.4,9.2-1,18.1-3.2,27.1
	c12.2,4.3,23.7,9.5,34.3,17.3c-5.3,9.1-10.6,18.1-16,27.3c9.5,8.1,20.9,12,32.5,15.5c0.1,0.3,0.1,0.5,0.2,0.8
	c-4.7,2.3-9.2,4.9-14.1,6.7c-4.8,1.8-10,2.7-15,4c0.4,4.2,1,8.7,1.1,13.2c0.1,4.4-0.5,8.8-0.8,13.7c-2.7-1-4.6-1.7-6.5-2.4
	c-14.8-5.6-28.7-12.8-40.8-23.1c-3.2-2.7-6-5.7-9-8.6c-1.2-1.1-1.2-2.2-0.4-3.6c1.5-2.6,2.9-5.3,4.3-8c0.4-0.7,0.7-1.4,1-2
	c-0.1-0.2-0.3-0.3-0.4-0.5c-0.5,0.3-1.2,0.4-1.6,0.8c-10.6,9.3-22.8,16-36.1,20.8c-0.9,0.3-1.9,1.4-2.3,2.4
	c-4.1,10.1-3.8,20.5-0.5,30.7c2.6,8.2,6.2,16,11.6,23c0.6,0.7,1.2,1.4,2.1,2c-1.1-1.9-2.3-3.9-3.1-5.2c4.2,2.4,9,4.9,13.4,7.8
	c3.2,2.1,5,5.6,5.8,9.3c0.2,0.7-0.9,2.1-1.7,2.5c-3.5,1.5-7,3.1-10.7,3.8c-11.5,2.3-23.3,2.9-35,2.2c-8.5-0.5-17-1.5-25.4-2.7
	c-3.1-0.4-6-1.9-9-3.1c-1.8-0.8-2.4-2.3-1.5-4.3c1.8-3.9,3.9-7.2,8.2-9.2c4-1.9,7.6-4.7,11.4-7.2c-1.1,1.8-2.3,3.8-3.6,5.8
	c0.1,0.1,0.3,0.2,0.4,0.3c1.8-2.6,3.9-5.1,5.5-7.8c5.5-9.7,9.4-19.9,9.9-31.2c0.3-7-1.2-13.6-4.4-19.9c-0.4-0.8-1.3-1.6-2.2-1.9
	c-12.7-3.6-24.4-9.3-34.7-17.7c-0.4-0.3-0.8-0.6-1.2-0.8c-0.1-0.1-0.3,0-0.9-0.1c0.8,1.6,1.5,2.9,2.2,4.2c1.1,2,2.1,4.1,3.3,6.1
	c0.8,1.3,0.6,2.3-0.4,3.4c-5.5,6.2-11.9,11.3-18.7,16c-11,7.5-23,13-35.5,17.5c-0.4,0.2-0.9,0.2-1.7,0.4c-2-9-1.5-17.8,0.3-27.1
	c-10.7-0.9-20.3-4.8-29.8-10.8c3-1,5.5-1.8,8.1-2.6c8.2-2.7,16-6.3,23-11.5c1.5-1.1,1.7-2,0.7-3.7c-4.6-7.6-9-15.2-13.5-22.9
	c-0.4-0.7-0.8-1.5-1.5-2.8c5.5-3.2,10.8-6.5,16.3-9.3c4.9-2.5,10.1-4.4,15.2-6.4c1.4-0.6,1.7-1.1,1.4-2.6c-2.6-10.3-3.3-20.8-2-31.3
	c0.3-2.7,1.4-5.3,2.3-7.8c-2.4,14.5,0.9,28.3,5,42.1c-1-5.1-2.3-10.2-2.9-15.4c-0.6-5.2-0.6-10.4-0.6-15.6
	c2.3,35.4,20.9,68.2,49.6,86.9C117.1,172.5,116.9,172.7,116.8,172.9z M219.6,145c-0.8,0.7-1.5,1.4-2.5,2.3c0.8,0.5,1.2,0.8,1.7,1.1
	c-1.4-0.5-2.3,0-3.2,1.2c-1.1,1.7-2.3,3.2-3.6,4.7c-2.6,3-5.3,6-8.1,9.1c10.6,3.8,21.2,7.1,30.7,13c-0.1,0.2-0.1,0.5-0.2,0.7
	c-8.1-0.4-16.2-0.8-24.3-1.3c0-0.2,0-0.4,0-0.5c1.7-0.1,3.4-0.2,5.1-0.3c0-0.1,0-0.2,0-0.3c-2.5-0.4-5.1-0.8-7.6-1.3
	c0-0.1,0-0.1,0-0.2c3-0.2,6-0.4,9-0.6c0-0.1,0-0.2,0-0.3c-2.7-0.4-5.4-0.8-8.1-1.2c0-0.1,0-0.1,0-0.2c2.2-0.2,4.3-0.4,6.5-0.5
	c-1-0.7-2.1-0.8-3.1-1c-0.6-0.1-1.4-0.1-1.7-0.4c-1.6-2.1-4.4-2.8-7.4-1.4c0.7,0.4,1.2,0.6,1.9,1c-1.2,0.3-1.9,0.5-2.6,0.7
	c-0.2,0.3-0.3,0.6-0.5,0.9c0.6,0.1,1.3,0.3,2.4,0.5c-1.6,0.4-2.3,0.6-3.3,0.9c0.8,0.7,1.3,1.1,1.8,1.5c-1.3,0.3-3.6-0.1-1.6,2.2
	c-2.4,0.7-2.8,1.7-1.3,3.6c0.6,0.8,1.3,1.6,2,2.4c7.8,8.4,17.1,14.5,27.4,19.3c4.3,2,8.7,3.5,13.1,5.3c0.1-0.2,0.2-0.4,0.2-0.5
	c-1.3-0.9-2.6-1.7-3.9-2.6c0.1-0.2,0.2-0.4,0.3-0.5c3.4,1.6,6.7,3.2,10.1,4.9c0.1-0.1,0.1-0.2,0.2-0.4c-3-2-6-4-8.9-6
	c0.1-0.1,0.1-0.3,0.2-0.4c3.4,1.6,6.8,3.2,10.2,4.8c0.1-0.1,0.2-0.3,0.3-0.4c-2.9-1.9-5.7-3.8-8.6-5.7c0.1-0.1,0.1-0.2,0.2-0.3
	c2.9,1.3,5.9,2.6,8.8,3.9c0.1-0.2,0.2-0.4,0.3-0.6c-2.6-1.6-5.1-3.3-7.7-4.9c0.1-0.1,0.1-0.2,0.2-0.3c2.6,1.1,5.1,2.1,7.7,3.2
	c0.1-0.3,0.3-0.5,0.4-0.8c-1.9-1.2-3.7-2.4-5.6-3.6c0-0.1,0.1-0.2,0.1-0.3c1.8,0.7,3.5,1.4,5.3,2.1c0.2-0.3,0.3-0.5,0.5-0.8
	c-1.1-0.9-2.2-1.7-3.4-2.6c0-0.1,0.1-0.2,0.1-0.2c0.9,0.3,1.9,0.7,2.8,1c0.2-0.1,0.3-0.3,0.5-0.4c-0.5-0.8-1-1.6-1.1-1.8
	c1.7-2.4,0.2-5.1,0.8-7.4c7-1.1,13.5-3.6,19.5-7.3c-0.5-0.4-0.8-0.7-1.2-1c1.3,0,2.5,0,3.6,0c0-0.2,0-0.4,0-0.6
	c-8.5-4.4-17-8.8-25.6-13.2c0,0.1-0.1,0.1-0.1,0.2c2.5,2,5,3.9,7.5,5.9c-0.1,0.1-0.2,0.3-0.3,0.4c-2.8-1.6-5.6-3.1-8.4-4.7
	c-0.1,0.1-0.2,0.3-0.3,0.4c2.3,1.8,4.6,3.6,7,5.4c-0.1,0.1-0.1,0.2-0.2,0.4c-2.6-1.4-5.2-2.7-7.8-4.1c-0.1,0.2-0.2,0.3-0.3,0.5
	c2.2,1.7,4.4,3.4,6.6,5.1c-0.1,0.1-0.1,0.2-0.2,0.3c-2.5-1.3-4.9-2.5-7.4-3.8c-0.1,0.2-0.2,0.4-0.3,0.5c1.9,1.5,3.8,2.9,5.7,4.4
	c-0.1,0.1-0.1,0.2-0.2,0.4c-2.2-1.1-4.3-2.2-6.5-3.3c-0.1,0.2-0.2,0.4-0.4,0.6c1.8,1.4,3.7,2.8,5.5,4.1c-0.1,0.1-0.1,0.2-0.2,0.3
	c-2.1-1-4.2-2-6.3-3c-0.1,0.2-0.2,0.4-0.4,0.7c1.5,1.2,3.1,2.3,4.6,3.5c-0.1,0.1-0.1,0.2-0.2,0.3c-1.7-0.8-3.5-1.6-5.2-2.4
	c-0.1,0.2-0.3,0.5-0.4,0.7c1.4,1.1,2.9,2.2,4.3,3.3c0,0.1-0.1,0.2-0.1,0.2c-1.7-0.8-3.4-1.5-5.1-2.3c-0.1,0.2-0.3,0.5-0.4,0.7
	c1.2,1,2.5,2,3.7,3c0,0.1-0.1,0.1-0.1,0.2c-1.4-0.6-2.9-1.3-4.3-1.9c-0.2,0.3-0.3,0.5-0.5,0.8c1.2,1,2.3,2,3.8,3.2
	c-2.2-0.9-4-1.6-5.8-2.3c-0.1,0.2-0.2,0.5-0.3,0.7c0.8,0.7,1.6,1.4,2.4,2.1c-0.1,0.1-0.1,0.2-0.2,0.3c-1.9-0.9-3.9-1.9-5.8-2.8
	c-0.1,0.2-0.2,0.4-0.3,0.6c1.7,1.3,3.3,2.5,5,3.8c-0.1,0.1-0.2,0.3-0.3,0.4c-2.8-1.5-5.6-3-8.4-4.5c-0.1,0.1-0.2,0.3-0.3,0.4
	c2.4,1.9,4.9,3.7,7.3,5.6c-0.1,0.1-0.2,0.3-0.2,0.4c-3.3-1.9-6.7-3.8-10-5.6c-0.1,0.1-0.1,0.2-0.2,0.3c2.7,2.1,5.5,4.2,8.2,6.4
	c-0.1,0.1-0.2,0.3-0.3,0.4c-3.1-1.7-6.1-3.4-9.2-5.1c-0.1,0.1-0.2,0.2-0.2,0.4c2.7,2.1,5.5,4.2,8.2,6.3c-0.1,0.1-0.1,0.3-0.2,0.4
	c-3.5-1.9-6.9-3.9-10.4-5.8c-0.1,0.1-0.2,0.3-0.3,0.4c2.9,2.3,5.9,4.5,8.8,6.8c-0.1,0.1-0.2,0.3-0.3,0.4c-3.4-1.9-6.7-3.8-10.1-5.7
	c-0.1,0.2-0.2,0.3-0.3,0.5c3,2.3,6,4.5,9,6.8c-0.1,0.1-0.2,0.3-0.3,0.4c-4.4-2.6-8.8-5.1-13.2-7.7c-0.1,0.1-0.1,0.2-0.2,0.3
	c3.3,2.7,6.6,5.4,9.8,8.1c-8.8-4.2-16.5-10-23.9-17.3c1.2-0.1,1.7-0.2,2.1-0.2c5,0.1,10.1,0.2,15.1,0.4c5.7,0.1,11.3,0.4,17,0.4
	c0.9,0,1.8-0.7,2.7-1.1c-0.6-0.8-1-1.8-1.7-2.3c-2.1-1.4-4.3-2.7-6.6-3.8c-4.6-2.2-9.3-4.2-14-6.3c0-0.1,0.1-0.2,0.1-0.3
	c6.3,1.9,12.6,3.8,18.8,5.7c0.1-0.2,0.1-0.4,0.2-0.6c-6.1-2.8-12.2-5.5-18.3-8.3c0-0.1,0.1-0.2,0.1-0.3c6.3,1.9,12.5,3.9,18.8,5.8
	c0.1-0.2,0.2-0.4,0.2-0.6c-6.1-2.8-12.1-5.5-18.2-8.3c0-0.1,0.1-0.2,0.1-0.3c6.6,2.1,13.1,4.2,19.7,6.3c-3.2-2.1-6.5-3.8-9.9-5.3
	c-3.4-1.5-6.8-2.9-10.3-4.3c0-0.1,0.1-0.3,0.1-0.4c7.2,2.3,14.5,4.7,21.7,7c0.1-0.2,0.2-0.4,0.2-0.5c-7.1-3.2-14.1-6.4-21.2-9.7
	c0-0.1,0-0.1,0.1-0.2c7.4,2.4,14.8,4.9,22.3,7.3c-2.2-1.5-4.5-2.8-6.9-3.9c-4.5-2.1-9.1-4.1-13.7-6.2c3.9,1.2,7.9,2.3,11.8,3.5
	c3.1,1,6.1,2.1,9.1,3.1c-1.7-1.5-3.5-2.5-5.5-3.4C229.3,149.3,224.4,147.1,219.6,145c0.5,0,1,0,1.5,0.2c6.3,2.1,12.5,4.2,18.7,6.3
	c0.5,0.2,1,0.3,1.5,0.4c0.1-0.2,0.2-0.5,0.3-0.7c-6.3-2.8-12.6-5.7-18.9-8.5C220.4,141.8,219.9,142.3,219.6,145z M83.7,150.9
	c-1.4-2.5-3.3-2.5-5.7-1.3c-3,1.6-6.3,2.7-9.4,4.2c-2.9,1.3-5.7,2.8-8.5,4.2c0,0.1,0.1,0.1,0.1,0.2C68.1,155.8,76,153.3,83.7,150.9
	c-0.7,0.3-1.5,0.8-2.3,1.1c-6.7,3-13.4,5.9-20.1,8.8c0.1,0.2,0.2,0.4,0.3,0.6c7.2-2.3,14.4-4.7,21.6-7c0,0.1,0,0.2,0.1,0.2
	c-6.7,3-13.4,6.1-20.1,9.1c0.1,0.2,0.2,0.4,0.3,0.6c6.5-2.1,13.1-4.2,19.6-6.3c0,0.1,0.1,0.2,0.1,0.3c-6.1,2.8-12.2,5.5-18.3,8.3
	c0.1,0.2,0.2,0.4,0.3,0.6c6.3-1.9,12.5-3.9,18.8-5.8c0,0.1,0,0.2,0,0.2c-6.1,2.8-12.2,5.6-18.3,8.4c0.1,0.2,0.2,0.3,0.2,0.5
	c6.3-1.9,12.6-3.8,18.9-5.7c-3.3,1.8-6.9,3.1-10.2,4.8c-3.6,1.8-7.2,3.8-10.7,5.9c-0.6,0.4-0.9,1.3-1.4,2c0.8,0.4,1.6,0.9,2.4,1.1
	c0.5,0.2,1.1,0,1.7,0c9.8-0.3,19.6-0.5,29.4-0.8c0.8,0,1.7,0,2.7,0c-2.1,4.3-19.4,17.2-23.1,17.4c3-2.4,5.9-4.9,8.9-7.3
	c-0.1-0.1-0.2-0.2-0.3-0.4c-4.1,2.3-8.2,4.7-12.2,7c-0.1-0.1-0.2-0.3-0.2-0.4c3-2.3,6-4.6,9-6.8c-0.1-0.1-0.2-0.3-0.3-0.4
	c-3.4,1.9-6.8,3.8-10.2,5.7c-0.1-0.1-0.2-0.3-0.2-0.4c2.9-2.3,5.9-4.5,8.8-6.8c-0.1-0.1-0.2-0.3-0.3-0.4c-3.4,1.9-6.9,3.8-10.3,5.7
	c-0.1-0.1-0.1-0.3-0.2-0.4c2.7-2.1,5.4-4.2,8.1-6.2c-0.1-0.1-0.2-0.2-0.3-0.3c-3.1,1.7-6.1,3.4-9.2,5.1c-0.1-0.1-0.2-0.3-0.2-0.4
	c2.7-2.1,5.5-4.2,8.2-6.3c-0.1-0.1-0.1-0.2-0.2-0.3c-3.3,1.9-6.7,3.7-10,5.6c-0.1-0.1-0.2-0.3-0.2-0.4c2.4-1.8,4.8-3.7,7.2-5.5
	c-0.1-0.1-0.2-0.3-0.3-0.4c-2.8,1.5-5.5,3-8.3,4.5c-0.1-0.2-0.2-0.3-0.2-0.5c1.7-1.3,3.3-2.5,5-3.8c-0.1-0.2-0.2-0.4-0.4-0.6
	c-2.2,1.1-4.4,2.2-6.5,3.3c-0.1-0.1-0.1-0.2-0.2-0.3c1.1-0.8,2.1-1.7,3.2-2.5c-0.1-0.2-0.3-0.5-0.4-0.7c-1.8,0.7-3.6,1.5-5.7,2.3
	c1.4-1.2,2.5-2.2,3.6-3.3c-0.2-0.2-0.4-0.4-0.5-0.6c-1.4,0.6-2.8,1.3-4.2,1.9c0-0.1-0.1-0.1-0.1-0.2c1.2-1,2.4-2.1,3.7-3.1
	c-0.2-0.2-0.3-0.5-0.5-0.7c-1.7,0.8-3.3,1.6-5,2.4c-0.1-0.1-0.1-0.2-0.2-0.3c1.4-1.1,2.9-2.2,4.3-3.3c-0.2-0.3-0.3-0.5-0.5-0.8
	c-1.7,0.9-3.4,1.7-5.1,2.6c-0.1-0.1-0.1-0.3-0.2-0.4c1.5-1.2,3.1-2.3,4.6-3.5c-0.2-0.2-0.3-0.4-0.5-0.7c-2.1,1-4.2,2-6.3,3
	c-0.1-0.1-0.1-0.2-0.2-0.3c1.9-1.4,3.7-2.8,5.6-4.2c-0.1-0.2-0.3-0.4-0.4-0.6c-2.1,1.1-4.3,2.1-6.4,3.2c-0.1-0.1-0.1-0.2-0.2-0.4
	c1.9-1.4,3.7-2.9,5.6-4.3c-0.1-0.2-0.2-0.3-0.4-0.5c-2.2,1.1-4.3,2.3-6.5,3.4c-0.1-0.2-0.2-0.3-0.2-0.5c2-1.5,3.9-3,5.9-4.6
	c-0.1-0.1-0.2-0.3-0.3-0.4c-2.6,1.4-5.2,2.7-7.8,4.1c-0.1-0.1-0.1-0.3-0.2-0.4c2.2-1.7,4.4-3.4,6.6-5.1c-0.1-0.1-0.2-0.3-0.3-0.4
	c-2.7,1.5-5.5,2.9-8.2,4.4c-0.1-0.1-0.1-0.2-0.2-0.4c2.5-2,5-4,7.5-5.9c-0.1-0.1-0.1-0.1-0.2-0.2c-8.5,4.4-17,8.8-25.5,13.2
	c0,0.2,0,0.4,0,0.6c1.2,0,2.4,0,3.6,0c-0.4,0.3-0.8,0.7-1.2,1.1c6.2,3.7,12.6,6.1,19.5,7.3c0.5,2.4-0.9,5,0.9,7.1
	c-0.3,0.4-0.7,1.2-1.2,2c0.2,0.1,0.3,0.2,0.5,0.4c0.9-0.3,1.9-0.7,3.3-1.1c-1.5,1.3-2.5,2.2-3.6,3.1c0.2,0.2,0.3,0.4,0.5,0.6
	c1.7-0.7,3.5-1.3,5.8-2.2c-2.1,2-4.7,2.3-6,5c3.1-1.3,5.6-2.4,8.2-3.4c0,0.1,0.1,0.2,0.1,0.3c-2.6,1.7-5.1,3.3-7.7,5
	c0.1,0.2,0.2,0.4,0.4,0.6c2.9-1.3,5.8-2.6,8.7-3.9c0.1,0.1,0.1,0.2,0.2,0.3c-2.8,1.9-5.7,3.8-8.5,5.7c0.1,0.1,0.2,0.3,0.2,0.4
	c3.4-1.6,6.8-3.2,10.2-4.7c0.1,0.1,0.1,0.3,0.2,0.4c-3,2-6,4-8.9,6.1c0.1,0.1,0.1,0.2,0.2,0.3c3.6-1.7,7.2-3.4,10.9-5.1
	c0.1,0.2,0.2,0.3,0.2,0.5c-1.5,1-3.1,2-4.6,3c6.8-1.4,18.1-6.6,25.5-11.4c6.4-4.2,12.3-8.9,17.1-14.8c1.7-2.1,1.4-3.1-1-4.1
	c1.9-2.4-0.7-1.6-1.6-2.1c0.6-0.3,1.2-0.6,1.8-0.9c-0.2-0.2-0.3-0.4-0.5-0.6c-0.7-0.2-1.4-0.4-1.8-0.5c0.2-0.7,0.4-1.2,0.5-1.7
	c-0.6-0.2-1.2-0.4-1.9-0.6c0.4-0.4,0.8-0.7,1.3-1.1c-2-1.1-6-1.1-6.9,0.6c-1,1.7-2.2,1.1-3.3,1.5c-0.5,0.2-1.1,0.3-1.7,0.4
	c0,0.1,0,0.3,0,0.4c2.2,0.2,4.3,0.3,6.5,0.5c0,0.1,0,0.2,0,0.2c-2.7,0.4-5.4,0.8-8.1,1.2c0,0.1,0,0.2,0,0.3c3,0.2,6,0.4,8.9,0.7
	c0,0.1,0,0.2,0,0.2c-2.5,0.4-5,0.8-7.5,1.2c0,0.1,0,0.2,0,0.3c1.7,0.1,3.4,0.2,5.1,0.4c0,0.2,0,0.3,0,0.5c-8,0.4-16,0.8-24,1.2
	c0-0.3-0.1-0.6-0.1-0.9c9.3-5.6,19.6-8.9,29.7-12.5C91.1,159.3,87.4,155.1,83.7,150.9z M158.2,184.8c6.5-6,24.5-45.4,24.6-53.3
	c-1.4,3.2-2.6,6.3-4.1,9.3c-1.4,3-2.8,5.9-4.4,8.8c-1.5,2.9-3.1,5.7-4.7,8.5c4.8-12.2,8.7-24.5,11.2-37.3
	c2.6-12.9,3.2-25.9,2.6-39.1c0.4,1.8,0.9,3.6,1.3,5.3c0.2,0,0.3,0,0.5-0.1c0-3.8,0-7.7,0-11.6c-6.6,0.9-12.9,1.9-18.9,2.7
	c3.1,0,6.6,0,10.2,0c0,0.2,0.1,0.4,0.1,0.6c-7.7,1.3-15.5,2.6-23.4,3.9c-1,23.7-2.1,47.5-3.1,71.3c-0.1,0-0.3,0-0.4,0
	c-0.9-20.6-1.8-41.1-2.7-61.7c-0.2,0-0.4,0-0.6,0c0,9.3,0,18.5,0,27.8c-0.3,0-0.6,0-1,0c-0.6-10.7-1.4-21.5-1.8-32.2
	c-0.2-5.9,0-5.8-5.9-6.7c-4.6-0.7-9.1-1.7-13.7-2.5c0-0.1,0.1-0.3,0.1-0.4c3.2,0,6.4,0,9.3,0c-6-0.9-12.4-1.8-18.8-2.7
	c0,5.2,0,10.2,0,15.3c0.2,0,0.3,0,0.5,0c0.5-2.5,1-5,1.6-7.5c-1.5,25.7,3.4,50.2,13.5,73.8c-0.3,0.1-0.6,0.2-0.9,0.3
	c-4.2-8.6-8.4-17.1-12.3-25.2c1.2,9.6,18.9,48.3,23.9,51.8c-3.9-8-4.3-16.7-5.2-25.4c1.1,4.2,2.2,8.4,3.3,12.6
	c0.2,0,0.4-0.1,0.5-0.1c-0.2-1.9-0.3-3.8-0.5-5.8c2.3,7.3,3.7,15,8.3,21.3c0.2-0.1,0.4-0.1,0.6-0.2c0.5-4.5,1-9.1,1.4-13.6
	c0.1,0,0.2,0,0.4,0.1c0.5,4.8,0.9,9.5,1.4,14.3c5.7-6.2,7-14,9.5-21.4c-0.1,1.8-0.3,3.7-0.4,5.5c0.1,0,0.3,0.1,0.4,0.1
	c1.1-4.1,2.2-8.2,3.5-12.9C164.4,165.2,161.6,177.3,158.2,184.8z M120.8,157.8c-7-16.2-11.7-32.8-15.2-50.2
	c-9.1,2.4-18,4.6-27.3,7.1c2.2,4.9,4,9.4,6.2,13.7c6.1,12,14.6,22,25.3,30.1c0.7,0.5,1.6,1,2.3,1C114.8,159,117.6,158.4,120.8,157.8
	z M194.1,107.6c-3.5,17.5-8.3,34.1-15.2,50.2c2.4,0.5,4.4,0.7,6.4,1.3c2.2,0.6,3.7,0,5.4-1.4c6.5-5.6,12.2-11.9,17-19
	c5-7.5,9-15.5,11.9-24.5C211.1,111.9,202.8,109.8,194.1,107.6z M156,246.2c3.8-10.2,0.2-20-1.8-29.9c1.2,2.6,2.3,5.2,3.5,7.8
	c-3-9.9-4-19.9-2-30.2c-1.2,0.3-2,0.6-3.4,0.9c1.2-1.4,1.9-2.3,2.7-3.1c-3.4,2.2-6.7,2.3-10.1,0.2c0.7,0.8,1.4,1.7,2.3,2.9
	c-1.3-0.4-2.2-0.6-3.3-0.9c2.1,10.2,1.1,19.9-1.7,29.6c1.1-2.3,2.1-4.6,3.2-6.9c-2,9.8-5.6,19.5-1.8,29.7c0-2,0-4,0-6.4
	c0.6,0.7,1,1.2,1.4,1.5c0.4,0.4,0.9,0.7,1.8,1.4c3-10.3,2.3-20.6,3.1-30.7c0.4,5.1,0.6,10.1,1,15.2c0.4,5.1,0.5,10.3,2.2,15.1
	c0.3,0.2,0.6,0.3,0.9,0.5c0.5-0.9,1.1-1.9,1.6-2.8c0.2,0.1,0.4,0.3,0.7,0.4C156.2,242.3,156.1,244.2,156,246.2z M112.3,72.5
	c24.8,6.4,49.6,6.4,74.5,0.3C162,76.3,137.1,76.3,112.3,72.5z M119.4,251.7c20.7,4.8,41.4,5.6,62-0.5c-10.2,1.9-20.5,2.5-30.8,2.3
	C140.2,253.2,129.8,252.3,119.4,251.7z M115.8,62.7c23-3.2,45.9-3.2,68.9,0C161.7,58,138.8,58,115.8,62.7z M172.2,62.7
	c-14.6-2.3-29.1-2.3-44.3,0C143.1,62.7,157.6,62.7,172.2,62.7z M190.6,104.3c0.1,0,0.3,0,0.4,0.1c1.4-10.8,2.8-21.5,4.2-32.5
	c-2.2,0.2-3.1,0.9-3,2.7c0.1,2.3,0,4.6-0.1,6.9C191.7,89.2,191.1,96.7,190.6,104.3z M105.5,71.6c-0.4,0.2-0.7,0.3-1.1,0.5
	c1.4,10.7,2.8,21.4,4.2,32.2c0.6-0.3,0.7-0.5,0.7-0.8c-0.6-9.8-1.2-19.5-2-29.3C107.2,73.3,106.1,72.5,105.5,71.6z M185.9,161.5
	c-0.1-0.2-0.2-0.5-0.2-0.7c-2.2-0.4-4.3-0.9-6.5-1.2c-0.4-0.1-1.1,0.1-1.2,0.4c-1.4,2.9-2.7,5.7-4.1,8.6c0.2,0.1,0.3,0.3,0.5,0.4
	C178.2,166.5,182.1,164,185.9,161.5z M59.6,154.2c0.1,0.2,0.2,0.5,0.3,0.7c7-2.4,14.1-4.7,21.1-7.1c0.1-0.2,0.2-0.5,0.3-0.7
	c-0.9-0.5-2.1-1.5-2.8-1.3C72.2,148.5,65.9,151.4,59.6,154.2z M113.4,161.3c4,2.2,7.7,4.3,11.4,6.4c0.2-0.1,0.3-0.3,0.5-0.4
	c-1.3-2.6-2.6-5.1-3.9-7.7c-2.3,0.4-4.7,0.8-7,1.2C114.2,160.7,114.1,160.9,113.4,161.3z M243,149c0-0.1,0.1-0.2,0.1-0.2
	c-0.7-0.4-1.3-0.9-2-1.2c-5.5-2.6-11.1-5.2-16.6-7.7c-2.3-1-2.4-0.9-3,1.7C228.6,144,235.8,146.5,243,149z M223,138.3
	c7.1,2.5,14,5,21,7.4c-0.4-0.6-0.8-1-1.4-1.2c-5.5-2.6-11.1-5.2-16.6-7.8C224.2,135.8,223.4,136.5,223,138.3z M79.2,144.8
	c-0.6-0.9-1-1.5-1.6-2.5c-6.6,3.1-13.1,6.1-19.5,9.1c0.1,0.2,0.2,0.4,0.3,0.6C65.2,149.6,72.1,147.2,79.2,144.8z M170.5,256.1
	c-12.8,0-25.4,0-38,0C141.7,258.3,159.9,258.2,170.5,256.1z M244.9,142.5c0.1-0.2,0.2-0.4,0.3-0.6c-6.5-3.1-12.9-6.1-19.5-9.2
	c-0.5,1.1-0.8,1.7-1.2,2.5C231.4,137.6,238.2,140.1,244.9,142.5z M246.6,139.5c0.1-0.2,0.2-0.4,0.4-0.6c-6.6-3.1-13.1-6.2-19.9-9.5
	c-0.4,1.1-0.7,1.8-1,2.5C233.1,134.6,239.8,137.1,246.6,139.5z M56.4,148.4c0.1,0.2,0.2,0.4,0.3,0.6c6.8-2.4,13.6-4.8,20.5-7.2
	c-0.2-0.4-0.3-0.8-0.5-1.1c-0.2-0.3-0.4-0.6-0.9-1.3C69.3,142.3,62.9,145.4,56.4,148.4z M227.3,128.8c7.3,2.7,14.2,5.3,21.2,7.9
	c0.1-0.2,0.2-0.4,0.3-0.6c-6.7-3.2-13.4-6.5-20.3-9.8C228,127.3,227.7,127.9,227.3,128.8z M251,130.4c0.1-0.2,0.2-0.3,0.3-0.5
	c-6.8-3.3-13.7-6.6-20.7-10.1c-0.3,1.1-0.5,1.8-0.7,2.5C237.1,125.1,244.1,127.7,251,130.4z M249.2,133.3c0.1-0.2,0.2-0.4,0.4-0.6
	c-6.6-3.2-13.2-6.4-20.1-9.6c-0.3,1.1-0.5,1.8-0.7,2.5C235.7,128.2,242.5,130.8,249.2,133.3z M55.3,145.2c0.1,0.2,0.2,0.4,0.3,0.6
	c6.6-2.4,13.2-4.7,19.9-7.1c-0.2-0.5-0.3-0.9-0.5-1.2c-0.2-0.3-0.5-0.6-0.9-1.1C67.8,139.3,61.5,142.2,55.3,145.2z M72.7,133.1
	c-6.2,3-12.2,5.9-18.2,8.7c0.1,0.2,0.2,0.4,0.3,0.6c6.3-2.3,12.6-4.6,19.1-6.9C73.5,134.9,73.2,134.2,72.7,133.1z M52.7,139
	c0.1,0.2,0.2,0.4,0.3,0.6c6.4-2.4,12.8-4.8,19.4-7.2c-0.3-0.7-0.5-1.2-0.8-1.6c-0.1-0.1-0.2-0.2-0.7-0.5
	C64.9,133.1,58.8,136,52.7,139z M51,136.1c0.1,0.2,0.2,0.4,0.2,0.6c6.5-2.4,13-4.9,19.7-7.4c-0.4-0.7-0.7-1.4-1.1-2.3
	C63.4,130,57.2,133,51,136.1z M48.3,129.9c0.1,0.2,0.2,0.4,0.3,0.6c6.6-2.5,13.2-5.1,19.9-7.6c-0.1-0.4-0.2-0.8-0.3-1.1
	c-0.1-0.3-0.4-0.6-0.7-1.2C61,123.7,54.6,126.8,48.3,129.9z M68.8,123.6c-6.4,3.1-12.6,6.1-18.8,9.1c0.1,0.2,0.2,0.4,0.3,0.6
	c6.4-2.4,12.9-4.9,19.4-7.3C69.4,125.3,69.2,124.7,68.8,123.6z M187.8,258.2c-7.2,1.4-13.9,2.8-20.6,4.1
	C174.2,262.4,181,261.8,187.8,258.2z M112.1,258.2c6.1,3.2,12.7,4,19.5,3.7C125.1,260.7,118.6,259.4,112.1,258.2z M161.9,233.6
	c0.8,5,2.8,9.4,6.5,13.5C166.1,242.3,164,238,161.9,233.6z M137.7,233.7c-2,4.2-4.1,8.5-6.1,12.7
	C135.1,242.8,137.1,238.5,137.7,233.7z M239.9,122.4c0-0.2,0.1-0.4,0.1-0.5c-2.9-1.1-5.8-2.3-8.6-3.4c-0.1,0.2-0.2,0.5-0.3,0.7
	C234,120.2,236.9,121.3,239.9,122.4z M59.6,121.9c0.1,0.2,0.1,0.3,0.2,0.5c2.5-0.9,4.9-1.8,7.4-2.8c-0.1-0.2-0.2-0.5-0.3-0.7
	C64.4,119.9,62,120.9,59.6,121.9z"/>
<path class="st0" d="M171.7,140.5c3.8-16.7,5.4-33.7,6.8-50.7C178.9,107.1,177.1,124,171.7,140.5z"/>
</svg>
