<?xml version="1.0" encoding="utf-8"?>
<!-- Generator: Adobe Illustrator 25.0.1, SVG Export Plug-In . SVG Version: 6.00 Build 0)  -->
<svg version="1.1" id="Layer_1" xmlns="http://www.w3.org/2000/svg" xmlns:xlink="http://www.w3.org/1999/xlink" x="0px" y="0px"
	 viewBox="0 0 500 500" style="enable-background:new 0 0 500 500;" xml:space="preserve">
<style type="text/css">
	.st0{opacity:0.1;}
	.st1{fill:#C9BB35;}
	.st2{fill:#37474F;}
	.st3{opacity:0.1;enable-background:new    ;}
	.st4{fill:#455A64;}
	.st5{fill:#263238;}
	.st6{fill:#FAFAFA;}
	.st7{fill:#F6B438;}
	.st8{opacity:0.4;fill:#FFFFFF;enable-background:new    ;}
	.st9{opacity:0.4;}
	.st10{fill:#FFFFFF;}
	.st11{opacity:0.8;fill:#F6B438;enable-background:new    ;}
	.st12{opacity:0.7;fill:#FFFFFF;enable-background:new    ;}
	.st13{opacity:0.8;}
	.st14{opacity:0.3;fill:#FFFFFF;enable-background:new    ;}
	.st15{opacity:0.15;fill:#F6B438;enable-background:new    ;}
	.st16{opacity:0.8;fill:#FFFFFF;enable-background:new    ;}
	.st17{opacity:0.55;fill:#FFFFFF;enable-background:new    ;}
	.st18{opacity:0.2;fill:#FFFFFF;enable-background:new    ;}
	.st19{opacity:0.1;fill:#F6B438;enable-background:new    ;}
</style>
<g id="freepik--Floor--inject-18" class="st0">
	<path id="freepik--floor--inject-18" class="st1" d="M85.2,453.8c-93.3-53.9-97-149,0.1-159.2c93.3-53.8,146.6-118,368.7-64.1
		c-102.3,97.6,58.3,167.2-35,221.1S178.5,507.7,85.2,453.8z"/>
</g>
<g id="freepik--Trophy--inject-18">
	<g id="freepik--trophy--inject-18">
		<polygon class="st2" points="319.4,355.6 303,346.1 213.6,346.1 197.2,355.5 192.6,412.5 192.6,418.5 209,428 307.6,428 
			324,418.5 324,412.5 		"/>
		<polygon class="st3" points="209,428 209,422 192.6,412.5 192.6,418.5 		"/>
		<polygon class="st3" points="307.6,428 307.6,422 324,412.5 324,418.5 		"/>
		<polygon class="st4" points="319.4,355.6 324,412.5 307.6,422 209,422 192.6,412.5 197.2,355.5 213.6,346.1 303,346.1 		"/>
		<path class="st5" d="M316.6,354.1l2,21.3l0,0c0.1,10.2,0.1,20.3,0.1,30.5v0.1l-0.1,0.1l-15,8.7h-0.1h-0.1l-45.1,0.1l-45.1-0.1
			h-0.1H213l-15-8.7l-0.1-0.1V406c0-10.2,0-20.4,0.1-30.5l0,0l2-21.2l-1.7,21.2l0,0c0.1,10.2,0.1,20.3,0.1,30.5l-0.1-0.2l15.1,8.7
			h-0.1l45.1-0.1l45.1,0.1h-0.1l15.1-8.6l-0.1,0.2c0-10.2,0-20.4,0.1-30.5l0,0L316.6,354.1z"/>
		<polygon class="st2" points="313.9,323.3 298.9,314.6 217.8,314.6 202.8,323.3 198.1,375.5 198.2,375.5 198.1,406 213.2,414.6 
			303.4,414.6 318.5,406 318.5,375.5 		"/>
		<polygon class="st4" points="313.9,323.3 318.5,375.5 303.4,384.1 213.2,384.1 198.1,375.5 202.8,323.3 217.8,314.6 298.9,314.6 
					"/>
		<polygon class="st3" points="213.2,414.6 213.2,384.1 198.1,375.5 198.1,406 		"/>
		<polygon class="st3" points="303.4,414.6 303.4,384.1 318.5,375.5 318.5,406 		"/>
		<rect x="233" y="388.9" class="st5" width="49.6" height="19"/>
		<rect x="234" y="389.7" class="st6" width="49.6" height="19"/>
		<path class="st7" d="M279.3,397v-0.5c-0.1-1.3-1.2-2.3-2.5-2.2c-1.2,0.1-2.2,1-2.2,2.2v1.3c-0.1,1.2,0.9,2.3,2.1,2.4
			c0.1,0,0.2,0,0.3,0c0.3,0,0.6,0.2,0.6,0.5c0,0,0,0.1,0,0.1v1c0,0.4-0.3,0.6-0.7,0.6c-0.4,0-0.6-0.3-0.6-0.6v-0.5h-1.8v0.5
			c0.1,1.3,1.2,2.3,2.5,2.2c1.2-0.1,2.2-1,2.2-2.2v-1c0.1-1.2-0.9-2.3-2.1-2.4c-0.1,0-0.2,0-0.3,0c-0.3,0-0.6-0.2-0.6-0.5
			c0,0,0-0.1,0-0.1v-1.3c0-0.4,0.3-0.6,0.6-0.6c0.4,0,0.7,0.3,0.7,0.6v0.5H279.3z M253.5,394.1c-1.2-0.1-2.3,0.8-2.4,2.1
			c0,0.1,0,0.2,0,0.3v5.3c0.1,1.3,1.2,2.3,2.5,2.2c1.2-0.1,2.2-1,2.2-2.2v-0.5h-1.7v0.5c0,0.4-0.3,0.6-0.6,0.6
			c-0.4,0-0.7-0.3-0.7-0.6v-5.3c0-0.4,0.3-0.6,0.7-0.6c0.4,0,0.6,0.3,0.6,0.6v0.5h1.7v-0.5c0.1-1.2-0.9-2.3-2.1-2.4
			C253.7,394.1,253.6,394.1,253.5,394.1L253.5,394.1z M240.7,394.1c-1.2-0.1-2.3,0.8-2.4,2.1c0,0.1,0,0.2,0,0.3v1.3
			c-0.1,1.2,0.8,2.3,2.1,2.4c0.1,0,0.2,0,0.3,0c0.3,0,0.6,0.2,0.6,0.5c0,0,0,0.1,0,0.1v1c0,0.4-0.2,0.7-0.6,0.7
			c-0.4,0-0.7-0.2-0.7-0.6c0-0.1,0-0.1,0-0.2v-0.5h-1.8v0.5c0.1,1.3,1.2,2.3,2.5,2.2c1.2-0.1,2.2-1,2.2-2.2v-1
			c0.1-1.2-0.9-2.3-2.1-2.4c-0.1,0-0.2,0-0.3,0c-0.3,0-0.6-0.2-0.6-0.5c0,0,0-0.1,0-0.1v-1.3c0-0.4,0.2-0.7,0.6-0.7
			c0.4,0,0.7,0.2,0.7,0.6c0,0.1,0,0.1,0,0.2v0.5h1.8v-0.5c0.1-1.2-0.9-2.3-2.1-2.4C240.9,394.1,240.8,394.1,240.7,394.1L240.7,394.1
			z M247.7,401.9c0,0.4-0.2,0.7-0.6,0.7c-0.4,0-0.7-0.2-0.7-0.6c0-0.1,0-0.1,0-0.2v-7.5h-1.8v7.5c0.1,1.3,1.2,2.3,2.5,2.2
			c1.2-0.1,2.2-1,2.2-2.2v-7.5h-1.8V401.9z M270.9,394.1c-1.2-0.1-2.3,0.8-2.4,2.1c0,0.1,0,0.2,0,0.3v1.3c-0.1,1.2,0.8,2.3,2.1,2.4
			c0.1,0,0.2,0,0.3,0c0.3,0,0.6,0.2,0.6,0.5c0,0,0,0.1,0,0.1v1c0,0.4-0.2,0.7-0.6,0.7s-0.7-0.2-0.7-0.6c0-0.1,0-0.1,0-0.2v-0.5h-1.8
			v0.5c0.1,1.3,1.2,2.3,2.5,2.2c1.2-0.1,2.2-1,2.2-2.2v-1c0.1-1.2-0.9-2.3-2.1-2.4c-0.1,0-0.2,0-0.3,0c-0.3,0-0.6-0.2-0.6-0.5
			c0,0,0-0.1,0-0.1v-1.3c0-0.4,0.2-0.7,0.6-0.7c0.4,0,0.7,0.2,0.7,0.6c0,0.1,0,0.1,0,0.2v0.5h1.8v-0.5c0.1-1.2-0.9-2.3-2.1-2.4
			C271.1,394.1,271,394.1,270.9,394.1L270.9,394.1z M263.3,404h4v-1.8H265v-2.5h2V398h-2v-1.9h2.3v-1.8h-4L263.3,404z M259.5,394.1
			c-1.2-0.1-2.3,0.9-2.4,2.1c0,0.1,0,0.2,0,0.3v5.3c0.1,1.3,1.2,2.3,2.5,2.2c1.2-0.1,2.2-1,2.2-2.2v-0.5h-1.8v0.5
			c0,0.4-0.3,0.6-0.6,0.6c-0.4,0-0.7-0.3-0.7-0.6v-5.3c0-0.4,0.3-0.6,0.7-0.6c0.4,0,0.6,0.3,0.6,0.6v0.5h1.8v-0.5
			c0.1-1.2-0.9-2.3-2.1-2.4C259.7,394.1,259.6,394.1,259.5,394.1L259.5,394.1z"/>
		<path class="st8" d="M279.3,397v-0.5c-0.1-1.3-1.2-2.3-2.5-2.2c-1.2,0.1-2.2,1-2.2,2.2v1.3c-0.1,1.2,0.9,2.3,2.1,2.4
			c0.1,0,0.2,0,0.3,0c0.3,0,0.6,0.2,0.6,0.5c0,0,0,0.1,0,0.1v1c0,0.4-0.3,0.6-0.7,0.6c-0.4,0-0.6-0.3-0.6-0.6v-0.5h-1.8v0.5
			c0.1,1.3,1.2,2.3,2.5,2.2c1.2-0.1,2.2-1,2.2-2.2v-1c0.1-1.2-0.9-2.3-2.1-2.4c-0.1,0-0.2,0-0.3,0c-0.3,0-0.6-0.2-0.6-0.5
			c0,0,0-0.1,0-0.1v-1.3c0-0.4,0.3-0.6,0.6-0.6c0.4,0,0.7,0.3,0.7,0.6v0.5H279.3z M253.5,394.1c-1.2-0.1-2.3,0.8-2.4,2.1
			c0,0.1,0,0.2,0,0.3v5.3c0.1,1.3,1.2,2.3,2.5,2.2c1.2-0.1,2.2-1,2.2-2.2v-0.5h-1.7v0.5c0,0.4-0.3,0.6-0.6,0.6
			c-0.4,0-0.7-0.3-0.7-0.6v-5.3c0-0.4,0.3-0.6,0.7-0.6c0.4,0,0.6,0.3,0.6,0.6v0.5h1.7v-0.5c0.1-1.2-0.9-2.3-2.1-2.4
			C253.7,394.1,253.6,394.1,253.5,394.1L253.5,394.1z M240.7,394.1c-1.2-0.1-2.3,0.8-2.4,2.1c0,0.1,0,0.2,0,0.3v1.3
			c-0.1,1.2,0.8,2.3,2.1,2.4c0.1,0,0.2,0,0.3,0c0.3,0,0.6,0.2,0.6,0.5c0,0,0,0.1,0,0.1v1c0,0.4-0.2,0.7-0.6,0.7
			c-0.4,0-0.7-0.2-0.7-0.6c0-0.1,0-0.1,0-0.2v-0.5h-1.8v0.5c0.1,1.3,1.2,2.3,2.5,2.2c1.2-0.1,2.2-1,2.2-2.2v-1
			c0.1-1.2-0.9-2.3-2.1-2.4c-0.1,0-0.2,0-0.3,0c-0.3,0-0.6-0.2-0.6-0.5c0,0,0-0.1,0-0.1v-1.3c0-0.4,0.2-0.7,0.6-0.7
			c0.4,0,0.7,0.2,0.7,0.6c0,0.1,0,0.1,0,0.2v0.5h1.8v-0.5c0.1-1.2-0.9-2.3-2.1-2.4C240.9,394.1,240.8,394.1,240.7,394.1L240.7,394.1
			z M247.7,401.9c0,0.4-0.2,0.7-0.6,0.7c-0.4,0-0.7-0.2-0.7-0.6c0-0.1,0-0.1,0-0.2v-7.5h-1.8v7.5c0.1,1.3,1.2,2.3,2.5,2.2
			c1.2-0.1,2.2-1,2.2-2.2v-7.5h-1.8V401.9z M270.9,394.1c-1.2-0.1-2.3,0.8-2.4,2.1c0,0.1,0,0.2,0,0.3v1.3c-0.1,1.2,0.8,2.3,2.1,2.4
			c0.1,0,0.2,0,0.3,0c0.3,0,0.6,0.2,0.6,0.5c0,0,0,0.1,0,0.1v1c0,0.4-0.2,0.7-0.6,0.7s-0.7-0.2-0.7-0.6c0-0.1,0-0.1,0-0.2v-0.5h-1.8
			v0.5c0.1,1.3,1.2,2.3,2.5,2.2c1.2-0.1,2.2-1,2.2-2.2v-1c0.1-1.2-0.9-2.3-2.1-2.4c-0.1,0-0.2,0-0.3,0c-0.3,0-0.6-0.2-0.6-0.5
			c0,0,0-0.1,0-0.1v-1.3c0-0.4,0.2-0.7,0.6-0.7c0.4,0,0.7,0.2,0.7,0.6c0,0.1,0,0.1,0,0.2v0.5h1.8v-0.5c0.1-1.2-0.9-2.3-2.1-2.4
			C271.1,394.1,271,394.1,270.9,394.1L270.9,394.1z M263.3,404h4v-1.8H265v-2.5h2V398h-2v-1.9h2.3v-1.8h-4L263.3,404z M259.5,394.1
			c-1.2-0.1-2.3,0.9-2.4,2.1c0,0.1,0,0.2,0,0.3v5.3c0.1,1.3,1.2,2.3,2.5,2.2c1.2-0.1,2.2-1,2.2-2.2v-0.5h-1.8v0.5
			c0,0.4-0.3,0.6-0.6,0.6c-0.4,0-0.7-0.3-0.7-0.6v-5.3c0-0.4,0.3-0.6,0.7-0.6c0.4,0,0.6,0.3,0.6,0.6v0.5h1.8v-0.5
			c0.1-1.2-0.9-2.3-2.1-2.4C259.7,394.1,259.6,394.1,259.5,394.1L259.5,394.1z"/>
		<g class="st9">
			<path class="st10" d="M240.7,404.2c1.2,0.1,2.3-0.8,2.4-2.1c0-0.1,0-0.2,0-0.3v-0.3l-4.3,1.9C239.3,404,240,404.3,240.7,404.2z"
				/>
			<path class="st10" d="M244.6,400.9v1c0.1,1.3,1.2,2.3,2.5,2.2c1.2-0.1,2.2-1,2.2-2.2v-3.1l-1.8,0.8v2.3c0,0.4-0.2,0.7-0.6,0.7
				c-0.4,0-0.7-0.2-0.7-0.6c0-0.1,0-0.1,0-0.2v-1.7L244.6,400.9z"/>
			<path class="st10" d="M259.5,395.9c0.3,0,0.6,0.2,0.6,0.5c0,0,0,0.1,0,0.1v0.5h1.8v-0.5c0.1-1.1-0.7-2.2-1.9-2.4l-2.6,1.1
				c-0.2,0.4-0.3,0.8-0.3,1.2v5.3c0,0.2,0,0.4,0.1,0.6l1.7-0.7v-5.2c0-0.3,0.2-0.6,0.5-0.6C259.4,395.9,259.5,395.9,259.5,395.9z"/>
			<polygon class="st10" points="265,398 265,396.1 267.3,396.1 267.3,394.3 263.3,394.3 263.3,399.8 267,398.2 267,398 			"/>
			<path class="st10" d="M254.1,397h1.7v-0.5c0-0.2,0-0.3,0-0.5l-1.7,0.7L254.1,397z"/>
			<path class="st10" d="M255.9,401.9v-0.5h-1.7v0.5c0,0.4-0.3,0.6-0.7,0.6c-0.4,0-0.6-0.3-0.6-0.6v-4.5l-1.8,0.8v3.8
				c-0.1,1.2,0.8,2.2,2,2.4l2.3-1C255.7,402.8,255.9,402.3,255.9,401.9z"/>
			<path class="st10" d="M275.8,394.4l0.2-0.1L275.8,394.4z"/>
			<path class="st10" d="M270.9,394.1c-1.2-0.1-2.3,0.8-2.4,2.1c0,0.1,0,0.2,0,0.3v1l1.8-0.8v-0.3c0-0.3,0.2-0.6,0.5-0.6
				c0,0,0.1,0,0.1,0c0.3,0,0.5,0.1,0.6,0.4l1.6-0.7C272.8,394.6,271.9,394.1,270.9,394.1z"/>
		</g>
		<path class="st11" d="M240.7,394.1c-1.2-0.1-2.3,0.8-2.4,2.1c0,0.1,0,0.2,0,0.3v1.3c0,0.1,0,0.2,0,0.3l1.7-0.8v-0.8
			c0-0.4,0.2-0.7,0.6-0.7c0.4,0,0.7,0.2,0.7,0.6c0,0.1,0,0.1,0,0.2v0.3l1.7-0.8C242.9,394.9,241.9,394.1,240.7,394.1z M244.6,394.3
			v1l1.8-0.8v-0.3L244.6,394.3z"/>
		<path class="st11" d="M270.9,402.5c-0.1,0-0.3,0-0.4-0.1l-1.7,0.7c0.7,1.1,2.2,1.5,3.3,0.8c0.7-0.4,1.1-1.2,1.1-2v-0.7l-1.8,0.8
			C271.5,402.2,271.3,402.5,270.9,402.5C270.9,402.5,270.9,402.5,270.9,402.5z M267.3,404.1v-0.3l-0.7,0.3H267.3z M278.4,398.9
			l-2.5,1.1c0.3,0.1,0.7,0.2,1,0.2c0.3,0,0.6,0.2,0.6,0.5c0,0,0,0.1,0,0.1v1c0,0.4-0.3,0.6-0.6,0.6s-0.6-0.3-0.6-0.6v-0.5h-1.8v0.5
			c0.1,1.3,1.2,2.3,2.5,2.2c1.2-0.1,2.2-1,2.2-2.2v-1C279.3,400.1,279,399.4,278.4,398.9L278.4,398.9z"/>
		<ellipse class="st3" cx="258.3" cy="351.5" rx="49.4" ry="28.5"/>
		<path class="st7" d="M361,187.6c1.9,2.6,2.6,5.9,2.1,9.1c-0.4,2.8-1.6,5.5-3.5,7.6c-1.8,2.2-4.1,3.9-6.8,4.8
			c-1.3,0.5-2.7,0.7-4.1,0.7c-0.7,0-1.4,0-2.1-0.1c-0.7-0.1-1.3-0.2-1.9-0.3c-2.6-0.5-5-1.6-7.1-3.2c-2.1-1.7-3.7-3.9-4.6-6.4
			c-0.9-2.4-1.3-4.9-1.4-7.4c0-1.3,0.1-2.5,0.3-3.8c0.2-1.3,0.6-2.5,1-3.7c3.7-9.6,14.1-15.8,24.5-14.8c5.4,0.5,10.4,2.9,14.1,6.8
			c0.5,0.5,0.9,1,1.3,1.5l1.2,1.6c0.7,1.1,1.4,2.1,1.9,3.2c1.2,2.3,2.1,4.7,2.8,7.2c1.2,5.1,0.9,10.4-0.8,15.3c-1.6,4.6-4,9-7,12.9
			c-2.9,3.7-6.1,7.2-9.6,10.4c-3.4,3.2-7,6.2-10.7,9s-7.5,5.5-11.1,8.2s-7.3,5.5-10.8,8.3s-7,5.8-10.2,8.9c-3.2,3.1-6.2,6.5-9,10
			c-0.5,0.7-1.5,0.8-2.1,0.3s-0.8-1.5-0.3-2.1l0,0c11.2-15,26.8-25.8,40.8-37.1c6.9-5.8,13.5-12.1,18.4-19.4
			c2.5-3.5,4.4-7.3,5.7-11.4c1.2-3.8,1.3-7.9,0.3-11.9c-0.5-2-1.2-3.8-2.2-5.6c-0.5-0.9-1-1.8-1.6-2.6l-0.9-1.2l-0.9-1.1
			c-2.6-2.9-6.2-4.7-10-5.4c-4-0.7-8.1-0.1-11.8,1.7c-3.7,1.8-6.7,4.8-8.4,8.6c-0.2,0.5-0.4,1-0.5,1.4c-0.2,0.5-0.3,1-0.4,1.4
			c-0.2,1-0.3,2-0.3,3.1c0,2.1,0.3,4.1,1.1,6c0.8,1.8,2,3.3,3.6,4.4c1.6,1.1,3.5,1.8,5.4,2c0.5,0.1,1,0.1,1.5,0.2c0.5,0,0.9,0,1.4,0
			c0.9-0.1,1.7-0.3,2.5-0.7c1.6-0.7,3-1.9,4-3.4c1-1.5,1.6-3.2,1.7-4.9c0.1-1.4-0.3-2.8-1.3-3.9c-1.3-1.5-1.2-3.7,0.3-5.1
			c1.3-1.2,3.3-1.2,4.7,0c0.1,0.1,0.2,0.2,0.3,0.4L361,187.6z"/>
		<path class="st12" d="M361,187.6c1.9,2.6,2.6,5.9,2.1,9.1c-0.4,2.8-1.6,5.5-3.5,7.6c-1.8,2.2-4.1,3.9-6.8,4.8
			c-1.3,0.5-2.7,0.7-4.1,0.7c-0.7,0-1.4,0-2.1-0.1c-0.7-0.1-1.3-0.2-1.9-0.3c-2.6-0.5-5-1.6-7.1-3.2c-2.1-1.7-3.7-3.9-4.6-6.4
			c-0.9-2.4-1.3-4.9-1.4-7.4c0-1.3,0.1-2.5,0.3-3.8c0.2-1.3,0.6-2.5,1-3.7c3.7-9.6,14.1-15.8,24.5-14.8c5.4,0.5,10.4,2.9,14.1,6.8
			c0.5,0.5,0.9,1,1.3,1.5l1.2,1.6c0.7,1.1,1.4,2.1,1.9,3.2c1.2,2.3,2.1,4.7,2.8,7.2c1.2,5.1,0.9,10.4-0.8,15.3c-1.6,4.6-4,9-7,12.9
			c-2.9,3.7-6.1,7.2-9.6,10.4c-3.4,3.2-7,6.2-10.7,9s-7.5,5.5-11.1,8.2s-7.3,5.5-10.8,8.3s-7,5.8-10.2,8.9c-3.2,3.1-6.2,6.5-9,10
			c-0.5,0.7-1.5,0.8-2.1,0.3s-0.8-1.5-0.3-2.1l0,0c11.2-15,26.8-25.8,40.8-37.1c6.9-5.8,13.5-12.1,18.4-19.4
			c2.5-3.5,4.4-7.3,5.7-11.4c1.2-3.8,1.3-7.9,0.3-11.9c-0.5-2-1.2-3.8-2.2-5.6c-0.5-0.9-1-1.8-1.6-2.6l-0.9-1.2l-0.9-1.1
			c-2.6-2.9-6.2-4.7-10-5.4c-4-0.7-8.1-0.1-11.8,1.7c-3.7,1.8-6.7,4.8-8.4,8.6c-0.2,0.5-0.4,1-0.5,1.4c-0.2,0.5-0.3,1-0.4,1.4
			c-0.2,1-0.3,2-0.3,3.1c0,2.1,0.3,4.1,1.1,6c0.8,1.8,2,3.3,3.6,4.4c1.6,1.1,3.5,1.8,5.4,2c0.5,0.1,1,0.1,1.5,0.2c0.5,0,0.9,0,1.4,0
			c0.9-0.1,1.7-0.3,2.5-0.7c1.6-0.7,3-1.9,4-3.4c1-1.5,1.6-3.2,1.7-4.9c0.1-1.4-0.3-2.8-1.3-3.9c-1.3-1.5-1.2-3.7,0.3-5.1
			c1.3-1.2,3.3-1.2,4.7,0c0.1,0.1,0.2,0.2,0.3,0.4L361,187.6z"/>
		<path class="st7" d="M161.1,192.1c-1,1.1-1.4,2.5-1.3,3.9c0.1,1.8,0.7,3.5,1.7,4.9c1,1.5,2.4,2.7,4,3.4c0.8,0.4,1.7,0.6,2.6,0.7
			c0.5,0,0.9,0,1.4,0c0.5,0,1-0.1,1.5-0.2c1.9-0.2,3.8-0.9,5.4-2c1.6-1.1,2.8-2.6,3.6-4.4c0.8-1.9,1.2-3.9,1.2-6
			c0-1-0.1-2.1-0.3-3.1c-0.1-0.5-0.2-1-0.4-1.4c-0.2-0.5-0.3-1-0.5-1.4c-1.7-3.8-4.6-6.9-8.4-8.6c-3.6-1.8-7.7-2.4-11.7-1.7
			c-3.8,0.6-7.4,2.5-10,5.4l-0.8,1.1l-0.9,1.2c-0.5,0.9-1.1,1.7-1.6,2.6c-1,1.8-1.7,3.7-2.2,5.6c-1,3.9-0.9,8,0.3,11.9
			c1.3,4.1,3.2,7.9,5.6,11.4c5,7.2,11.5,13.6,18.4,19.4c14.1,11.3,29.6,22.1,40.8,37.1l0,0c0.5,0.7,0.4,1.6-0.3,2.1
			s-1.6,0.4-2.1-0.3c-2.8-3.6-5.8-6.9-9-10c-3.2-3.1-6.7-6.1-10.2-8.9c-3.5-2.9-7.2-5.6-10.8-8.3c-3.7-2.7-7.5-5.3-11.1-8.2
			s-7.2-5.8-10.7-9c-3.5-3.2-6.7-6.7-9.6-10.4c-3-3.9-5.4-8.2-7-12.9c-1.7-4.9-1.9-10.2-0.8-15.3c0.6-2.5,1.5-4.9,2.8-7.2
			c0.6-1.1,1.3-2.2,1.9-3.2l1.2-1.6c0.4-0.5,0.9-1,1.3-1.5c3.7-3.9,8.7-6.3,14.1-6.8c10.5-1,20.8,5.2,24.5,14.8
			c0.4,1.2,0.8,2.4,1,3.7c0.2,1.2,0.3,2.5,0.3,3.8c0,2.5-0.5,5.1-1.4,7.4c-1,2.5-2.5,4.7-4.6,6.4c-2.1,1.6-4.5,2.7-7.1,3.2
			c-0.6,0.1-1.2,0.2-1.9,0.3c-0.7,0.1-1.4,0.1-2.1,0.1c-1.4,0-2.8-0.3-4.1-0.7c-2.7-0.9-5-2.6-6.8-4.8c-1.8-2.2-3-4.8-3.4-7.6
			c-0.6-3.2,0.2-6.5,2.1-9.1l0.1-0.2c1.2-1.6,3.4-1.9,5-0.7c1.6,1.2,1.9,3.4,0.7,5l0,0C161.4,191.9,161.3,192,161.1,192.1z"/>
		<path class="st12" d="M161.1,192.1c-1,1.1-1.4,2.5-1.3,3.9c0.1,1.8,0.7,3.5,1.7,4.9c1,1.5,2.4,2.7,4,3.4c0.8,0.4,1.7,0.6,2.6,0.7
			c0.5,0,0.9,0,1.4,0c0.5,0,1-0.1,1.5-0.2c1.9-0.2,3.8-0.9,5.4-2c1.6-1.1,2.8-2.6,3.6-4.4c0.8-1.9,1.2-3.9,1.2-6
			c0-1-0.1-2.1-0.3-3.1c-0.1-0.5-0.2-1-0.4-1.4c-0.2-0.5-0.3-1-0.5-1.4c-1.7-3.8-4.6-6.9-8.4-8.6c-3.6-1.8-7.7-2.4-11.7-1.7
			c-3.8,0.6-7.4,2.5-10,5.4l-0.8,1.1l-0.9,1.2c-0.5,0.9-1.1,1.7-1.6,2.6c-1,1.8-1.7,3.7-2.2,5.6c-1,3.9-0.9,8,0.3,11.9
			c1.3,4.1,3.2,7.9,5.6,11.4c5,7.2,11.5,13.6,18.4,19.4c14.1,11.3,29.6,22.1,40.8,37.1l0,0c0.5,0.7,0.4,1.6-0.3,2.1
			s-1.6,0.4-2.1-0.3c-2.8-3.6-5.8-6.9-9-10c-3.2-3.1-6.7-6.1-10.2-8.9c-3.5-2.9-7.2-5.6-10.8-8.3c-3.7-2.7-7.5-5.3-11.1-8.2
			s-7.2-5.8-10.7-9c-3.5-3.2-6.7-6.7-9.6-10.4c-3-3.9-5.4-8.2-7-12.9c-1.7-4.9-1.9-10.2-0.8-15.3c0.6-2.5,1.5-4.9,2.8-7.2
			c0.6-1.1,1.3-2.2,1.9-3.2l1.2-1.6c0.4-0.5,0.9-1,1.3-1.5c3.7-3.9,8.7-6.3,14.1-6.8c10.5-1,20.8,5.2,24.5,14.8
			c0.4,1.2,0.8,2.4,1,3.7c0.2,1.2,0.3,2.5,0.3,3.8c0,2.5-0.5,5.1-1.4,7.4c-1,2.5-2.5,4.7-4.6,6.4c-2.1,1.6-4.5,2.7-7.1,3.2
			c-0.6,0.1-1.2,0.2-1.9,0.3c-0.7,0.1-1.4,0.1-2.1,0.1c-1.4,0-2.8-0.3-4.1-0.7c-2.7-0.9-5-2.6-6.8-4.8c-1.8-2.2-3-4.8-3.4-7.6
			c-0.6-3.2,0.2-6.5,2.1-9.1l0.1-0.2c1.2-1.6,3.4-1.9,5-0.7c1.6,1.2,1.9,3.4,0.7,5l0,0C161.4,191.9,161.3,192,161.1,192.1z"/>
		<path class="st7" d="M297.3,339.8c0-5.8-3.8-11.5-11.4-15.9c-15.2-8.8-40-8.8-55.2,0c-7.2,4.1-11,9.5-11.4,14.9c0,0.1,0,0.2,0,0.3
			c0,0.3,0,0.5,0,0.8v7.5c0,0.3,0,0.5,0,0.8c0,0.1,0,0.2,0,0.3c0.4,5.4,4.2,10.7,11.4,14.9c15.2,8.8,39.9,8.8,55.2,0
			c7.6-4.4,11.4-10.2,11.4-15.9V339.8z"/>
		<path class="st8" d="M297.3,339.8c0-5.8-3.8-11.5-11.4-15.9c-15.2-8.8-40-8.8-55.2,0c-7.2,4.1-11,9.5-11.4,14.9c0,0.1,0,0.2,0,0.3
			c0,0.3,0,0.5,0,0.8v7.5c0,0.3,0,0.5,0,0.8c0,0.1,0,0.2,0,0.3c0.4,5.4,4.2,10.7,11.4,14.9c15.2,8.8,39.9,8.8,55.2,0
			c7.6-4.4,11.4-10.2,11.4-15.9V339.8z"/>
		<path class="st8" d="M263.4,369.6c8.2-0.6,16.2-2.7,22.6-6.4c2.3-1.3,4.5-3,6.4-4.9v-29.6c-1.9-1.9-4-3.5-6.4-4.9
			c-6.3-3.7-14.3-5.8-22.6-6.4V369.6z"/>
		<path class="st7" d="M236.2,321.2c-1.9,0.7-3.7,1.6-5.5,2.6c-7.2,4.1-11,9.5-11.4,14.9c0,0.1,0,0.2,0,0.3c0,0.3,0,0.5,0,0.8v7.5
			c0,0.3,0,0.5,0,0.8c0,0.1,0,0.2,0,0.3c0.4,5.4,4.2,10.7,11.4,14.9c1.8,1,3.6,1.9,5.5,2.6V321.2z"/>
		<path class="st7" d="M222.1,347.1c-0.4-0.6-0.7-1.1-1.1-1.7c-0.1-0.2-0.2-0.3-0.2-0.5c-0.2-0.5-0.5-1-0.6-1.5
			c-0.1-0.2-0.1-0.3-0.2-0.5c-0.2-0.6-0.4-1.3-0.5-1.9l0,0c-0.1-0.7-0.2-1.3-0.2-2c0-0.2,0-0.4,0-0.6c0-0.5,0.1-0.9,0.1-1.4
			c0-0.2,0.1-0.5,0.1-0.7c0.1-0.4,0.2-0.9,0.3-1.3c0.1-0.2,0.1-0.4,0.2-0.6c0.2-0.6,0.5-1.2,0.8-1.8c0.1-0.2,0.2-0.4,0.3-0.6
			c0.2-0.4,0.5-0.9,0.8-1.3c0.2-0.3,0.4-0.5,0.6-0.8s0.3-0.4,0.4-0.6l0.7-0.8l0.4-0.4c8.4-9.6,20.6-12.8,34.4-12.8
			c13.7,0,26.1,3.2,34.4,12.8l0.3,0.3l0.7,0.8c0.2,0.2,0.3,0.4,0.4,0.6s0.4,0.5,0.5,0.7c0.3,0.5,0.6,0.9,0.8,1.4
			c0.1,0.1,0.2,0.3,0.3,0.5c0.3,0.6,0.6,1.2,0.8,1.9c0.1,0.2,0.1,0.4,0.2,0.6c0.1,0.5,0.3,0.9,0.4,1.4c0,0.2,0.1,0.4,0.1,0.6
			c0.1,0.5,0.1,1,0.1,1.5c0,0.2,0,0.3,0,0.5c0,1.4-0.2,2.7-0.7,4c0,0.1-0.1,0.3-0.2,0.4c-0.2,0.5-0.4,1.1-0.7,1.6l-0.2,0.4
			c-0.3,0.6-0.7,1.2-1.1,1.8l0,0.1c-0.5,0.7-1,1.4-1.6,2l-0.1,0.1c-0.5,0.6-1.1,1.1-1.7,1.7l-0.4,0.4c-0.6,0.5-1.2,0.9-1.8,1.4
			l-0.5,0.3c-0.8,0.5-1.6,1.1-2.5,1.6c-15.2,8.8-40,8.8-55.2,0c-0.9-0.5-1.7-1-2.5-1.6c-0.2-0.1-0.3-0.2-0.5-0.4
			c-0.6-0.4-1.2-0.9-1.7-1.3l-0.5-0.4c-0.6-0.5-1.1-1-1.6-1.6l-0.2-0.2c-0.6-0.6-1.1-1.2-1.6-1.9
			C222.1,347.2,222.1,347.2,222.1,347.1z"/>
		<g class="st13">
			<path class="st10" d="M222.1,347.1c-0.4-0.6-0.7-1.1-1.1-1.7c-0.1-0.2-0.2-0.3-0.2-0.5c-0.2-0.5-0.5-1-0.6-1.5
				c-0.1-0.2-0.1-0.3-0.2-0.5c-0.2-0.6-0.4-1.3-0.5-1.9l0,0c-0.1-0.7-0.2-1.3-0.2-2c0-0.2,0-0.4,0-0.6c0-0.5,0.1-0.9,0.1-1.4
				c0-0.2,0.1-0.5,0.1-0.7c0.1-0.4,0.2-0.9,0.3-1.3c0.1-0.2,0.1-0.4,0.2-0.6c0.2-0.6,0.5-1.2,0.8-1.8c0.1-0.2,0.2-0.4,0.3-0.6
				c0.2-0.4,0.5-0.9,0.8-1.3c0.2-0.3,0.4-0.5,0.6-0.8s0.3-0.4,0.4-0.6l0.7-0.8l0.4-0.4c8.4-9.6,20.6-12.8,34.4-12.8
				c13.7,0,26.1,3.2,34.4,12.8l0.3,0.3l0.7,0.8c0.2,0.2,0.3,0.4,0.4,0.6s0.4,0.5,0.5,0.7c0.3,0.5,0.6,0.9,0.8,1.4
				c0.1,0.1,0.2,0.3,0.3,0.5c0.3,0.6,0.6,1.2,0.8,1.9c0.1,0.2,0.1,0.4,0.2,0.6c0.1,0.5,0.3,0.9,0.4,1.4c0,0.2,0.1,0.4,0.1,0.6
				c0.1,0.5,0.1,1,0.1,1.5c0,0.2,0,0.3,0,0.5c0,1.4-0.2,2.7-0.7,4c0,0.1-0.1,0.3-0.2,0.4c-0.2,0.5-0.4,1.1-0.7,1.6l-0.2,0.4
				c-0.3,0.6-0.7,1.2-1.1,1.8l0,0.1c-0.5,0.7-1,1.4-1.6,2l-0.1,0.1c-0.5,0.6-1.1,1.1-1.7,1.7l-0.4,0.4c-0.6,0.5-1.2,0.9-1.8,1.4
				l-0.5,0.3c-0.8,0.5-1.6,1.1-2.5,1.6c-15.2,8.8-40,8.8-55.2,0c-0.9-0.5-1.7-1-2.5-1.6c-0.2-0.1-0.3-0.2-0.5-0.4
				c-0.6-0.4-1.2-0.9-1.7-1.3l-0.5-0.4c-0.6-0.5-1.1-1-1.6-1.6l-0.2-0.2c-0.6-0.6-1.1-1.2-1.6-1.9
				C222.1,347.2,222.1,347.2,222.1,347.1z"/>
		</g>
		<path class="st14" d="M275.7,329v-11.5c-4.8-1.4-9.8-2.1-14.8-2.2v19.4l2.4,26.3c8.2-0.6,16.2-2.7,22.6-6.4
			c0.9-0.5,1.7-1.1,2.5-1.6l0.5-0.3c0.6-0.5,1.2-0.9,1.8-1.4l0.4-0.4c0.4-0.4,0.8-0.8,1.2-1.1L275.7,329z"/>
		<path class="st15" d="M247,332.8v-16.7c-9.1,1.5-17.1,5.1-23.1,11.9l-0.4,0.4l-0.7,0.8c-0.1,0.2-0.3,0.4-0.4,0.6s-0.4,0.5-0.6,0.8
			c-0.3,0.4-0.5,0.8-0.8,1.3c-0.1,0.2-0.2,0.4-0.3,0.6c-0.3,0.6-0.6,1.2-0.8,1.8c-0.1,0.2-0.1,0.4-0.2,0.6c-0.1,0.4-0.2,0.9-0.3,1.3
			c0,0.2-0.1,0.5-0.1,0.7c-0.1,0.5-0.1,0.9-0.1,1.4c0,0.2,0,0.4,0,0.6c0,0.7,0.1,1.3,0.2,2l0,0c0.1,0.7,0.3,1.3,0.5,1.9
			c0.1,0.2,0.1,0.3,0.2,0.5c0.2,0.5,0.4,1,0.6,1.5c0.1,0.2,0.1,0.3,0.2,0.5c0.3,0.6,0.7,1.2,1.1,1.7c0,0.1,0.1,0.1,0.1,0.2
			c0.5,0.7,1,1.3,1.6,1.9l0.2,0.2c0.5,0.6,1.1,1.1,1.6,1.6l0.5,0.4c0.5,0.5,1.1,0.9,1.7,1.3l0.5,0.4c0.8,0.5,1.6,1.1,2.5,1.6
			c1.8,1,3.6,1.9,5.5,2.6L247,332.8z"/>
		<path class="st7" d="M280,318.2c0-3.2-2.1-6.4-6.4-8.9c-8.5-4.9-22.3-4.9-30.8,0c-4,2.3-6.1,5.3-6.4,8.3c0,0.1,0,0.1,0,0.2
			c0,0.1,0,0.3,0,0.4v6.5c0,0.1,0,0.3,0,0.4c0,0.1,0,0.1,0,0.2c0.2,3,2.4,6,6.4,8.3c8.5,4.9,22.3,4.9,30.8,0
			c4.2-2.5,6.4-5.7,6.4-8.9V318.2z"/>
		<path class="st8" d="M280,318.2c0-3.2-2.1-6.4-6.4-8.9c-8.5-4.9-22.3-4.9-30.8,0c-4,2.3-6.1,5.3-6.4,8.3c0,0.1,0,0.1,0,0.2
			c0,0.1,0,0.3,0,0.4v6.5c0,0.1,0,0.3,0,0.4c0,0.1,0,0.1,0,0.2c0.2,3,2.4,6,6.4,8.3c8.5,4.9,22.3,4.9,30.8,0
			c4.2-2.5,6.4-5.7,6.4-8.9V318.2z"/>
		<path class="st8" d="M261.1,337.1c4.4-0.2,8.7-1.5,12.6-3.6c1.3-0.7,2.5-1.6,3.5-2.7V312c-1.1-1.1-2.2-2-3.5-2.7
			c-3.9-2.1-8.2-3.3-12.6-3.6V337.1z"/>
		<path class="st7" d="M246,307.8c-1.1,0.4-2.1,0.9-3.1,1.5c-4,2.3-6.1,5.3-6.4,8.3c0,0.1,0,0.1,0,0.2c0,0.1,0,0.3,0,0.4v6.5
			c0,0.1,0,0.3,0,0.4c0,0.1,0,0.1,0,0.2c0.2,3,2.4,6,6.4,8.3c1,0.6,2,1.1,3.1,1.5V307.8z"/>
		<path class="st7" d="M280,317.6L280,317.6c-0.5-8.3-21.7-22.9-21.7-22.9s-21.3,14.7-21.7,22.9l0,0c0,0.3,0,0.7,0,1
			c0,0.1,0,0.1,0,0.2c0.2,3,2.4,6,6.4,8.3c8.5,4.9,22.3,4.9,30.8,0c4-2.3,6.1-5.3,6.3-8.3v-0.2C280,318.2,280,317.9,280,317.6z"/>
		<path class="st16" d="M280,317.6L280,317.6c-0.5-8.3-21.7-22.9-21.7-22.9s-21.3,14.7-21.7,22.9l0,0c0,0.3,0,0.7,0,1
			c0,0.1,0,0.1,0,0.2c0.2,3,2.4,6,6.4,8.3c8.5,4.9,22.3,4.9,30.8,0c4-2.3,6.1-5.3,6.3-8.3v-0.2C280,318.2,280,317.9,280,317.6z"/>
		<path class="st14" d="M273.7,327.1c1.2-0.7,2.2-1.5,3.2-2.4c0-10.2-18.6-30.1-18.6-30.1s2.8,28.2,2.8,36
			C265.5,330.4,269.8,329.2,273.7,327.1z"/>
		<path class="st15" d="M236.6,317.5L236.6,317.5c0,0.3,0,0.7,0,1c0,0.1,0,0.1,0,0.2c0.2,3,2.4,6,6.4,8.3c1.1,0.6,2.2,1.2,3.4,1.6
			c0-6.9,12-34,12-34S237.1,309.3,236.6,317.5z"/>
		<path class="st7" d="M332.9,165.1c0-11-7.3-22-21.9-30.5c-29.1-16.8-76.4-16.8-105.5,0c-14.5,8.4-21.8,19.4-21.8,30.5v13.2
			c0,11,7.3,22,21.9,30.5c29.1,16.8,76.4,16.8,105.5,0c14.6-8.4,21.9-19.4,21.9-30.5V165.1z"/>
		<path class="st8" d="M332.9,165.1c0-11-7.3-22-21.9-30.5c-29.1-16.8-76.4-16.8-105.5,0c-14.5,8.4-21.8,19.4-21.8,30.5v13.2
			c0,11,7.3,22,21.9,30.5c29.1,16.8,76.4,16.8,105.5,0c14.6-8.4,21.9-19.4,21.9-30.5V165.1z"/>
		<path class="st8" d="M316.2,138v67.5c11.1-7.9,16.7-17.5,16.7-27.1v-13.2C332.9,155.5,327.3,145.8,316.2,138z"/>
		<path class="st8" d="M258.3,221.3c14.9,0,29.7-2.6,42.4-7.6v-84c-12.7-5.1-27.6-7.7-42.4-7.7V221.3z"/>
		<path class="st7" d="M209.9,132.3c-1.5,0.7-3,1.5-4.4,2.3c-14.6,8.4-21.9,19.4-21.9,30.5v13.2c0,11,7.3,22,21.9,30.5
			c1.4,0.8,2.9,1.6,4.4,2.3V132.3z"/>
		<ellipse class="st7" cx="258.3" cy="165.1" rx="74.6" ry="43.1"/>
		<ellipse class="st17" cx="258.3" cy="165.1" rx="74.6" ry="43.1"/>
		<path class="st7" d="M325.3,165.1c0,2.3-0.4,4.5-1.2,6.6c-2.4-6.3-8.2-12.3-16.8-17.3c-12.9-7.5-30.3-11.6-48.9-11.6
			s-36,4.1-48.9,11.6c-8.6,5-14.4,10.9-16.8,17.3c-0.8-2.1-1.2-4.3-1.2-6.6c0-8.7,6.4-17.1,18-23.8c12.9-7.5,30.3-11.6,48.9-11.6
			c18.6,0,36,4.1,48.9,11.6C318.9,148,325.3,156.4,325.3,165.1z"/>
		<path class="st3" d="M227.3,133.8c-6.2,1.7-12.3,4.2-17.9,7.4c-11.6,6.7-18,15.2-18,23.8c0,2.3,0.4,4.5,1.2,6.6
			c2.4-6.3,8.1-12.3,16.8-17.3c5.6-3.2,11.7-5.7,17.9-7.4L227.3,133.8z"/>
		<path class="st18" d="M260.2,142.9c15.9,0.2,30.8,3.5,42.6,9.3V139c-11.9-5.8-26.8-9-42.6-9.3V142.9z"/>
		<path class="st7" d="M183.7,178.3c0,11,7.3,22,21.9,30.5c29.1,16.8,76.4,16.8,105.5,0c14.6-8.4,21.9-19.4,21.9-30.5
			c0,69.2-35.2,126.6-74.6,126.6S183.7,247.5,183.7,178.3L183.7,178.3z"/>
		<path class="st16" d="M183.7,178.3c0,11,7.3,22,21.9,30.5c29.1,16.8,76.4,16.8,105.5,0c14.6-8.4,21.9-19.4,21.9-30.5
			c0,69.2-35.2,126.6-74.6,126.6S183.7,247.5,183.7,178.3L183.7,178.3z"/>
		<path class="st19" d="M258.3,304.8c17.5,0,34.1-11.3,47.2-29.9c-17.7,23.2-52.2,19.8-66.6-10c-4.3-8.9-10.2-28.2-11.7-47.6
			c-7.6-1.9-14.9-4.9-21.7-8.7c-14.6-8.4-21.8-19.4-21.8-30.5l0,0C183.7,247.5,218.9,304.8,258.3,304.8z"/>
		<path class="st15" d="M206.7,246.4c-3.2-13.3-5.2-27-5.9-40.7c-11.4-7.9-17.1-17.7-17.1-27.4l0,0c0,67.9,33.9,124.3,72.3,126.5
			C234.2,302.9,213.9,274.7,206.7,246.4z"/>
		<path class="st14" d="M311,208.7c-16.6,9.6-39.1,13.7-60.8,12.4c3.6,43.3,15.4,58.2,35.9,47.9c17.1-8.6,25.2-36.6,29.1-62.9
			C313.9,207,312.5,207.9,311,208.7z"/>
		<path class="st7" d="M324,171.7c-2.4,6.3-8.2,12.3-16.8,17.2c-12.9,7.5-30.3,11.6-48.9,11.6s-36-4.1-48.9-11.6
			c-8.6-5-14.4-11-16.8-17.2c2.4-6.3,8.1-12.3,16.8-17.3c12.9-7.5,30.3-11.6,48.9-11.6s36,4.1,48.9,11.6
			C315.9,159.4,321.6,165.4,324,171.7z"/>
		<path class="st16" d="M324,171.7c-2.4,6.3-8.2,12.3-16.8,17.2c-12.9,7.5-30.3,11.6-48.9,11.6s-36-4.1-48.9-11.6
			c-8.6-5-14.4-11-16.8-17.2c2.4-6.3,8.1-12.3,16.8-17.3c12.9-7.5,30.3-11.6,48.9-11.6s36,4.1,48.9,11.6
			C315.9,159.4,321.6,165.4,324,171.7z"/>
		<path class="st19" d="M290.6,196c5.8-1.7,11.4-4.1,16.7-7.1c8.6-5,14.4-11,16.8-17.2c-2.4-6.3-8.2-12.3-16.8-17.3
			c-4.2-2.4-8.6-4.4-13.2-6C294.5,164.4,293.3,180.3,290.6,196z"/>
		<path class="st15" d="M312.2,157.6c-0.4,10.2-1.6,20.3-3.4,30.4c7.8-4.8,13.1-10.4,15.3-16.3C322.1,166.7,318.1,161.9,312.2,157.6
			z"/>
	</g>
</g>
</svg>
