<?xml version="1.0" encoding="utf-8"?>
<!-- Generator: Adobe Illustrator 25.0.1, SVG Export Plug-In . SVG Version: 6.00 Build 0)  -->
<svg version="1.1" id="Layer_1" xmlns="http://www.w3.org/2000/svg" xmlns:xlink="http://www.w3.org/1999/xlink" x="0px" y="0px"
	 viewBox="0 0 300 300" style="enable-background:new 0 0 300 300;" xml:space="preserve">
<style type="text/css">
	.st0{fill:#E974AE;}
	.st1{fill:#3F3F3F;}
</style>
<g>
	<path class="st0" d="M232.4,76.7c-0.8-3-2-6.2-4.3-8.9c-2.2-2.7-5.4-4.6-8.3-5.4c-3-0.9-5.9-1.1-8.6-1c-5.4,0-10.8,1.1-15.1,4.2
		c-2.1,1.5-3.8,3.5-4.9,5.6c-0.1,0.2-0.2,0.5-0.3,0.7c-2.8-5.8-7.2-9.1-11-10.7c-1-3.8-3.7-7.7-8.8-9c-1.3-3.8-4.3-8.2-9.9-9.4
		l-7.2-15.1c-0.7-1.6-2.3-2.6-4.1-2.6h0c-1.7,0-3.3,1-4.1,2.6l-7.2,15.1c-5.6,1.2-8.6,5.5-9.9,9.4c-5.1,1.3-7.8,5.3-8.8,9
		c-3.7,1.6-8.2,4.9-11,10.7c-0.1-0.2-0.2-0.5-0.3-0.7c-1.1-2.1-2.8-4.1-4.9-5.6c-4.2-3-9.7-4.2-15.1-4.2c-2.7,0-5.6,0.2-8.6,1
		c-3,0.9-6.1,2.7-8.3,5.4c-2.2,2.7-3.5,5.8-4.3,8.9c-0.8,3-1.1,6-1.4,9c-0.2,3-0.3,5.9-0.3,8.9c0,2.9,0.2,6.2,0.6,9.2
		c0.9,6.1,2.7,12.1,5.4,17.5c2.7,5.4,6.1,10.3,9.7,14.6c3.7,4.3,7.6,8,11.4,11.3c3.8,3.3,7.4,6.3,10.5,9.2c3.1,2.8,5.7,5.6,7,8.2
		c1.4,2.6,1.4,5,0.6,7c-0.7,2-1.8,3.5-2.6,4.5c-0.4,0.5-0.7,0.9-0.9,1.1c-0.2,0.3-0.3,0.4-0.3,0.4l-0.1,0.1
		c-0.5,0.6-0.5,1.6,0.1,2.2c0.6,0.7,1.7,0.7,2.4,0.1c0,0,0.1-0.1,0.4-0.4c0.3-0.3,0.7-0.6,1.2-1.2c1-1,2.5-2.6,3.7-5.3
		c0.6-1.3,1.1-3,1.2-4.9c0,0,0-0.1,0-0.1c6.4,5.6,14.2,8.7,18,9.9c5.9,16.1,2.3,28,0.4,32.5c-4.5,0.9-7.2,3.8-8.6,6.8
		c-11.4,1.4-12.5,9.6-12.6,10c0,0.2,0,0.4,0,0.5v13.5c-1.1,0.2-2.3,0.6-3.5,1.3c-3.6,1.9-5.5,5.4-5.5,9.8v27.1c0,2.5,2,4.5,4.5,4.5
		h41h41c2.5,0,4.5-2,4.5-4.5v-27.1c0-5.8-3.4-9.9-9-11.1v-13.4c0-0.2,0-0.4,0-0.5c0-0.4-1.2-8.6-12.6-10c-1.4-3-4.1-5.9-8.6-6.8
		c-1.9-4.5-5.5-16.4,0.4-32.5c3.8-1.3,11.6-4.3,18-9.9c0,0,0,0.1,0,0.1c0,1.9,0.5,3.5,1.2,4.9c1.3,2.7,2.8,4.2,3.7,5.3
		c0.5,0.5,0.9,0.9,1.2,1.2c0.3,0.3,0.4,0.4,0.4,0.4c0.6,0.6,1.6,0.6,2.3,0.1c0.7-0.6,0.8-1.7,0.2-2.4l-0.1-0.1c0,0-0.1-0.1-0.3-0.4
		c-0.2-0.3-0.6-0.6-0.9-1.1c-0.8-1-1.9-2.5-2.6-4.5c-0.7-2-0.8-4.4,0.6-7c1.3-2.6,4-5.4,7-8.2c3.1-2.9,6.7-5.8,10.5-9.2
		c3.7-3.4,7.7-7.1,11.4-11.3c3.7-4.3,7.1-9.2,9.7-14.6c2.7-5.4,4.5-11.4,5.4-17.5c0.4-3,0.6-6.2,0.6-9.2c0-2.9,0-5.9-0.3-8.9
		C233.6,82.7,233.2,79.7,232.4,76.7z M109,252.4c0-6.3,5.8-6.9,8.1-6.9c0.6,0,0.9,0,0.9,0v-17.6c0,0,0.7-6.2,11.5-6.2
		c0,0,0.5-6.9,8.1-6.9c0,0,9.8-16.5,0-40.4c0,0-26.7-6.8-26.7-26.7c0,0,0-45.4,0-63s13.2-20.1,13.2-20.1s0-8.4,8.4-8.4
		c0,0,1-9.3,9.3-9.3l8.3-17.4l0,0l4.5,16.4L142.3,47l14.1,1.1c1.7,1.3,4.3,3.7,4.8,7l-27,1.1l30.4,1.3c1.7,1,3.4,2.8,3.8,5.9
		l-42.7,1.3l43.8,1.3c1,1.8,2.4,5.9,2.4,14.7c0,0,0,0.1,0,0.1L114,82.1l57.9,1.3c0,17.1,0,66.9,0,75.5l-52.6,1.4l52.1,1.4
		c-2,5.4-9.4,9.6-13.3,11.6l-19.6,1.2l17.2,1c0.5,4.5,2.2,22.7,0,38.3l-17.2,1l18.7,1.1c0.7,0.8,1.5,2.3,1.6,4.7l-28.2,1.1l34.8,1.3
		c4.1,1.4,8.7,4.1,8.7,9.5c0,6.4,0,9.9,0,11.6l-54.5,1.3l58.2,1.4c3.2,1.8,7.2,5.6,7.2,13.7c0,8.6,0,15.2,0,18.9H150h-37.2
		l-1.6-28.2l-1.6,28.2H109C109,279.6,109,260.3,109,252.4z M189,144.7c0-2-0.2-4.7-0.2-8.1c0-3.4-0.2-7.3-0.2-11.4
		c0-4.2,0-8.7-0.1-13.1c0-4.5,0.1-8.9,0.1-13.1c0-4.2,0.1-8.1,0.2-11.4c0.1-3.4,0.2-6.1,0.2-8.1c0.1-2,0.1-3.1,0.1-3.1
		s0,1.1,0.1,3.1c0,2,0.2,4.7,0.2,8.1c0,3.3,0.2,7.3,0.2,11.4c0,4.2,0,8.7,0.1,13.1c0,4.5-0.1,8.9-0.1,13.1c0,4.2-0.1,8.1-0.2,11.4
		c-0.1,3.3-0.2,6.1-0.2,8.1c-0.1,2-0.1,3.1-0.1,3.1S189.1,146.6,189,144.7z M98.5,149.4c-0.7-0.6-1.7-1.4-3-2.5
		c-2.5-2.2-6.2-5.3-10.1-9.5c-2-2.1-4-4.5-6-7.1c-2-2.6-3.9-5.6-5.6-8.8c-1.7-3.2-3.1-6.7-4.2-10.4c-1.1-3.7-1.8-7.5-2.1-11.4
		c-0.3-3.9-0.2-7.7,0-11.5c0.2-3.8,0.6-7.5,1.5-11.1c0.9-3.5,2.4-6.9,4.9-9.4c2.4-2.5,5.6-3.8,8.4-4.5c2.9-0.6,5.6-0.7,7.9-0.6
		c2.3,0.1,4.4,0.5,6,0.9c1.6,0.4,2.9,1,3.6,1.4c0.8,0.4,1.2,0.7,1.2,0.7s-0.4-0.2-1.3-0.5c-0.8-0.3-2.1-0.7-3.7-0.9
		c-1.6-0.3-3.6-0.3-5.9-0.3c-2.3,0-4.9,0.2-7.5,0.9c-2.7,0.7-5.4,1.9-7.5,4.2c-2.1,2.2-3.5,5.3-4.3,8.7c-0.8,3.4-1.2,7-1.3,10.7
		c-0.1,3.7-0.2,7.5,0.1,11.2c0.3,3.7,1,7.4,2,10.9c1,3.5,2.4,6.9,3.9,10c1.6,3.1,3.4,6,5.2,8.7c1.8,2.7,3.7,5.1,5.6,7.2
		c3.7,4.3,7,7.7,9.4,10c2.4,2.3,3.7,3.7,3.7,3.7S99.1,149.9,98.5,149.4z M97.5,142.4c-3.5-3.4-7.1-7.1-10.3-11.1
		c-3.2-4.1-6.2-8.5-8.4-13.3c-2.2-4.8-3.7-10-4.5-15.4c-0.4-2.7-0.5-5.3-0.5-8.1c0-2.8,0.1-5.6,0.3-8.3c0.3-5.4,1.3-10.6,3.6-13.7
		c1.2-1.5,2.7-2.6,4.7-3.3c2-0.7,4.2-1.1,6.5-1.2c4.5-0.2,8.7,0.5,11.7,2.4c1.5,0.9,2.6,2.1,3.4,3.4c0.8,1.3,1.3,2.8,1.4,4.2
		c0.3,2.9-0.4,5.6-1.3,7.7c-0.9,2.1-2,3.6-2.8,4.6c-0.3,0.5-0.7,0.9-0.9,1.2c-0.2,0.3-0.3,0.4-0.3,0.4c-0.6,0.6-0.5,1.6,0,2.2
		c0.6,0.7,1.7,0.7,2.4,0.1c0,0,0.1-0.1,0.4-0.4c0.3-0.3,0.6-0.5,1.1-1.1c0.7-0.7,1.5-1.6,2.4-2.8v58c0,1.3,0.1,2.5,0.2,3.6
		C103.8,148.5,100.6,145.6,97.5,142.4z M193.4,151.4c0.2-1.2,0.2-2.4,0.2-3.6v-58c0.9,1.2,1.7,2.1,2.4,2.8c0.5,0.6,0.9,0.9,1.1,1.1
		c0.3,0.2,0.4,0.4,0.4,0.4c0.6,0.6,1.6,0.6,2.2,0c0.7-0.6,0.8-1.7,0.2-2.4c0,0-0.1-0.1-0.3-0.4c-0.2-0.3-0.6-0.7-0.9-1.2
		c-0.7-0.9-1.8-2.5-2.8-4.6c-0.9-2.1-1.6-4.8-1.3-7.7c0.1-1.4,0.6-2.9,1.4-4.2c0.8-1.3,2-2.5,3.4-3.4c3-1.9,7.1-2.6,11.7-2.4
		c2.3,0.1,4.5,0.5,6.5,1.2c2,0.7,3.6,1.8,4.7,3.3c2.4,3.1,3.3,8.3,3.6,13.7c0.2,2.7,0.2,5.5,0.3,8.3c0,2.8-0.1,5.4-0.5,8.1
		c-0.7,5.3-2.3,10.5-4.5,15.4c-2.2,4.8-5.2,9.3-8.4,13.3c-3.2,4.1-6.8,7.7-10.3,11.1C199.4,145.6,196.2,148.5,193.4,151.4z
		 M227.8,106.6c-0.1,0.7-0.1,1.6-0.3,2.6c-0.2,1-0.3,2.2-0.6,3.4c-0.3,1.2-0.6,2.6-1.1,3.9c-0.5,1.4-0.9,2.8-1.6,4.2
		c-0.6,1.5-1.3,2.9-2.1,4.4c-0.4,0.7-0.9,1.4-1.3,2.2c-0.4,0.7-0.9,1.4-1.4,2.1c-0.5,0.7-1,1.4-1.5,2c-0.5,0.7-1,1.3-1.5,2
		c-0.5,0.7-1.1,1.3-1.6,1.9c-0.5,0.6-1.1,1.2-1.6,1.8c-1.1,1.1-2.2,2.2-3.2,3.1c-1.1,1-2.1,1.8-3.1,2.6c-1.9,1.6-3.6,2.8-4.8,3.6
		c-1.2,0.8-1.9,1.3-1.9,1.3s2.3-2.3,5.9-5.8c0.9-0.9,1.8-1.9,2.8-2.9c1-1,2-2.1,3-3.3c1-1.1,2-2.4,3-3.6c0.5-0.6,1-1.3,1.5-1.9
		c0.5-0.7,0.9-1.3,1.4-2c0.5-0.7,0.9-1.3,1.3-2c0.4-0.7,0.9-1.4,1.3-2.1c0.8-1.4,1.6-2.7,2.2-4.1c0.7-1.4,1.3-2.7,1.8-4
		c0.6-1.3,1-2.5,1.4-3.7c0.4-1.2,0.7-2.2,1-3.2c0.3-0.9,0.5-1.8,0.7-2.5c0.4-1.4,0.6-2.2,0.6-2.2S227.9,105.1,227.8,106.6z
		 M227.2,70.8c-0.2-0.2-0.4-0.4-0.6-0.6c-0.3-0.2-0.5-0.4-0.8-0.6c-0.6-0.4-1.2-0.9-2-1.3c-0.4-0.2-0.8-0.4-1.2-0.7
		c-0.4-0.2-0.9-0.4-1.3-0.6c-0.9-0.5-1.9-0.7-2.9-1c-0.5-0.1-1.1-0.2-1.6-0.4c-0.5-0.1-1.1-0.2-1.7-0.3c-0.6-0.1-1.1-0.2-1.7-0.2
		l-1.7-0.1c-0.6-0.1-1.1,0-1.7,0c-0.6,0-1.1,0-1.7,0.1c-0.6,0.1-1.1,0.1-1.7,0.2c-0.6,0.1-1.1,0.2-1.6,0.3c-1.1,0.2-2.1,0.5-3,0.7
		c-0.5,0.1-0.9,0.3-1.4,0.5c-0.4,0.2-0.9,0.3-1.3,0.5c-0.8,0.4-1.5,0.7-2.1,1.1c-0.6,0.4-1.2,0.7-1.5,1c-0.8,0.7-1.3,1-1.3,1
		s0.3-0.5,1-1.4c0.3-0.4,0.8-0.9,1.3-1.4c0.5-0.6,1.3-1,2-1.6c0.8-0.5,1.7-1,2.6-1.4c1-0.4,2-0.9,3.2-1.1c1.1-0.3,2.3-0.5,3.5-0.7
		c0.6-0.1,1.2-0.1,1.8-0.1c0.6,0,1.2-0.1,1.9,0l1.9,0.1c0.6,0.1,1.2,0.2,1.8,0.3c0.3,0.1,0.6,0.1,0.9,0.2l0.9,0.3
		c0.6,0.2,1.2,0.3,1.7,0.5c1.1,0.5,2.2,0.8,3.1,1.4c0.5,0.3,0.9,0.5,1.3,0.8c0.4,0.3,0.8,0.6,1.1,0.9c0.4,0.3,0.7,0.5,1,0.9
		c0.3,0.3,0.6,0.6,0.8,0.9c0.2,0.3,0.5,0.5,0.7,0.8c0.2,0.3,0.3,0.5,0.5,0.8c0.6,0.9,0.9,1.4,0.9,1.4S228,71.5,227.2,70.8z"/>
	<path class="st1" d="M154.4,206.8c-0.1,0.8-0.1,1.6-0.1,2.3c0,0.7-0.1,1.3-0.1,1.8c0,1-0.1,1.5-0.1,1.5s0.1-0.5,0.3-1.5
		c0.2-1,0.4-2.3,0.6-4c0.1-0.8,0.2-1.7,0.3-2.7c0.1-1,0.2-2,0.2-3c0.1-2.1,0.2-4.3,0.2-6.6c0-2.2-0.1-4.5-0.2-6.6
		c-0.1-2.1-0.3-4-0.5-5.7c-0.2-1.7-0.4-3-0.6-4c-0.2-1-0.3-1.5-0.3-1.5s0.1,2.2,0.2,5.6c0.1,1.7,0.1,3.6,0.2,5.7
		c0,2.1,0.1,4.3,0.1,6.5c0,1.1,0,2.2,0,3.3c0,1.1,0,2.2,0,3.2C154.6,203.2,154.5,205.1,154.4,206.8z"/>
	<path class="st1" d="M179.6,251.7c0.9,1.2,1.7,2.7,2.2,4.4c0.3,0.9,0.4,1.8,0.6,2.7c0.1,0.9,0.2,1.9,0.2,2.9c0,2,0,4,0.1,5.9
		c0,1.9,0.1,3.6,0.2,5.1c0,1.5,0.2,2.7,0.2,3.6c0.1,0.9,0.1,1.4,0.1,1.4s0-0.5,0.1-1.4c0-0.9,0.2-2.1,0.2-3.6c0-1.5,0.1-3.2,0.2-5.1
		c0-1.9,0.1-3.9,0.1-5.9c0-1-0.1-2-0.2-3c-0.2-1-0.4-2-0.7-2.9c-0.3-0.9-0.7-1.8-1.2-2.5c-0.5-0.8-0.9-1.4-1.5-2
		c-0.5-0.6-1-1-1.5-1.4c-0.5-0.4-0.9-0.7-1.3-0.9c-0.4-0.2-0.7-0.4-0.9-0.5c-0.2-0.1-0.3-0.2-0.3-0.2s0.4,0.3,1.1,0.8
		C177.8,249.7,178.7,250.6,179.6,251.7z"/>
	<path class="st1" d="M166.7,225.7c0.5,0.3,1,0.6,1.5,1c0.5,0.4,1,0.8,1.5,1.3c0.5,0.5,0.9,1,1.3,1.6c0.3,0.6,0.7,1.2,0.8,1.9
		c0.2,0.7,0.3,1.4,0.3,2.1c0,0.7,0,1.5,0.1,2.2c0,1.4,0.1,2.7,0.2,3.9c0.1,1.1,0.2,2.1,0.2,2.7c0.1,0.7,0.1,1,0.1,1s0.1-0.4,0.1-1
		c0-0.7,0.2-1.6,0.2-2.7c0.1-1.1,0.1-2.5,0.2-3.9c0-0.7,0.1-1.4,0-2.2c0-0.8-0.1-1.6-0.3-2.4c-0.2-0.8-0.6-1.5-1-2.2
		c-0.4-0.7-1-1.3-1.5-1.7c-0.5-0.5-1.1-0.9-1.7-1.3c-0.6-0.4-1.1-0.6-1.7-0.9c-1.1-0.5-2-0.7-2.6-0.9c-0.6-0.2-1-0.2-1-0.2
		s0.3,0.2,1,0.4C164.9,224.7,165.8,225.2,166.7,225.7z"/>
	<path class="st1" d="M119.9,243.5c0,0,0.2-1,0.3-2.4c0.1-1.4,0.2-3.4,0.2-5.3c0-1.9-0.1-3.8-0.2-5.3c-0.1-1.4-0.3-2.4-0.3-2.4
		s-0.2,1-0.3,2.4c-0.1,1.4-0.2,3.4-0.2,5.3c0,1.9,0.1,3.8,0.2,5.3C119.7,242.5,119.9,243.5,119.9,243.5z"/>
	<path class="st0" d="M113.8,97.9c-0.1-2.8-0.2-5.2-0.3-6.8c-0.1-1.6-0.2-2.6-0.2-2.6s-0.1,0.9-0.2,2.6c-0.1,1.6-0.2,4-0.3,6.8
		c-0.1,2.8-0.2,6.1-0.2,9.6c-0.1,3.5-0.1,7.3-0.1,11c0,3.7,0,7.5,0.1,11c0.1,3.5,0.1,6.8,0.2,9.6c0.1,2.8,0.2,5.2,0.3,6.8
		c0.1,1.6,0.2,2.6,0.2,2.6s0.1-0.9,0.2-2.6c0.1-1.6,0.2-4,0.3-6.8c0.1-2.8,0.2-6.1,0.2-9.6c0.1-3.5,0.1-7.3,0.1-11
		c0-3.7,0-7.5-0.1-11C113.9,104,113.9,100.7,113.8,97.9z"/>
</g>
</svg>
