<?xml version="1.0" encoding="utf-8"?>
<!-- Generator: Adobe Illustrator 25.0.1, SVG Export Plug-In . SVG Version: 6.00 Build 0)  -->
<svg version="1.1" id="Layer_1" xmlns="http://www.w3.org/2000/svg" xmlns:xlink="http://www.w3.org/1999/xlink" x="0px" y="0px"
	 viewBox="0 0 300 300" style="enable-background:new 0 0 300 300;" xml:space="preserve">
<style type="text/css">
	.st0{fill:#E974AE;}
</style>
<path class="st0" d="M62.8,257.8c-9.5,0-13.5-4.1-13.5-13.6c0-53.1,0-106.3,0-159.4c0-9.6,3.8-13.5,13-13.5l0.6,0
	c3.6,0,4.9-1.3,4.9-4.9c0.1-6.5,4.4-11.1,10.6-11.2l0.3,0c6.2,0,10.9,4.8,10.9,11.1c0,3.6,1.3,5,4.7,5c0.3,0,0.5,0,0.8,0
	c2.9-0.1,5.6-0.2,8.1-0.2c2.7,0,5.1,0.1,7.6,0.2c0.3,0,0.5,0,0.7,0c3.6,0,4.3-1.9,4.4-5c0.1-7,5.5-11.2,10.7-11.2c2,0,4,0.6,5.8,1.7
	c3.7,2.3,5.5,5.8,5.2,10.3c-0.1,1,0,2.3,0.8,3.2c0.8,0.8,2,1,3,1l0.3,0c3.4-0.1,6.4-0.1,9.1-0.1c3,0,5.7,0.1,8.3,0.2
	c0.2,0,0.3,0,0.5,0c3.6,0,4-2.3,4-4.6c0.2-6.5,4.9-11.6,10.8-11.6c1.5,0,3,0.3,4.5,1c4.4,2,6.7,5.6,6.5,10.2c-0.1,1.9,0.2,3.1,1,3.9
	c0.9,1,2.3,1.1,3.4,1.1c0.2,0,0.5,0,0.7,0c2.5-0.1,5.1-0.2,7.9-0.2c2.6,0,5.5,0,8.7,0.1c0.2,0,0.3,0,0.5,0c2.8,0,3.9-1.2,4-4.2
	c0.2-7.1,4.5-11.9,10.9-11.9l0.1,0c6.4,0,10.7,4.7,10.8,11.7c0.1,4,2.2,4.4,4.7,4.4c10.2,0,13.8,3.7,13.8,14c0,52.9,0,105.7,0,158.6
	c0,10-3.9,13.9-14,13.9l-137.6,0C87.9,257.8,75.3,257.8,62.8,257.8z M60.6,111.4c-1.9,0-3.3,0.2-4.3,1.2c-0.8,0.8-1.2,2.1-1.2,4.2
	c0.1,32.5,0.1,65.5,0.1,97.4l0,29.6c0,6.7,1.5,8.1,8.2,8.1h174.4c6.8,0,8.2-1.4,8.2-8.1l0-29.6c0-31.9,0-65,0.1-97.5
	c0-2.1-0.3-3.4-1.2-4.2c-1-1-2.7-1.2-4.2-1.2h-0.1c-17.6,0.1-35.2,0.1-48.5,0.1l-41,0l-41.1,0c-13.6,0-31.4,0-49.3-0.1H60.6z
	 M63,76.4c-3.6,0-7.7,2.9-7.7,7c0,2.3,0,4.6,0,6.8c0,3.2,0.1,6.5-0.1,9.7c-0.1,1.4,0,3.1,1,4.2c1.1,1.1,2.8,1.3,4.3,1.3
	c17.7-0.1,35.2-0.1,48.5-0.1l41.6,0l39.2,0c15.2,0,33.1,0,51.5,0.1c0,0,0,0,0,0c1.8,0,3.1-0.2,4-1.1c0.7-0.8,1-1.9,1-3.6
	c-0.2-4-0.1-8-0.1-11.9c0-1.8,0-3.7,0-5.5c0-4.1-2.2-6.3-6.1-6.3l-10.8,0c-2.7,0-5.3,0-8,0c0,0-0.2,0-0.3,0c-0.1,0-0.3,0-0.4,0
	c-0.5,0-1.9,0-2.6,1.8c-0.7,2-0.6,4.3,0.4,6.2c0.8,1.6,2.2,2.7,3.7,3.1c1.7,0.5,2.8,1,3.2,1.8c0.3,0.6,0.4,1.3,0.1,2.2
	c-0.4,1.5-1.3,2.1-2.9,2.1c-0.8,0-1.6-0.1-2.3-0.3c-5.3-1.1-8.6-5.8-8.5-12c0-1.9-0.3-3.1-1.1-3.9c-0.9-1-2.4-1.1-3.7-1.1l-0.3,0
	c-4.6,0.1-9.3,0.1-13.2,0.1l-8.3,0c-3.3,0-6.7,0-10,0h0c-0.3,0-0.6-0.1-1-0.1c-0.5-0.1-1-0.2-1.5-0.2c-1.7,0-2.7,1-2.8,2.9l0,0.2
	c-0.3,3-0.6,7,4,8.2c1.6,0.4,3.1,0.9,3.7,1.9c0.3,0.5,0.3,1.2,0,2.2c-0.5,1.5-1.3,2.2-2.8,2.2c-1,0-2.1-0.3-3.1-0.6
	c-4.9-1.4-7.9-5.9-7.7-11.8c0-1.9-0.3-3.1-1-3.9c-0.9-1-2.4-1.1-3.7-1.1l-0.3,0c-5.3,0.1-10.5,0.1-14.8,0.1l-11.7,0
	c-2.1,0-4.2,0-6.3,0c-0.2,0-0.4,0-0.6-0.1c-0.3,0-0.6-0.1-0.9-0.1c-1.3,0-2.2,0.7-2.6,1.9c-0.7,2-0.5,4.2,0.5,6.1
	c0.9,1.6,2.2,2.7,3.9,3.2c1.8,0.5,2.8,1,3.2,1.8c0.3,0.6,0.3,1.3,0.1,2.2c-0.4,1.5-1.2,2.1-2.9,2.1c-0.8,0-1.6-0.1-2.3-0.3
	c-5-1-8.5-5.6-8.2-10.8c0.1-2.4-0.2-3.9-1.2-4.9c-1.1-1.2-2.9-1.4-4.6-1.4c-0.2,0-0.5,0-0.8,0c-4.4,0.1-8.8,0.1-12.1,0.1
	c-1.7,0-8.4,0-10.1,0c-2.7,0-5.4,0-8,0h0c-0.3,0-0.6-0.1-1-0.1c-0.5-0.1-1-0.2-1.6-0.2c-0.9,0-2.5,0.4-2.7,2.9l0,0.6
	c-0.2,2.8-0.6,6.7,4,7.8c2,0.5,3.1,1.1,3.6,1.9c0.3,0.6,0.3,1.3,0,2.2c-0.5,1.5-1.3,2.1-2.8,2.1c-1,0-2.2-0.3-3.2-0.6
	c-4.6-1.3-7.3-5.3-7.6-11.2c0-0.3,0-0.7,0.1-1.1c0.1-1.2,0.4-2.9-1.3-4C65.5,76.8,64.3,76.4,63,76.4z M222.6,61.3
	c-4.4,0-4.8,4.4-4.9,5.8c-0.1,1.6,0.1,2.7,0.8,3.4c0.5,0.6,1.3,0.9,2.3,0.9c0.4,0,0.7,0,1-0.1c0.2,0,0.5,0,0.8,0c0.3,0,0.5,0,0.8,0
	c0.2,0,0.5,0,0.7,0c1.1,0,2.2-0.1,2.9-0.9c0.6-0.7,0.8-1.6,0.7-3.1c-0.1-1.8-0.5-5.9-4.9-6L222.6,61.3z M78.6,61.3
	c-4.3,0-4.8,4.3-4.9,5.9c-0.1,1.5,0.1,2.5,0.7,3.2c0.7,0.8,1.8,0.9,2.6,0.9c0.4,0,0.9,0,1.4-0.1l0.3,0c0.1,0,0.2,0,0.3,0
	c0.3,0,0.5,0,0.8,0c0.3,0,0.6,0,0.9,0c0.7,0,1.6-0.1,2.3-0.8c0.6-0.6,0.9-1.6,0.8-3C83.5,65.6,83.2,61.3,78.6,61.3L78.6,61.3
	L78.6,61.3z M174.6,61.3c-4.7,0-5,4.5-5.1,6.2c-0.1,1.3,0.2,2.3,0.8,2.9c0.7,0.8,1.7,0.9,2.5,0.9c0,0,0,0,0,0c0.3,0,0.5,0,0.8,0
	c0.3,0,0.5,0,0.8,0l0.3,0l0.1,0c0.1,0,0.2,0,0.4,0c0.2,0,0.5,0,0.7,0c0.3,0,0.6,0.1,0.9,0.1c0.3,0,1.4,0,2.1-0.8
	c0.6-0.6,0.8-1.6,0.8-3C179.7,65.8,179.4,61.3,174.6,61.3L174.6,61.3z M127.1,71.2c0.2,0,0.5,0,0.7,0c0.3,0,0.6,0,0.8,0
	c0.7,0,1.6-0.1,2.3-0.8c0.6-0.6,0.9-1.6,0.8-3c-0.1-1.5-0.4-6.2-5.1-6.2c-4.7,0.1-5,4.6-5.1,6.3c-0.1,1.3,0.2,2.3,0.7,2.9
	c0.7,0.7,1.6,0.8,2.4,0.8c0.2,0,0.5,0,0.7,0c0.2,0,0.4,0,0.7,0c0.1,0,0.3,0,0.4,0l0.1,0l0.1,0C126.8,71.2,127,71.2,127.1,71.2z"/>
<path class="st0" d="M150.3,231.4c-11.4-0.1-22.1-4.6-30.2-12.8c-8.1-8.2-12.5-19-12.5-30.3c0.1-23.6,19.5-42.7,43.1-42.7l0.4,0
	c11.4,0.1,22.1,4.7,30.2,13c8.1,8.2,12.4,19,12.3,30.4c-0.3,23.5-19.6,42.5-43.1,42.5L150.3,231.4z M150.4,151.8
	c-19.5,0-36.2,16.7-36.3,36.4c-0.1,9.7,3.8,19,10.8,26.1c7,7,16.1,10.9,25.7,10.9h0.1c19.8-0.1,36.5-16.9,36.6-36.7
	c0-20-16.3-36.5-36.4-36.8L150.4,151.8z"/>
<path class="st0" d="M112,127.5c-0.4,0-1,0-1.5-0.1c-1.8-0.3-2.7-1.3-2.7-3c0.1-2,1.5-2.6,2.6-2.7c0.6-0.1,1.3-0.1,1.8-0.1l1.4,0
	l63.9,0c8.6,0,17.3,0,25.9,0c0.3,0,1.4,0,1.6,0c0.6,0,1.3,0,2,0.2c1.6,0.3,2.4,1.3,2.3,2.9c0,1.4-0.8,2.3-2.3,2.6
	c-0.6,0.1-1.3,0.2-1.9,0.2l-1.3,0c-17,0-33.9,0-50.9,0l-39.8,0L112,127.5z"/>
<path class="st0" d="M94.8,127.3c-0.1,0-0.3,0-0.4,0c-1.7-0.2-2.6-1.2-2.5-2.9c0.1-1.8,1-2.7,2.8-2.7c1.1,0,2.6,0.3,3,3
	C97.1,127.1,95.8,127.3,94.8,127.3z"/>
<path class="st0" d="M154,191.7c-3.1,0-5-0.2-5.8-1c-1.1-1.1-1.1-4.1-1-9.6l0-0.6c0-0.9,0-1.9,0-2.8c0-1.6,0-3.2,0.1-4.8
	c0.1-1.6,0.8-3.6,3.4-3.6l0.2,0c2.7,0.1,3.2,2.2,3.2,3.5c0.1,3,0.1,5.9,0,8.8c0,0.8,0,2,0.8,2.8c0.8,0.8,1.8,0.9,2.6,0.9
	c0.1,0,0.2,0,0.4,0c1,0,2.1-0.1,3.4-0.1c1.2,0,2.4,0,3.5,0l1.5,0c3.4,0,3.5,2.3,3.5,3c0,1-0.2,1.8-0.7,2.4c-0.6,0.6-1.6,0.9-2.9,0.9
	c-1,0-2.1,0-3.1,0l-4.5,0l-1.7,0C155.8,191.7,154.9,191.7,154,191.7z"/>
</svg>
