<?xml version="1.0" encoding="utf-8"?>
<!-- Generator: Adobe Illustrator 25.0.1, SVG Export Plug-In . SVG Version: 6.00 Build 0)  -->
<svg version="1.1" id="Layer_1" xmlns="http://www.w3.org/2000/svg" xmlns:xlink="http://www.w3.org/1999/xlink" x="0px" y="0px"
	 viewBox="0 0 300 300" style="enable-background:new 0 0 300 300;" xml:space="preserve">
<style type="text/css">
	.st0{fill:#1D1C1B;}
	.st1{font-family:'Castellar';}
	.st2{font-size:108.5603px;}
</style>
<path class="st0" d="M132.4,28c-0.2,0.3-0.4,0.6-0.6,0.8c-0.8,1.2-1.2,2.4-1.4,3.5c-0.2,1.1-0.1,2.2,0.2,3.1
	c0.5,1.9,1.5,3.4,2.2,4.4c-0.8,1-1.8,2.3-2.9,3.6c-1,1.3-2.1,2.4-2.9,3.3c0,0-1,0.2-2.6,0.6c-1.6,0.3-3.6,0.9-5.6,1.5
	c-1,0.3-2,0.6-3,0.9c-0.9,0.3-1.8,0.6-2.6,0.9c-0.8,0.2-1.4,0.5-1.8,0.7c-0.4,0.2-0.7,0.3-0.7,0.3v0c0,0-0.6,0.2-1.4,0.6
	c-0.4,0.2-0.9,0.4-1.4,0.6c-0.5,0.2-1.1,0.5-1.6,0.7c-1.1,0.5-2.2,1-3,1.3c-0.4,0.2-0.7,0.4-1,0.5c-0.2,0.1-0.4,0.2-0.4,0.2
	c0.2-1.7,0.7-3.5,1-4.8c0.6,0,1.4,0,2.3-0.1c0.4-0.1,0.9-0.1,1.4-0.3c0.5-0.1,1-0.2,1.5-0.4c1-0.4,2-0.9,2.9-1.8
	c0.9-0.8,1.8-1.9,2.5-3.4c0.6-1.3,1-3.1,1.3-5.1c0.3-2,0.5-4.2,0.6-6.4c0.2-4.4,0.2-8.5,0.1-10.3c-0.9,0.5-2.5,1.3-4.3,2.3
	c-0.9,0.5-1.9,1.1-2.9,1.8c-1,0.7-2,1.4-3,2.1c-2,1.5-3.9,3.2-5.4,4.8c-1.5,1.7-2.7,3.3-3.2,4.7c-0.6,1.5-0.8,2.9-0.7,4.2
	c0.1,1.2,0.5,2.3,1,3.2c1,1.8,2.5,3.1,3.6,3.8c-0.5,1.2-1.1,2.8-1.7,4.3c-0.3,0.7-0.6,1.5-0.9,2.1c-0.3,0.7-0.6,1.3-0.9,1.9
	c0,0-0.7,0.4-1.9,1.1c-1.1,0.6-2.6,1.6-4,2.5c-1.5,0.9-2.9,1.9-3.9,2.7c-1.1,0.7-1.8,1.2-1.8,1.2v0c0,0-1.5,1.2-3.1,2.4
	c-0.4,0.3-0.8,0.6-1.1,0.9c-0.3,0.3-0.7,0.6-0.9,0.8c-0.6,0.5-0.9,0.8-0.9,0.8l-1.3,1.1c-0.1-1-0.2-2-0.2-2.9c0-0.7-0.1-1.4-0.1-2
	c1.2-0.3,3.1-0.9,4.7-2.1c0.4-0.3,0.8-0.7,1.2-1.1c0.4-0.4,0.8-0.9,1.1-1.4c0.7-1,1.2-2.3,1.4-3.9c0.5-2.8-0.3-7.4-1.2-11.7
	c-1-4.3-2.1-8.2-2.7-9.9c-0.4,0.3-0.9,0.8-1.5,1.4c-0.6,0.6-1.3,1.3-2,2c-0.7,0.8-1.5,1.6-2.3,2.5c-0.8,0.9-1.5,1.9-2.3,2.9
	c-0.7,1-1.5,2-2.2,3c-0.7,1-1.3,2.1-1.8,3.1c-0.5,1-1,2-1.3,2.9c-0.3,0.9-0.5,1.8-0.6,2.5c0,0.4,0,0.7,0,1c0,2.9,1.2,4.9,2.6,6.2
	c1.4,1.3,3.1,2.1,4.2,2.5c-0.3,2.6-0.6,6.6-1.2,8.9c0,0-0.2,0.2-0.5,0.5c-0.3,0.3-0.8,0.8-1.3,1.4c-0.6,0.6-1.2,1.3-1.9,2
	c-0.7,0.8-1.3,1.5-2,2.4c-1.4,1.6-2.7,3.3-3.7,4.5c-0.5,0.6-0.9,1.1-1.2,1.5c-0.3,0.4-0.4,0.6-0.4,0.6v0c0,0-0.3,0.5-0.9,1.2
	c-0.3,0.4-0.6,0.8-0.9,1.2c-0.2,0.2-0.3,0.5-0.5,0.7c-0.2,0.2-0.3,0.5-0.5,0.7c-0.6,1-1.3,2-1.8,2.8c-0.5,0.7-0.8,1.3-0.8,1.3
	c-0.7-1.6-1.3-3.3-1.7-4.6c1.1-0.6,2.6-1.8,3.9-3.4c0.6-0.8,1.1-1.9,1.4-3.1c0.3-1.2,0.5-2.5,0.2-4.2c-0.1-0.7-0.3-1.5-0.6-2.4
	c-0.3-0.9-0.6-1.7-1.1-2.7c-0.8-1.9-1.9-3.8-3-5.7c-2.2-3.8-4.5-7.3-5.5-8.7c-1.1,1.8-3.5,6-5.1,10.7c-0.2,0.6-0.4,1.2-0.6,1.8
	c-0.2,0.6-0.4,1.2-0.5,1.8c-0.3,1.2-0.6,2.3-0.8,3.4c-0.2,1.1-0.3,2.2-0.3,3.1c0,1,0,1.8,0.2,2.6c0.6,3.2,2.4,5,4.3,6
	c1.9,1,3.8,1.2,5.1,1.3c0.2,1.3,0.6,2.9,0.9,4.5c0.3,1.6,0.5,3.1,0.6,4.4c0,0-0.4,0.8-1,1.9c-0.3,0.6-0.6,1.2-1,2
	c-0.3,0.7-0.7,1.5-1,2.3c-0.4,0.8-0.7,1.6-1,2.3c-0.3,0.8-0.6,1.5-0.8,2.1c-0.5,1.2-0.8,2-0.8,2h0c0,0,0,0.1-0.1,0.3
	c-0.1,0.2-0.2,0.5-0.3,0.8c-0.2,0.7-0.5,1.6-0.9,2.5c-0.3,0.9-0.7,1.8-0.8,2.5c-0.2,0.7-0.3,1.2-0.3,1.2l-0.5,1.7
	c-0.6-0.8-1.2-1.6-1.8-2.3c-0.4-0.6-0.8-1.2-1.2-1.7c0.8-0.9,2.2-2.4,2.8-4.4c0.3-1,0.6-2.1,0.6-3.3c0-1.2-0.3-2.6-0.9-4.1
	c-1.1-2.7-4.2-6.1-7.3-9.2c-3.1-3.1-6.2-5.8-7.6-6.9c-0.3,1-0.8,2.6-1.1,4.7c-0.4,2.1-0.8,4.5-1,7c-0.1,1.2-0.2,2.5-0.2,3.7
	c0,1.2,0.1,2.4,0.2,3.5c0.2,2.3,0.6,4.2,1.3,5.6c0.2,0.3,0.3,0.6,0.5,0.9c1.6,2.5,3.6,3.5,5.6,3.8c1.9,0.3,3.7,0.1,4.9-0.2
	c0.6,1.2,1.3,2.6,2,4.1c0.7,1.5,1.4,2.9,1.8,4c0,0-0.1,0.3-0.2,0.7c-0.1,0.2-0.1,0.5-0.2,0.8c0,0.3-0.1,0.7-0.2,1.1
	c-0.1,0.8-0.3,1.7-0.5,2.7c-0.1,0.5-0.2,1-0.3,1.5c-0.1,0.5-0.1,1-0.2,1.6c-0.1,1.1-0.3,2.1-0.4,3.1c-0.1,1-0.2,1.9-0.2,2.7
	c-0.1,1.6-0.2,2.6-0.2,2.6h0c0,0,0,0.1,0,0.4c0,0.3,0,0.6,0,1.1c0,0.9,0,2.1-0.1,3.3c0,0.6,0,1.2,0,1.7c0,0.6,0,1.1,0,1.5
	c0,0.9,0,1.5,0,1.5c-1.4-1-2.9-2.1-4-3c0.6-1.1,1.4-2.9,1.4-5c0-1.1,0-2.2-0.4-3.3c-0.4-1.2-1-2.4-2.1-3.6c-1.8-2.2-5.8-4.5-9.7-6.6
	c-3.9-2-7.7-3.7-9.3-4.3c0,0.5,0,1.2,0.1,2c0,0.8,0.2,1.8,0.3,2.8c0.2,2.1,0.5,4.5,1.1,6.9c0.3,1.2,0.6,2.4,0.9,3.6
	c0.3,1.2,0.8,2.3,1.2,3.3c0.9,2.1,1.8,3.8,2.9,4.9c2.4,2.4,4.8,2.9,6.9,2.7c2.1-0.2,3.9-1,5-1.7c0.9,0.9,2,2.1,3.1,3.3
	c1.1,1.2,2.2,2.4,2.9,3.3c0,0,0.1,0.9,0.2,2.2c0.2,1.3,0.4,3,0.6,4.7c0.3,1.7,0.6,3.4,0.8,4.7c0.1,0.6,0.2,1.2,0.3,1.5
	c0.1,0.4,0.1,0.6,0.1,0.6h0c0,0,0.4,1.9,0.9,3.8c0.2,1,0.5,1.9,0.7,2.6c0.2,0.7,0.3,1.2,0.3,1.2l0.5,1.7c-0.9-0.3-1.9-0.7-2.7-1
	c-0.7-0.3-1.3-0.5-1.8-0.8c0.1-0.6,0.2-1.4,0.2-2.3c0-0.9,0-1.9-0.2-2.9c-0.2-1-0.7-2.1-1.3-3.1c-0.7-1-1.6-2-2.9-3
	c-0.6-0.4-1.3-0.8-2.2-1.2c-0.8-0.4-1.7-0.7-2.7-1c-1.9-0.6-4.1-1.1-6.2-1.6c-4.3-0.9-8.4-1.5-10.2-1.7c0.6,2,2.2,6.6,4.6,11
	c2.3,4.4,5.4,8.5,8.1,10.1c0.3,0.2,0.6,0.3,0.9,0.5c2.6,1.2,4.9,1,6.7,0.2c1.8-0.7,3.2-2,4-2.8c0.6,0.3,1.2,0.7,1.8,1.1
	c0.7,0.4,1.4,0.8,2.1,1.2c1.4,0.8,2.7,1.7,3.6,2.4c0,0,0.4,1,1,2.5c0.3,0.7,0.6,1.6,1,2.5c0.4,0.9,0.8,1.9,1.3,2.8
	c0.2,0.5,0.4,1,0.7,1.4c0.2,0.5,0.5,0.9,0.7,1.4c0.5,0.9,0.9,1.7,1.2,2.4c0.4,0.7,0.7,1.3,0.9,1.7c0.2,0.4,0.4,0.6,0.4,0.6h0
	c0,0,0.3,0.5,0.7,1.3c0.4,0.8,1,1.8,1.7,2.8c0.6,1,1.3,2,1.8,2.8c0.2,0.4,0.5,0.7,0.6,0.9c0.1,0.2,0.2,0.3,0.2,0.3
	c-1.8,0-3.5-0.2-4.9-0.3c-0.1-1.2-0.5-3.1-1.5-5c-0.5-0.9-1.2-1.8-2.2-2.6c-0.9-0.8-2.1-1.5-3.7-1.9c-2.8-0.8-7.4-0.7-11.7-0.3
	c-4.4,0.4-8.5,1.1-10.2,1.4c0.6,0.9,1.6,2.3,2.9,3.9c0.3,0.4,0.7,0.8,1,1.3c0.4,0.4,0.8,0.9,1.2,1.3c0.8,0.9,1.7,1.8,2.5,2.7
	c0.9,0.9,1.8,1.7,2.8,2.5c0.9,0.8,1.9,1.5,2.8,2.2c1.9,1.3,3.7,2.2,5.1,2.5c1.6,0.4,3,0.4,4.2,0.1c1.2-0.3,2.2-0.8,3-1.5
	c1.7-1.3,2.7-3,3.2-4.1c1.3,0.3,2.9,0.7,4.5,1.1c0.8,0.2,1.5,0.4,2.3,0.6c0.7,0.2,1.4,0.4,2,0.6c0,0,0.5,0.7,1.3,1.7
	c0.8,1,1.9,2.3,3.1,3.6c0.6,0.6,1.1,1.3,1.7,1.9c0.6,0.6,1.1,1.1,1.5,1.6c0.9,0.9,1.5,1.6,1.5,1.6l0,0c0,0,0.1,0.1,0.2,0.2
	c0.2,0.1,0.4,0.4,0.6,0.6c0.5,0.5,1.2,1.2,1.9,1.8c0.3,0.3,0.7,0.7,1,1c0.3,0.3,0.7,0.6,0.9,0.8c0.6,0.5,0.9,0.8,0.9,0.8l1.3,1.1
	c-0.9,0.2-1.9,0.5-2.8,0.6c-0.7,0.1-1.4,0.3-2,0.3c-0.5-1.1-1.3-2.9-2.8-4.4c-0.4-0.4-0.8-0.7-1.3-1c-0.4-0.3-1-0.6-1.5-0.9
	c-1.1-0.5-2.5-0.8-4.1-0.9c-2.9-0.1-7.2,1.3-11.4,2.9c-4.1,1.6-7.9,3.3-9.4,4.1c0.4,0.3,0.9,0.8,1.6,1.3c0.6,0.5,1.4,1.1,2.3,1.7
	c0.9,0.6,1.8,1.2,2.8,1.9c1,0.7,2.1,1.3,3.2,1.9c1.1,0.6,2.2,1.2,3.3,1.7c1.1,0.5,2.2,0.9,3.3,1.3c1.1,0.4,2.1,0.7,3,0.9
	c1,0.2,1.8,0.3,2.6,0.2c0.4,0,0.7,0,1-0.1c2.9-0.4,4.6-1.8,5.8-3.4c1.1-1.6,1.6-3.4,1.9-4.6c2.6,0,6.6-0.3,9-0.1
	c0,0,0.2,0.2,0.6,0.4c0.4,0.3,0.9,0.7,1.6,1.1c0.7,0.5,1.4,1,2.2,1.6c0.8,0.6,1.7,1.1,2.6,1.7c1.8,1.2,3.6,2.2,5,3
	c1.4,0.8,2.3,1.3,2.3,1.3v0c0,0,0.5,0.3,1.3,0.7c0.8,0.4,1.8,1,2.9,1.5c1.1,0.5,2.2,1,3,1.4c0.4,0.2,0.8,0.3,1,0.4
	c0.2,0.1,0.4,0.2,0.4,0.2c-1.5,0.9-3.1,1.7-4.3,2.3c-0.4-0.5-0.9-1.1-1.6-1.7c-0.7-0.6-1.4-1.2-2.4-1.7c-0.9-0.5-2-0.8-3.2-1
	c-1.2-0.2-2.6-0.1-4.2,0.4c-0.7,0.2-1.5,0.5-2.3,0.9c-0.8,0.4-1.6,0.9-2.5,1.4c-1.7,1.1-3.5,2.4-5.3,3.8c-3.4,2.7-6.6,5.5-7.8,6.7
	c0.9,0.4,2.6,1,4.5,1.7c2,0.7,4.4,1.3,6.8,1.9c4.9,1.1,10,1.4,12.9,0.3c1.6-0.6,2.7-1.3,3.6-2.2c0.9-0.9,1.4-1.9,1.8-2.9
	c0.7-2,0.7-3.9,0.5-5.2c1.2-0.4,2.8-1,4.3-1.5c1.5-0.5,3-1,4.2-1.2c0,0,0.8,0.3,2.1,0.7c0.6,0.2,1.3,0.5,2.1,0.7
	c0.8,0.2,1.6,0.5,2.4,0.7c0.8,0.2,1.7,0.5,2.4,0.7c0.8,0.2,1.5,0.4,2.2,0.5c1.3,0.3,2.1,0.5,2.1,0.5v0c0,0,0.5,0.1,1.2,0.3
	c0.7,0.1,1.7,0.3,2.6,0.5c1,0.2,1.9,0.3,2.6,0.5c0.7,0.1,1.2,0.2,1.2,0.2l1.7,0.2c-0.7,0.7-1.4,1.4-2.1,2.1c-0.5,0.5-1,1-1.5,1.4
	c-1-0.7-2.7-1.8-4.7-2.2c-1-0.2-2.2-0.3-3.4-0.1c-1.2,0.2-2.5,0.7-3.9,1.5c-2.5,1.5-5.4,5.1-8,8.6c-2.6,3.5-4.9,7-5.8,8.5
	c0.5,0.1,1.2,0.1,2,0.2c0.8,0.1,1.8,0.2,2.8,0.2c1,0,2.2,0.1,3.4,0.1c0.6,0,1.2,0,1.8,0c0.6,0,1.2-0.1,1.9-0.1
	c5-0.3,10-1.4,12.5-3.2c0.3-0.2,0.6-0.4,0.8-0.6c2.2-1.9,2.9-4.1,3-6.1c0.1-2-0.5-3.7-0.9-4.8c1.1-0.7,2.4-1.7,3.8-2.6
	c1.3-0.9,2.7-1.8,3.7-2.4c0,0,1.1,0.1,2.7,0.2c1.6,0,3.7,0.1,5.8,0.1c1.1,0,2.1-0.1,3.1-0.1c1,0,1.9,0,2.7-0.1
	c1.6-0.1,2.6-0.2,2.6-0.2v0c0,0,0.6,0,1.5-0.1c0.9-0.1,2.1-0.3,3.3-0.4c1.2-0.2,2.4-0.3,3.2-0.4c0.9-0.2,1.5-0.3,1.5-0.3
	c-0.7,1.6-1.6,3.2-2.4,4.4c-1.2-0.4-3.1-0.9-5.2-0.7c-1,0.1-2.1,0.3-3.2,0.9c-1.1,0.6-2.2,1.4-3.3,2.6c-1.9,2.1-3.7,6.5-5.1,10.6
	c-1.4,4.1-2.6,8.1-3,9.8c0.5-0.1,1.2-0.2,2-0.4c0.8-0.2,1.7-0.3,2.7-0.6c1-0.3,2.1-0.6,3.2-0.9c1.1-0.4,2.3-0.7,3.5-1.2
	c1.2-0.5,2.3-0.9,3.4-1.5c1.1-0.5,2.2-1,3.1-1.6c1.9-1.2,3.5-2.4,4.5-3.6c2-2.7,2.2-5.2,1.8-7.2c-0.5-2-1.6-3.7-2.4-4.7
	c0.8-1,1.8-2.3,2.8-3.6c1-1.2,2-2.5,2.9-3.3c0,0,0.8-0.2,2.1-0.5c1.3-0.3,2.9-0.8,4.6-1.3c0.4-0.1,0.8-0.2,1.2-0.4
	c0.4-0.1,0.8-0.3,1.2-0.4c0.8-0.3,1.5-0.5,2.1-0.7c0.6-0.2,1.1-0.4,1.5-0.5c0.4-0.1,0.6-0.2,0.6-0.2v0c0,0,1.8-0.7,3.6-1.4
	c0.9-0.3,1.8-0.8,2.5-1.1c0.7-0.3,1.1-0.5,1.1-0.5l1.6-0.7c-0.2,1-0.4,1.9-0.6,2.8c-0.2,0.7-0.3,1.4-0.5,2c-0.6,0-1.4,0-2.3,0.1
	c-0.9,0.1-1.9,0.3-2.9,0.6c-1.9,0.8-3.9,2.2-5.4,5.1c-0.6,1.3-1.1,3.1-1.4,5.1c-0.3,2-0.5,4.2-0.7,6.4c-0.3,4.4-0.3,8.5-0.2,10.3
	c0.9-0.4,2.5-1.2,4.3-2.3c0.9-0.5,1.9-1.1,2.9-1.7c1-0.7,2-1.4,3-2.1c2-1.4,3.9-3.1,5.5-4.7c1.6-1.6,2.7-3.3,3.3-4.7
	c0.1-0.3,0.2-0.7,0.3-1c0.8-2.8,0.3-5-0.7-6.7c-1-1.7-2.4-2.9-3.4-3.6c0.3-0.6,0.5-1.3,0.8-2c0.3-0.7,0.6-1.5,0.9-2.2
	c0.6-1.5,1.3-2.9,1.9-4c0,0,0.9-0.5,2.3-1.3c0.7-0.4,1.5-0.9,2.3-1.4c0.8-0.5,1.7-1.1,2.6-1.7c0.4-0.3,0.9-0.6,1.3-0.9
	c0.4-0.3,0.9-0.6,1.3-0.9c0.8-0.6,1.6-1.1,2.2-1.6c0.3-0.2,0.6-0.4,0.9-0.6c0.2-0.2,0.5-0.4,0.7-0.5c0.4-0.3,0.6-0.5,0.6-0.5l0,0
	c0,0,0.5-0.4,1.2-0.9c0.7-0.6,1.7-1.3,2.5-2.1c0.9-0.8,1.8-1.6,2.5-2.2c0.3-0.3,0.6-0.5,0.8-0.7c0.2-0.2,0.3-0.3,0.3-0.3
	c0.3,1.7,0.3,3.5,0.3,4.9c-1.2,0.3-3,1-4.7,2.2c-0.8,0.6-1.6,1.5-2.2,2.5c-0.7,1-1.2,2.3-1.4,3.9c-0.4,2.9,0.4,7.4,1.4,11.6
	c1,4.3,2.3,8.3,2.8,9.9c1.5-1.4,5-4.8,7.9-8.8c0.8-1,1.4-2,2.1-3.1c0.6-1,1.2-2.1,1.8-3.1c1-2,1.6-3.9,1.8-5.5
	c0.3-3.3-0.9-5.5-2.4-7c-1.5-1.5-3.3-2.2-4.5-2.6c0.1-1.3,0.3-3,0.4-4.6c0.2-1.6,0.4-3.2,0.6-4.4c0,0,0.6-0.6,1.5-1.6
	c0.4-0.5,1-1,1.5-1.6c0.5-0.6,1.1-1.3,1.7-1.9c0.6-0.7,1.2-1.3,1.7-1.9c0.5-0.6,1-1.2,1.4-1.7c0.8-1,1.3-1.7,1.3-1.7l0,0
	c0,0,0.1-0.1,0.2-0.3c0.1-0.2,0.3-0.4,0.5-0.7c0.4-0.6,1-1.4,1.6-2.2c0.3-0.4,0.6-0.8,0.8-1.2c0.3-0.4,0.5-0.7,0.7-1
	c0.4-0.6,0.7-1,0.7-1l0.9-1.5c0.4,0.9,0.7,1.8,1,2.7c0.2,0.7,0.4,1.3,0.6,1.9c-1,0.6-2.7,1.7-4,3.4c-0.3,0.4-0.6,0.9-0.8,1.4
	c-0.3,0.5-0.5,1-0.7,1.6c-0.3,1.2-0.5,2.6-0.3,4.2c0.3,2.9,2.3,7,4.5,10.8c2.1,3.8,4.4,7.3,5.3,8.8c0.6-0.9,1.5-2.3,2.4-4.2
	c1-1.9,2-4.1,2.9-6.4c0.4-1.2,0.9-2.3,1.2-3.5c0.3-1.2,0.6-2.4,0.8-3.5c0.2-1.1,0.4-2.2,0.4-3.1c0-1,0-1.9-0.2-2.6
	c-0.1-0.4-0.2-0.7-0.2-1c-0.8-2.8-2.5-4.3-4.2-5.2c-1.7-0.9-3.6-1.1-4.8-1.2c-0.2-1.3-0.5-2.9-0.8-4.5c-0.3-1.6-0.5-3.2-0.6-4.4
	c0,0,0.1-0.2,0.4-0.6c0.2-0.4,0.5-1,0.9-1.7c0.4-0.7,0.8-1.5,1.2-2.4c0.5-0.9,0.9-1.9,1.3-2.8c0.4-1,0.9-1.9,1.3-2.9
	c0.4-0.9,0.7-1.8,1-2.5c0.3-0.7,0.5-1.4,0.7-1.8c0.2-0.4,0.2-0.7,0.2-0.7h0c0,0,0.2-0.6,0.5-1.4c0.3-0.8,0.7-2,1-3.1
	c0.7-2.3,1.3-4.6,1.3-4.6c1.1,1.3,2.2,2.8,2.9,3.9c-0.4,0.4-0.9,1.1-1.4,1.8c-0.5,0.7-1,1.6-1.4,2.6c-0.2,0.5-0.3,1-0.4,1.6
	c-0.1,0.6-0.1,1.1-0.1,1.7c0,1.2,0.3,2.6,1,4.1c0.6,1.4,1.7,2.8,3,4.4c1.3,1.5,2.9,3.1,4.5,4.7c1.6,1.5,3.2,2.9,4.5,4.1
	c1.4,1.2,2.5,2.1,3.2,2.7c0.3-1,0.6-2.7,1-4.7c0.2-1,0.4-2.1,0.5-3.3c0.1-1.2,0.3-2.4,0.4-3.7c0.2-2.5,0.1-5-0.1-7.3
	c-0.2-2.2-0.8-4.2-1.4-5.6c-1.6-2.9-3.7-4.1-5.8-4.6c-2.1-0.4-4-0.1-5.3,0.2c-0.3-0.6-0.6-1.2-1-1.9c-0.4-0.7-0.7-1.4-1.1-2.1
	c-0.7-1.4-1.4-2.9-1.8-4c0,0,0.2-0.9,0.4-2.1c0.2-1.3,0.6-3,0.8-4.7c0.1-0.8,0.2-1.7,0.3-2.5c0.1-0.4,0.1-0.8,0.1-1.2
	c0-0.4,0.1-0.7,0.1-1c0.1-1.3,0.2-2.2,0.2-2.2h0c0,0,0-0.5,0.1-1.2c0-0.4,0.1-0.8,0.1-1.2c0-0.5,0-0.9,0-1.4c0-1.9,0.1-3.9,0.1-3.9
	l0-1.7c0.8,0.6,1.6,1.2,2.4,1.7c0.6,0.4,1.1,0.9,1.5,1.3c-0.6,1.1-1.3,2.9-1.5,5c-0.1,1,0,2.2,0.4,3.3c0.2,0.6,0.4,1.2,0.8,1.8
	c0.3,0.6,0.7,1.2,1.2,1.9c1.8,2.3,5.8,4.6,9.6,6.7c3.8,2.1,7.6,3.8,9.2,4.5c0-1-0.1-2.8-0.2-4.9c-0.2-2.1-0.5-4.5-1-7
	c-0.6-2.4-1.2-4.9-2-7c-0.9-2.1-1.8-3.8-2.9-4.9c-0.2-0.3-0.5-0.5-0.7-0.7c-2.2-1.9-4.5-2.3-6.4-2.1c-1.9,0.2-3.6,1-4.6,1.6
	c-0.9-1-2-2.2-3.1-3.4c-0.5-0.6-1-1.2-1.5-1.8c-0.5-0.6-0.9-1.1-1.3-1.6c0,0-0.1-1.1-0.2-2.6c0-0.8-0.2-1.7-0.3-2.7
	c-0.1-1-0.3-2-0.4-3.1c-0.3-2.1-0.7-4.2-1-5.8c-0.4-1.6-0.6-2.6-0.6-2.6l0,0c0,0-0.1-0.6-0.3-1.5c-0.2-0.9-0.5-2-0.8-3.2
	c-0.3-1.1-0.6-2.3-0.9-3.2c-0.3-0.8-0.5-1.4-0.5-1.4c0.8,0.3,1.7,0.5,2.5,0.8c0.8,0.3,1.5,0.6,2.2,0.9c-0.1,0.6-0.2,1.4-0.2,2.3
	c0,0.9,0.1,1.9,0.3,2.9c0.4,2.1,1.7,4.2,4.3,6c1.2,0.8,2.9,1.5,4.9,2.1c2,0.6,4.1,1.1,6.3,1.5c4.3,0.8,8.4,1.4,10.2,1.6
	c-0.3-1-0.9-2.6-1.7-4.6c-0.8-1.9-1.9-4.2-3-6.4c-1.3-2.2-2.6-4.3-4-6.1c-1.5-1.7-2.9-3.1-4.2-3.9c-1.4-0.8-2.8-1.2-4-1.2
	c-1.2-0.1-2.3,0.2-3.3,0.5c-2,0.8-3.4,2.1-4.3,3c-1.2-0.6-2.6-1.5-4-2.3c-0.7-0.4-1.4-0.8-2-1.2c-0.6-0.4-1.2-0.8-1.7-1.2
	c0,0-0.3-0.8-0.8-2c-0.4-1.2-1.2-2.8-1.9-4.4c-0.7-1.6-1.5-3.1-2.1-4.3c-0.3-0.6-0.5-1.1-0.7-1.4c-0.2-0.3-0.3-0.5-0.3-0.5l0,0
	c0,0-1-1.7-1.9-3.4c-0.5-0.8-1-1.7-1.4-2.3c-0.4-0.6-0.7-1-0.7-1l-0.9-1.5c1,0,2,0.1,2.9,0.2c0.7,0.1,1.4,0.2,2,0.2
	c0,0.6,0.2,1.4,0.4,2.3c0.2,0.9,0.5,1.8,1,2.7c0.3,0.5,0.6,0.9,0.9,1.3c0.4,0.4,0.7,0.9,1.2,1.3c0.9,0.8,2.1,1.5,3.7,2
	c2.8,0.9,7.3,0.8,11.7,0.5c2.2-0.2,4.3-0.4,6.1-0.6c1.8-0.2,3.2-0.4,4.1-0.6c-0.3-0.4-0.7-1-1.1-1.7c-0.5-0.7-1.1-1.4-1.7-2.3
	c-0.6-0.8-1.4-1.7-2.1-2.6c-0.8-0.9-1.6-1.8-2.5-2.7c-0.9-0.9-1.8-1.8-2.7-2.6c-0.9-0.8-1.9-1.5-2.8-2.2c-0.9-0.7-1.8-1.2-2.7-1.7
	c-0.9-0.4-1.7-0.8-2.4-0.9c-0.4-0.1-0.7-0.1-1-0.2c-2.9-0.4-5,0.5-6.5,1.7c-1.5,1.2-2.5,2.8-3.1,3.8c-2.5-0.7-6.4-1.5-8.6-2.5
	c0,0-0.1-0.2-0.4-0.6c-0.3-0.4-0.7-0.9-1.2-1.5c-0.5-0.6-1.1-1.4-1.7-2.1c-0.7-0.7-1.3-1.6-2-2.4c-1.4-1.6-2.9-3.1-4-4.3
	c-0.5-0.6-1-1.1-1.3-1.4c-0.3-0.3-0.5-0.5-0.5-0.5h0c0,0-0.4-0.4-1.1-1c-0.7-0.6-1.5-1.5-2.4-2.2c-0.9-0.8-1.8-1.6-2.5-2.1
	c-0.7-0.6-1.2-1-1.2-1c1.7-0.5,3.4-0.8,4.8-1c0.5,1.1,1.4,2.9,2.8,4.3c0.8,0.7,1.7,1.4,2.8,1.8c1.1,0.5,2.5,0.8,4.1,0.8
	c2.9,0,7.2-1.4,11.3-3c4.1-1.6,7.9-3.4,9.4-4.2c-1.6-1.3-5.5-4.3-9.9-6.6c-1.1-0.6-2.2-1.1-3.3-1.6c-1.1-0.5-2.2-0.9-3.3-1.3
	c-2.1-0.7-4.1-1.1-5.6-1c-3.3,0.2-5.3,1.7-6.6,3.4c-1.2,1.7-1.7,3.6-2,4.8c-1.3,0-3,0.2-4.6,0.2c-1.6,0.1-3.2,0.1-4.4,0
	c0,0-0.7-0.5-1.8-1.2c-0.5-0.4-1.1-0.8-1.8-1.3c-0.7-0.4-1.4-0.9-2.1-1.4c-0.7-0.5-1.4-0.9-2.1-1.4c-0.7-0.4-1.4-0.8-1.9-1.1
	c-1.1-0.6-1.9-1.1-1.9-1.1v0c0,0-0.4-0.2-1.1-0.6c-0.7-0.3-1.5-0.8-2.4-1.2c-0.9-0.4-1.7-0.9-2.4-1.2c-0.7-0.3-1.1-0.5-1.1-0.5
	l-1.6-0.7c0.8-0.5,1.7-1,2.6-1.4c0.6-0.3,1.3-0.6,1.8-0.9c0.2,0.2,0.4,0.5,0.7,0.8c0.3,0.3,0.5,0.6,0.9,0.9c0.6,0.6,1.4,1.2,2.4,1.7
	c0.9,0.5,2,0.9,3.2,1.1c1.2,0.2,2.6,0.1,4.2-0.3c2.8-0.7,6.6-3.3,10.1-5.9c3.5-2.6,6.6-5.3,7.9-6.5c-0.9-0.4-2.5-1.1-4.5-1.8
	c-2-0.7-4.3-1.5-6.8-2c-1.2-0.3-2.4-0.5-3.6-0.7c-1.2-0.2-2.4-0.3-3.5-0.3c-1.1-0.1-2.2-0.1-3.1,0c-1,0.1-1.8,0.3-2.6,0.5
	c-0.3,0.1-0.7,0.2-1,0.4c-2.7,1.2-3.9,3.1-4.6,4.9c-0.6,1.9-0.6,3.7-0.5,4.9c-1.2,0.4-2.8,0.9-4.3,1.4c-1.5,0.5-3.1,1-4.2,1.2
	c0,0-1-0.4-2.5-0.9c-1.5-0.5-3.5-1.2-5.6-1.8c-1-0.3-2-0.6-3-0.8c-1-0.2-1.9-0.4-2.7-0.6c-0.8-0.2-1.4-0.3-1.9-0.4
	c-0.5-0.1-0.7-0.2-0.7-0.2v0c0,0-2.4-0.4-4.7-0.8c-1.2-0.2-2.4-0.3-3.2-0.4c-0.9-0.1-1.5-0.2-1.5-0.2c1.2-1.3,2.4-2.5,3.5-3.5
	c1,0.7,2.7,1.7,4.7,2.1c2.1,0.3,4.5,0.3,7.3-1.5c2.5-1.5,5.3-5.1,7.9-8.7c2.5-3.6,4.8-7.1,5.6-8.6c-0.5-0.1-1.2-0.2-2-0.2
	c-0.8-0.1-1.8-0.1-2.8-0.1c-1,0-2.2-0.1-3.4-0.1c-1.2,0-2.4,0.1-3.7,0.2c-1.2,0.1-2.5,0.2-3.7,0.4c-1.2,0.2-2.4,0.4-3.5,0.7
	c-1.1,0.3-2.1,0.6-3,1c-0.9,0.4-1.7,0.8-2.3,1.3c-2.7,2-3.6,4.3-3.7,6.4c-0.1,2.1,0.5,4,1,5.2c-2.1,1.5-5.3,3.9-7.4,5
	c0,0-0.9-0.1-2.2-0.1c-1.3,0-3-0.1-4.7-0.1c-1.7,0-3.5,0.1-4.8,0.1c-1.3,0.1-2.2,0.2-2.2,0.2v0c0,0-0.5,0-1.2,0.1
	c-0.7,0.1-1.7,0.1-2.7,0.2c-1.9,0.2-3.9,0.5-3.9,0.5s-0.4,0.1-0.9,0.1c-0.4,0.1-0.9,0.1-0.9,0.1c0.4-0.9,0.9-1.8,1.4-2.6
	c0.4-0.6,0.7-1.2,1-1.7c1.2,0.4,3,0.9,5.1,0.8c1.1-0.1,2.2-0.3,3.3-0.9c1.1-0.5,2.2-1.3,3.3-2.5c1-1.1,1.9-2.7,2.8-4.5
	c0.9-1.8,1.7-3.9,2.5-5.9c1.5-4.1,2.7-8.1,3.1-9.8c-1,0.2-2.7,0.5-4.8,0.9c-2,0.5-4.4,1.2-6.7,2c-2.3,0.8-4.6,1.9-6.6,3
	C135,25.6,133.4,26.8,132.4,28z M103.8,37.5c1.1-2.1,0.4-2.1,3.2-4.3c2.8-2.2,5.1-4.7,5.1-4.7s-5.5,7-5.4,11.6c0.1,4.5-4.2,9-4.2,9
	C102.9,45.8,102.7,39.5,103.8,37.5z M53.8,90.9c-0.7-2.9-2.9-8.3-2.9-10.7c0-2.4-0.4-2,0.5-5.3c0.9-3.3,1.5-6.6,1.5-6.6
	s-1,8.8,0.5,12.8C54.9,84.9,53.8,90.9,53.8,90.9z M32.5,106.4c-0.5-2.9,0-10.3,0-10.3s6.3,15.8,6.9,19.9
	C39.4,116,33,109.3,32.5,106.4z M23.8,136c0,0,9.5,3.9,10.5,12.9C34.3,149,26.1,142.3,23.8,136z M29.7,177.5
	c-1.8-0.8-1.8-0.1-3.7-2.5c-1.9-2.4-4-4.4-4-4.4s6,4.5,9.9,3.8c3.9-0.7,7.7,2.9,7.7,2.9C36.9,177.3,31.5,178.3,29.7,177.5z
	 M42.8,211.7c-1.8-0.8-1.8-0.1-3.7-2.5c-1.9-2.4-4-4.4-4-4.4s6,4.4,9.9,3.8c3.9-0.7,7.7,2.9,7.7,2.9C50,211.5,44.6,212.5,42.8,211.7
	z M63,238.6c-1.9-0.4-1.8,0.3-4.2-1.7c-2.4-1.9-4.9-3.3-4.9-3.3s6.8,3,10.5,1.5c3.7-1.5,8.1,1.1,8.1,1.1
	C69.9,236.8,64.9,239,63,238.6z M92.2,261.2c-1.9,0.3-1.6,0.9-4.5-0.1c-2.9-1-5.8-1.4-5.8-1.4s7.5,0.4,10.3-2.3c2.9-2.7,8-1.9,8-1.9
	C98.1,257,94.2,260.9,92.2,261.2z M125,272c-1.7,1.1-1.1,1.4-4.1,1.8c-3,0.3-5.8,1.1-5.8,1.1s7-2.7,8.5-6.4c1.5-3.7,6.6-5,6.6-5
	C128.6,265.7,126.6,270.9,125,272z M161.4,271c-1,1.7-0.3,1.8-2.9,3.4c-2.6,1.6-4.7,3.6-4.7,3.6s5-5.5,4.7-9.5
	c-0.3-3.9,3.6-7.4,3.6-7.4C161.9,263.8,162.4,269.3,161.4,271z M192.1,265.6c-1,1.7-0.3,1.8-2.9,3.4c-2.6,1.6-4.7,3.6-4.7,3.6
	s5-5.5,4.7-9.5c-0.3-3.9,3.6-7.4,3.6-7.4C192.6,258.5,193.1,264,192.1,265.6z M244.2,213.1c0.8,3,3.5,8.7,3.3,11.1
	c-0.2,2.4,0.4,2.1-1.3,5.2c-1.7,3.1-2.9,6.4-2.9,6.4s2.4-8.6,0.5-12.8C241.9,218.9,244.2,213.1,244.2,213.1z M265.3,192.2
	c0.7,2.3,1.2,1.8,0.8,5.3c-0.4,3.5-0.3,7-0.3,7s-1-8.9-4.3-12.1c-3.2-3.1-3.3-9.3-3.3-9.3C260,185.7,264.6,189.9,265.3,192.2z
	 M271.7,159.3c1.6,1.7,1.9,1,3.1,4.4c1.3,3.3,2.9,6.3,2.9,6.3s-5-7.4-9.4-8.7c-4.3-1.3-7.3-6.7-7.3-6.7
	C264,156,270.1,157.6,271.7,159.3z M269.1,123.9c1.8,1.5,2,0.9,3.6,4c1.6,3.2,3.6,6,3.6,6s-5.7-6.9-10.2-7.7c-4.4-0.8-7.9-6-7.9-6
	C261.1,121.3,267.3,122.4,269.1,123.9z M256.9,90c2.2,1,2.1,0.2,4.6,2.8c2.4,2.6,5.2,4.7,5.2,4.7s-7.5-4.9-12-4.4
	c-4.5,0.5-9.3-3.4-9.3-3.4C248.5,89.8,254.7,89,256.9,90z M233.8,63.3c2.4,0.3,2.1-0.4,5.2,1.3c3.1,1.7,6.3,3,6.3,3
	s-8.6-2.5-12.8-0.7c-4.2,1.8-9.9-0.5-9.9-0.5C225.7,65.6,231.5,63,233.8,63.3z M207.2,44.2c2.3-0.4,1.9-1,5.4-0.2
	c3.5,0.8,6.9,1,6.9,1s-9,0.1-12.4,3.1c-3.4,2.9-9.6,2.4-9.6,2.4C200.1,48.8,204.9,44.6,207.2,44.2z M173.9,31.8
	c2.1-1.1,1.5-1.5,5.1-1.8c3.5-0.3,6.9-1.1,6.9-1.1s-8.5,2.7-11,6.6c-2.4,3.8-8.5,5.1-8.5,5.1C168.5,38.3,171.8,32.9,173.9,31.8z
	 M76.5,52.8c0.4-2.3,0-2.1,1.4-5.1c1.5-3.1,2.6-6.3,2.6-6.3S78,49.9,78.8,54c0.7,4.1-1.4,9.8-1.4,9.8C77.2,60.8,76.1,55.1,76.5,52.8
	z M73.6,209.5c0,0,0.4-7.3,1.5-9.5c1.1-2.2,6.2-9.7,6.3-10c0.2-0.3-3.3,9.5-4,11.2C76.6,202.9,73.6,209.5,73.6,209.5z M91.6,217.2
	c0.4-2.4,2.9-11.2,2.9-11.5c0.1-0.3-0.2,10-0.4,11.9c-0.2,1.9-1,9.1-1,9.1S91.2,219.7,91.6,217.2z M226,246.9
	c-0.2,2.4,0.4,2.1-1.3,5.2c-1.7,3.1-2.9,6.4-2.9,6.4s2.4-8.6,0.5-12.8c-1.9-4.1,0.4-9.9,0.4-9.9C223.5,238.8,226.2,244.5,226,246.9z
	 M225.3,93.5c-0.2,2.8,0,5.1-0.7,8c-0.7,2.9-1.4,3.4-2.2,5.5c-0.9,2.2-3,4.6-3.4,5.4c-0.4,0.7,3.5-9.3,3.8-14.2
	C223.3,93.3,225.3,93.5,225.3,93.5z M205.1,78c-0.5-4.9,1.6-5,1.6-5c0.3,2.8,0.9,5,0.7,8c-0.2,3-0.8,3.5-1.3,5.8
	c-0.5,2.3-2.2,5.1-2.4,5.9C203.6,93.4,205.6,82.9,205.1,78z M133.2,50.5c0.5-0.1,0.9-0.2,1.2-0.2c0.3,0,0.5-0.1,0.5-0.1
	s1.1-0.1,2.2-0.3c0.6-0.1,1.1-0.1,1.5-0.2c0.4-0.1,0.7-0.1,0.7-0.1v0c0,0,1.7-0.1,3.4-0.3c0.8-0.1,1.7-0.1,2.3-0.1
	c0.6,0,1.1,0,1.1,0c1,0.6,2.2,1.6,3.3,2.6c1.1,1.1,2.2,2.2,3,3.1c-0.6,1.1-1.3,2.9-1.4,5c-0.1,2.1,0.4,4.5,1.9,6.8
	c0.7,1,1.8,2.2,3,3.2c0.6,0.5,1.3,1,2,1.5c0.7,0.5,1.3,1,2,1.5c1.3,0.9,2.6,1.8,3.7,2.5c0.5,0.4,1,0.6,1.4,0.9
	c0.4,0.3,0.8,0.5,1,0.7c0.2-1.7,0.5-5.8,0.3-10.1c-0.1-4.2-0.8-8.6-2.2-11c-0.8-1.3-1.7-2.1-2.7-2.7c-1-0.6-1.9-0.9-2.9-1
	c-1.9-0.1-3.6,0.5-4.6,1c-0.8-1.1-1.7-2.5-2.7-4c0,0,1.2,0,2.9,0.1c0.9,0,1.9,0.1,3,0.2c0.5,0,1.1,0.1,1.7,0.1
	c0.6,0,1.1,0.1,1.7,0.2c2.3,0.3,4.6,0.6,6.3,0.9c1.7,0.3,2.9,0.5,2.9,0.5v0c0,0,0.1,0,0.3,0.1c0.2,0,0.4,0.1,0.7,0.2
	c0.6,0.1,1.4,0.3,2.3,0.5c1.7,0.3,3.3,0.8,3.3,0.8c0.8,0.9,1.6,2.1,2.4,3.4c0.8,1.3,1.4,2.7,1.9,3.8c-0.9,0.9-2.1,2.4-2.8,4.3
	c-0.7,2-1,4.4-0.2,7.1c0.3,1.2,1,2.5,1.8,3.8c0.4,0.6,0.9,1.3,1.3,1.9c0.5,0.7,0.9,1.3,1.4,1.9c1.1,1.3,2.1,2.6,2.9,3.7
	c0.9,1,1.6,1.9,2,2.4c0.7-1.6,2.2-5.4,3.3-9.5c1.1-4.1,1.8-8.5,1.2-11.2c-0.3-1.3-0.8-2.2-1.4-3c-0.6-0.7-1.2-1.3-1.9-1.7
	c-0.7-0.4-1.4-0.7-2.1-0.8c-1.4-0.3-2.7-0.2-3.6-0.1c-0.4-1.3-0.9-2.9-1.4-4.6c0,0,0.7,0.2,1.6,0.6c0.5,0.2,1.1,0.3,1.7,0.6
	c0.6,0.2,1.3,0.5,1.9,0.7c1.3,0.5,2.6,1,3.5,1.5c0.9,0.4,1.6,0.7,1.6,0.7s1,0.4,2,0.9c1,0.5,2,1,2,1v0c0,0,0.4,0.2,0.9,0.5
	c0.6,0.3,1.3,0.7,2,1.1c1.5,0.8,2.9,1.7,2.9,1.7c0.5,1,1,2.5,1.4,4c0.4,1.5,0.7,3,0.8,4.2c-0.5,0.3-1.2,0.7-1.9,1.3
	c-0.7,0.6-1.4,1.3-2,2.1c-0.6,0.9-1.2,1.8-1.5,3c-0.4,1.1-0.6,2.4-0.6,3.8c0,2.6,1.3,5.9,2.5,8.9c0.3,0.8,0.6,1.5,0.9,2.2
	c0.3,0.7,0.6,1.4,0.8,1.9c0.5,1.2,1,2.1,1.2,2.7c0.5-0.7,1.4-1.8,2.4-3.3c1-1.4,2.2-3.2,3.3-5c1.1-1.8,2.1-3.8,2.8-5.6
	c0.4-0.9,0.7-1.8,0.9-2.6c0.2-0.8,0.3-1.6,0.4-2.2c0-1.5-0.3-2.8-0.7-3.8c-0.5-1-1.2-1.8-1.9-2.3c-0.8-0.6-1.6-1-2.3-1.2
	c-0.8-0.2-1.5-0.4-2.1-0.4c0-1.3,0-3.1-0.1-4.8c0,0,0.2,0.1,0.7,0.4c0.4,0.3,1,0.7,1.7,1.2c0.7,0.5,1.6,1.1,2.4,1.7
	c0.9,0.7,1.8,1.4,2.7,2.1l0.7,0.5c0.2,0.2,0.4,0.4,0.6,0.6c0.4,0.4,0.9,0.7,1.3,1.1c0.8,0.7,1.6,1.3,2.2,2c1.3,1.2,2.1,2,2.1,2l0,0
	c0,0,0.3,0.3,0.8,0.7c0.4,0.4,1,1.1,1.6,1.7c0.6,0.6,1.2,1.2,1.6,1.7c0.2,0.2,0.4,0.4,0.5,0.6C225,82.9,225,83,225,83
	c0.4,2.4,0.1,6.1-0.3,8.5c-1.2,0.3-3,0.9-4.7,2.1c-1.7,1.3-3.2,3.2-4,5.9c-0.2,0.6-0.3,1.2-0.4,1.9c-0.1,0.7-0.1,1.5-0.1,2.2
	c0,0.8,0,1.6,0.1,2.3c0.1,0.8,0.1,1.6,0.2,2.4c0.1,0.9,0.2,1.7,0.3,2.5c0.1,0.8,0.1,1.6,0.2,2.2c0.1,0.7,0.2,1.3,0.2,1.8
	c0.1,0.5,0.1,1,0.2,1.3c1.4-1,4.7-3.4,7.9-6.2c3.1-2.8,6.1-6.2,7-8.8c0.4-1.2,0.5-2.3,0.4-3.2c-0.1-0.9-0.3-1.7-0.6-2.5
	c-0.4-0.7-0.8-1.3-1.3-1.8c-1-1-2.1-1.7-3-2c0.4-1.3,0.8-3,1.3-4.6c0,0,0.4,0.5,1.1,1.4c0.7,0.8,1.5,1.9,2.3,3
	c0.8,1.1,1.6,2.2,2.2,3.1c0.6,0.9,0.9,1.5,0.9,1.5s0.6,0.9,1.2,1.9c0.3,0.5,0.6,0.9,0.8,1.3c0.2,0.4,0.3,0.6,0.3,0.6l0,0
	c0,0,0.2,0.4,0.5,0.9c0.3,0.6,0.7,1.3,1.1,2c0.8,1.5,1.5,3,1.5,3c-0.1,0.6-0.2,1.2-0.3,1.9c-0.2,0.7-0.4,1.4-0.7,2.2
	c-0.5,1.5-1.1,2.9-1.5,4c-1.2-0.1-3.2,0.1-5.1,0.8c-1,0.4-2,0.9-2.9,1.7c-0.5,0.4-0.9,0.8-1.3,1.3c-0.4,0.5-0.8,1-1.2,1.6
	c-0.7,1.1-1.2,2.5-1.6,4.1c-0.5,1.6-0.8,3.2-1.1,4.8c-0.2,0.8-0.3,1.6-0.4,2.3c-0.1,0.7-0.2,1.4-0.3,2.1c-0.2,1.3-0.4,2.3-0.4,2.9
	c1.6-0.6,5.4-2,9.2-3.9c1.9-1,3.8-2,5.4-3.2c1.6-1.1,2.9-2.3,3.7-3.4c0.8-1.2,1.3-2.5,1.4-3.6c0.1-1.1-0.1-2.1-0.4-3
	c-0.2-0.4-0.4-0.9-0.6-1.3c-0.2-0.4-0.5-0.7-0.7-1c-0.5-0.6-1.1-1.1-1.5-1.5c0.7-1.1,1.6-2.6,2.6-4.1c0,0,0.1,0.3,0.3,0.7
	c0.2,0.5,0.5,1.1,0.8,2c0.3,0.8,0.7,1.7,1.1,2.8c0.4,1,0.7,2.1,1.1,3.2c0.2,0.5,0.4,1.1,0.6,1.6c0.2,0.5,0.3,1.1,0.5,1.6
	c0.3,1,0.6,2,0.8,2.9c0.2,0.8,0.4,1.5,0.5,2c0.1,0.5,0.2,0.8,0.2,0.8l0,0c0,0,0.1,0.4,0.2,1c0.1,0.6,0.3,1.4,0.5,2.3
	c0.3,1.7,0.6,3.3,0.6,3.3c-0.4,1.1-1.3,2.4-2.2,3.6c-0.9,1.2-1.8,2.4-2.7,3.3c-1.1-0.4-3-0.9-5.1-0.7c-2.1,0.1-4.4,0.9-6.6,2.8
	c-1,0.8-1.8,2-2.6,3.2c-0.9,1.3-1.7,2.7-2.3,4.1c-0.9,1.5-1.5,3-2.1,4.2c-0.6,1.2-1.1,2.2-1.3,2.8c1.7-0.1,5.8-0.3,10-1
	c2.1-0.3,4.2-0.8,6.1-1.4c1.9-0.6,3.4-1.3,4.5-2.2c1-0.8,1.7-1.6,2.2-2.5c0.8-1.6,0.9-3.3,0.7-4.7c-0.3-1.4-1-2.5-1.4-3.3
	c1-0.9,2.3-2,3.7-3.1c0,0,0.1,0.7,0.2,1.7c0.1,1,0.2,2.4,0.3,3.8c0.1,1.4,0.1,2.8,0.1,3.8c0,1,0,1.7,0,1.7l-0.1,4.4h0
	c0,0,0,0.1,0,0.3c0,0.2,0,0.5,0,0.8c0,0.6-0.1,1.5-0.2,2.3c-0.1,0.8-0.1,1.7-0.2,2.3c0,0.3-0.1,0.6-0.1,0.8c0,0.2,0,0.3,0,0.3
	c-1.5,1.8-4.4,4.1-6.5,5.4c-1-0.7-2.6-1.7-4.7-2.1c-2.1-0.4-4.5-0.3-7.1,0.9c-0.6,0.3-1.2,0.6-1.8,1.1c-0.6,0.4-1.2,0.9-1.8,1.5
	c-0.6,0.5-1.2,1.1-1.8,1.7c-0.6,0.6-1.2,1.2-1.7,1.8c-0.6,0.6-1.1,1.2-1.6,1.7c-0.5,0.5-1,1.1-1.4,1.6c-0.4,0.5-0.8,0.9-1.1,1.3
	c-0.3,0.4-0.6,0.7-0.8,0.9c1.7,0.4,5.7,1.3,9.9,1.8c4.2,0.5,8.7,0.5,11.2-0.6c1.4-0.6,2.4-1.4,3.1-2.2c0.4-0.4,0.7-0.9,0.9-1.3
	c0.2-0.5,0.4-0.9,0.5-1.4c0.4-1.9,0.1-3.6-0.3-4.7c1.2-0.6,2.8-1.3,4.3-2.1c0,0-0.2,1.1-0.5,2.9c-0.1,0.4-0.2,0.9-0.3,1.4
	c-0.1,0.5-0.2,1-0.4,1.5c-0.2,1-0.5,2.2-0.8,3.3c-0.3,1.1-0.6,2.2-0.9,3.3c-0.1,0.5-0.3,1-0.4,1.5c-0.2,0.5-0.3,0.9-0.5,1.3
	c-0.6,1.6-0.9,2.7-0.9,2.7l0,0c0,0,0,0.1-0.1,0.3c-0.1,0.2-0.1,0.4-0.3,0.7c-0.2,0.6-0.5,1.4-0.8,2.2c-0.3,0.8-0.6,1.6-0.9,2.2
	c-0.3,0.6-0.4,1-0.4,1c-1,0.6-2.4,1.3-3.8,1.9c-1.4,0.6-2.9,1-4.1,1.3c-0.7-1-2-2.4-3.9-3.4c-1.8-1-4.2-1.6-7-1.2
	c-0.6,0.1-1.2,0.3-1.9,0.5c-0.7,0.2-1.4,0.5-2.1,0.8c-0.7,0.3-1.4,0.7-2.1,1c-0.7,0.4-1.4,0.7-2.1,1.1c-0.8,0.4-1.4,0.9-2.1,1.3
	c-0.7,0.4-1.3,0.8-1.9,1.1c-1.1,0.7-2.1,1.3-2.7,1.6c1.5,0.9,5,2.9,8.9,4.6c3.9,1.7,8.1,3,10.9,2.7c1.3-0.1,2.3-0.5,3.1-0.9
	c0.8-0.4,1.5-1,2-1.6c0.5-0.6,0.8-1.3,1.1-2c0.5-1.3,0.6-2.6,0.6-3.5c1.3-0.2,3-0.5,4.8-0.7c0,0-0.3,0.6-0.8,1.5
	c-0.2,0.5-0.5,1-0.8,1.6c-0.3,0.6-0.7,1.2-1,1.8c-0.7,1.2-1.3,2.4-1.9,3.3c-0.6,0.9-0.9,1.5-0.9,1.5s-0.6,0.9-1.2,1.9
	c-0.6,0.9-1.3,1.8-1.3,1.8h0c0,0-0.3,0.3-0.6,0.9c-0.4,0.5-0.8,1.2-1.4,1.9c-1,1.3-2.1,2.7-2.1,2.7c-1.1,0.4-2.6,0.6-4.1,0.8
	c-1.5,0.2-3,0.3-4.3,0.2c-0.4-1.1-1.3-2.8-2.8-4.3c-1.5-1.5-3.6-2.7-6.4-3.1c-0.6-0.1-1.3-0.1-2.1-0.1c-0.7,0-1.5,0.2-2.3,0.3
	c-0.8,0.1-1.6,0.3-2.4,0.5c-0.4,0.1-0.8,0.2-1.2,0.3c-0.4,0.1-0.8,0.2-1.2,0.3c-1.6,0.4-3,0.8-4.3,1.2c-1.3,0.3-2.2,0.7-2.8,0.8
	c1.2,1.3,4.1,4.1,7.4,6.8c1.7,1.3,3.4,2.6,5.1,3.6c0.8,0.5,1.7,0.9,2.5,1.3c0.8,0.3,1.5,0.6,2.2,0.7c1.5,0.3,2.8,0.1,3.8-0.2
	c1.1-0.3,1.9-0.9,2.6-1.6c0.7-0.7,1.2-1.4,1.6-2.1c0.3-0.7,0.6-1.4,0.7-2c1.3,0.2,3.1,0.4,4.8,0.6c0,0,0,0.1-0.1,0.2
	c-0.1,0.1-0.2,0.3-0.4,0.4c-0.3,0.4-0.8,0.9-1.4,1.5c-0.6,0.6-1.3,1.4-2.1,2.1c-0.8,0.7-1.6,1.5-2.5,2.3c-0.8,0.8-1.7,1.5-2.5,2.3
	c-0.8,0.7-1.6,1.4-2.3,1.9c-1.4,1.1-2.3,1.8-2.3,1.8l0,0c0,0-0.3,0.3-0.8,0.6c-0.5,0.4-1.2,0.9-1.9,1.4c-0.7,0.5-1.4,1-1.9,1.3
	c-0.5,0.4-0.9,0.6-0.9,0.6c-2.4,0-6-0.8-8.4-1.5c-0.1-1.2-0.4-3.1-1.4-4.9c-1-1.8-2.7-3.6-5.2-4.8c-0.6-0.3-1.2-0.5-1.9-0.6
	c-0.7-0.2-1.4-0.3-2.2-0.4c-0.8-0.1-1.5-0.2-2.3-0.3c-0.8,0-1.6-0.1-2.4-0.2c-0.9-0.1-1.7-0.1-2.5-0.1c-0.8-0.1-1.6-0.1-2.2-0.1
	c-0.7,0-1.3,0-1.8,0c-0.5,0-1,0-1.3,0c0.8,1.5,2.7,5.2,5,8.7c2.3,3.5,5.2,7,7.7,8.2c1.1,0.6,2.2,0.8,3.1,0.9c0.9,0.1,1.8,0,2.5-0.3
	c0.7-0.3,1.4-0.6,2-1.1c0.6-0.4,1.1-0.9,1.5-1.3c0.4-0.5,0.7-0.9,0.9-1.3c1.2,0.6,2.8,1.3,4.4,2c0,0-0.6,0.3-1.5,0.9
	c-0.9,0.5-2.1,1.2-3.3,1.8c-1.2,0.6-2.5,1.3-3.4,1.7c-0.9,0.4-1.6,0.7-1.6,0.7s-1,0.5-2,0.9c-0.5,0.2-1,0.4-1.4,0.6
	c-0.4,0.2-0.6,0.3-0.6,0.3v0c0,0-1.6,0.6-3.1,1.2c-1.6,0.5-3.2,1.1-3.2,1.1c-0.6-0.1-1.2-0.4-1.9-0.6c-0.7-0.3-1.4-0.6-2.1-1
	c-1.4-0.7-2.7-1.5-3.7-2.1c0.2-1.2,0.4-3.1-0.1-5.2c-0.2-1-0.6-2.1-1.2-3.1c-0.6-1-1.4-2-2.5-2.9c-1-0.9-2.3-1.6-3.8-2.2
	c-1.5-0.7-3.1-1.3-4.6-1.7c-1.5-0.6-3-1-4.2-1.4c-1.2-0.4-2.2-0.7-2.8-0.9c0.3,1.7,1.2,5.7,2.5,9.7c0.7,2,1.5,4.1,2.3,5.8
	c0.9,1.7,1.8,3.2,2.9,4.1c2.2,2.1,4.5,2.4,6.4,2c0.9-0.2,1.8-0.6,2.5-1c0.7-0.4,1.3-0.9,1.7-1.3c1,0.9,2.4,2,3.7,3.1
	c0,0-0.3,0.1-0.8,0.2c-0.5,0.1-1.2,0.3-2,0.5c-0.8,0.2-1.8,0.4-2.9,0.7c-1.1,0.3-2.2,0.4-3.3,0.6c-2.3,0.5-4.6,0.7-6.3,0.9
	c-0.4,0.1-0.8,0.1-1.2,0.1c-0.4,0-0.7,0-0.9,0.1c-0.5,0-0.8,0.1-0.8,0.1v0c0,0-1.7,0.1-3.4,0.2c-1.7,0-3.4,0.1-3.4,0.1
	c-0.5-0.3-1-0.7-1.6-1.1c-0.6-0.4-1.1-1-1.7-1.5c-1.1-1.1-2.1-2.2-2.9-3.1c0.6-1.1,1.3-2.9,1.5-5c0.1-2.1-0.3-4.5-1.8-6.9
	c-0.7-1.1-1.7-2.1-2.8-3.1c-0.6-0.5-1.2-1-1.8-1.5c-0.6-0.5-1.3-1-1.9-1.4c-0.7-0.5-1.4-1-2-1.4c-0.7-0.5-1.3-0.9-1.8-1.2
	c-1.1-0.8-2-1.4-2.6-1.7c-0.2,1.7-0.6,5.8-0.5,10c0.1,4.3,0.7,8.7,2,11c0.6,1.1,1.4,1.9,2.2,2.5c1.5,1.1,3.1,1.4,4.5,1.3
	c1.4-0.1,2.7-0.6,3.4-1c0.7,1.1,1.7,2.6,2.6,4c0,0-0.7,0-1.7,0c-1-0.1-2.4-0.2-3.8-0.3c-1.4-0.1-2.8-0.3-3.8-0.4
	c-1-0.1-1.7-0.2-1.7-0.2s-1.1-0.1-2.2-0.3c-1.1-0.2-2.2-0.4-2.2-0.4v0c0,0-0.4-0.1-1-0.2c-0.6-0.1-1.4-0.3-2.3-0.5
	c-1.6-0.4-3.3-0.8-3.3-0.8c-0.8-0.9-1.7-2.1-2.4-3.5c-0.4-0.7-0.8-1.3-1.1-2c-0.3-0.7-0.6-1.3-0.9-1.8c0.9-0.9,2-2.4,2.7-4.4
	c0.7-2,0.9-4.4,0.1-7.1c-0.4-1.3-1.1-2.5-2-3.9c-0.9-1.4-1.9-2.6-2.9-4c-0.5-0.6-1-1.2-1.5-1.8c-0.5-0.6-0.9-1.1-1.3-1.6
	c-0.8-1-1.5-1.7-1.9-2.2c-0.6,1.6-2.1,5.4-3.2,9.5c-0.5,2.1-1,4.2-1.2,6.1c-0.2,1.9-0.2,3.8,0.2,5c0.8,2.9,2.5,4.5,4.3,5.1
	c0.9,0.3,1.8,0.5,2.6,0.5c0.8,0,1.5-0.1,2.1-0.2c0.4,1.3,0.9,3,1.4,4.6c0,0-1.1-0.4-2.7-0.9c-1.7-0.5-3.8-1.4-6-2.2
	c-1.1-0.4-2.1-1-3.1-1.4c-1-0.4-1.9-0.9-2.7-1.3c-1.5-0.8-2.6-1.3-2.6-1.3h0c0,0-0.4-0.2-0.9-0.5c-0.6-0.3-1.3-0.7-2-1.2
	c-0.7-0.4-1.5-0.8-2-1.2c-0.5-0.3-0.9-0.6-0.9-0.6c-0.5-1.1-0.9-2.5-1.3-4c-0.2-0.7-0.3-1.5-0.5-2.2c-0.1-0.7-0.2-1.4-0.3-2
	c1.1-0.6,2.6-1.7,3.9-3.4c1.3-1.7,2.2-4,2.2-6.8c0-0.6-0.1-1.3-0.2-2c-0.1-0.7-0.3-1.4-0.5-2.2c-0.2-0.7-0.5-1.5-0.7-2.2
	c-0.3-0.8-0.5-1.5-0.8-2.2c-0.3-0.8-0.6-1.5-0.9-2.3c-0.3-0.8-0.6-1.5-0.9-2.1c-0.6-1.2-1-2.3-1.3-2.9c-1.1,1.3-3.6,4.6-5.8,8.2
	c-2.2,3.6-4.1,7.6-4.3,10.4c-0.1,1.3,0.1,2.3,0.5,3.2c0.3,0.9,0.8,1.6,1.3,2.2c0.5,0.6,1.2,1,1.8,1.4c1.3,0.7,2.5,1,3.4,1.1
	c0,1.3,0,3.1,0,4.8c0,0-0.6-0.4-1.4-1c-0.4-0.3-0.9-0.6-1.5-1c-0.5-0.4-1.1-0.8-1.6-1.3c-0.5-0.4-1.1-0.9-1.6-1.3
	c-0.5-0.4-1-0.8-1.4-1.1c-0.8-0.7-1.3-1.1-1.3-1.1s-0.8-0.7-1.7-1.5c-0.8-0.8-1.6-1.5-1.6-1.5h0c0,0-0.3-0.3-0.8-0.7
	c-0.5-0.4-1.1-1-1.7-1.6c-1.2-1.2-2.3-2.4-2.3-2.4c-0.2-1.1-0.2-2.7-0.2-4.2c0.1-1.5,0.2-3,0.4-4.3c1.2-0.3,3-0.9,4.7-2.2
	c1.7-1.3,3.1-3.2,3.9-5.9c0.2-0.6,0.3-1.3,0.4-2.1c0.1-0.7,0.1-1.5,0.1-2.3c0-0.8,0-1.6-0.1-2.5c0-0.4-0.1-0.8-0.1-1.2
	c0-0.4-0.1-0.8-0.1-1.2c-0.4-3.2-0.7-6.1-1-7.3c-1.4,1-4.7,3.4-7.8,6.3c-1.6,1.5-3.1,3-4.3,4.6c-1.2,1.5-2.2,3-2.6,4.3
	c-0.5,1.4-0.5,2.7-0.4,3.8c0.2,1.1,0.7,2,1.2,2.8c1.1,1.6,2.7,2.4,3.8,2.8c-0.4,1.3-0.8,3-1.3,4.6c0,0-0.2-0.2-0.5-0.6
	c-0.3-0.4-0.8-1-1.3-1.6c-0.5-0.7-1.2-1.5-1.8-2.3c-0.6-0.9-1.3-1.8-2-2.8c-0.7-0.9-1.3-1.9-1.9-2.8c-0.6-0.9-1.2-1.7-1.6-2.5
	c-0.9-1.5-1.4-2.5-1.4-2.5l0,0c0,0-0.9-1.5-1.6-3c-0.4-0.8-0.8-1.5-1.1-2.1c-0.1-0.3-0.3-0.5-0.3-0.7c-0.1-0.2-0.1-0.3-0.1-0.3
	c0.2-1.2,0.6-2.6,1.1-4.1c0.3-0.7,0.5-1.4,0.8-2.1c0.3-0.7,0.6-1.3,0.8-1.9c1.2,0.1,3.1,0,5.1-0.7c2-0.7,4-2.1,5.5-4.5
	c0.7-1,1.2-2.4,1.6-3.8c0.5-1.5,0.7-3,1.1-4.6c0.2-0.8,0.3-1.7,0.5-2.4c0.1-0.8,0.3-1.5,0.4-2.2c0.2-1.4,0.4-2.4,0.5-3.1
	c-1.6,0.5-5.5,1.9-9.3,3.7c-1.9,0.9-3.8,2-5.5,3.1c-1.6,1.1-3,2.3-3.8,3.4c-0.7,1-1.1,2-1.4,3c-0.4,1.8,0,3.4,0.7,4.7
	c0.3,0.6,0.7,1.2,1.1,1.6c0.4,0.5,0.8,0.8,1.2,1.1c-0.7,1.1-1.7,2.6-2.6,4.1c0,0-0.3-0.6-0.6-1.6c-0.2-0.5-0.4-1-0.7-1.7
	c-0.1-0.3-0.2-0.6-0.4-0.9c-0.1-0.3-0.2-0.7-0.3-1c-0.4-1.3-0.9-2.6-1.2-3.6c-0.3-1-0.5-1.7-0.5-1.7s-0.3-1.1-0.6-2.1
	c-0.3-1.1-0.6-2.1-0.6-2.1h0c0,0-0.4-1.6-0.8-3.3c-0.2-0.8-0.3-1.7-0.4-2.3c-0.1-0.6-0.2-1-0.2-1c0.5-1.1,1.2-2.4,2.1-3.6
	c0.9-1.3,1.9-2.5,2.6-3.4c1.2,0.4,3,0.9,5.1,0.7c2.1-0.2,4.4-1,6.5-2.8c1-0.9,1.9-2.1,2.7-3.5c0.2-0.3,0.4-0.7,0.6-1
	c0.2-0.4,0.4-0.7,0.6-1.1c0.4-0.7,0.8-1.5,1.1-2.2c0.3-0.7,0.7-1.4,1-2.1c0.3-0.7,0.6-1.3,0.9-1.9c0.3-0.6,0.5-1.1,0.7-1.6
	c0.2-0.5,0.4-0.8,0.5-1.1c-1.7,0.1-5.8,0.4-10,1.1c-4.2,0.7-8.4,2-10.6,3.8c-1.2,1-1.9,2-2.4,3c-0.4,1-0.6,2.1-0.5,3
	c0.2,1.9,1,3.5,1.7,4.4c-1,0.9-2.3,2.1-3.6,3.2c0,0,0-0.3-0.1-0.8c0-0.5-0.2-1.2-0.2-2.1c-0.1-0.9-0.1-1.9-0.2-3
	c0-0.5-0.1-1.1-0.1-1.7c0-0.6,0-1.2,0-1.7c0-1.2-0.1-2.3-0.1-3.4c0-1.1,0.1-2.1,0.1-3c0-0.9,0-1.6,0.1-2.1c0-0.5,0.1-0.8,0.1-0.8h0
	c0,0,0.1-1.7,0.3-3.4c0-0.4,0.1-0.8,0.1-1.2c0-0.4,0.1-0.8,0.1-1.1c0.1-0.6,0.1-1,0.1-1c0.8-0.9,1.9-1.9,3.1-2.9
	c1.2-0.9,2.5-1.8,3.5-2.5c1,0.7,2.6,1.7,4.7,2.1c2.1,0.4,4.5,0.4,7-0.8c1.1-0.5,2.3-1.3,3.5-2.3c1.1-1,2.3-2.1,3.4-3.2
	c2.4-2.5,4.5-4.8,5.3-5.7c-1.7-0.4-5.6-1.4-9.9-1.9c-4.2-0.5-8.6-0.6-11.2,0.4c-1.2,0.5-2.1,1.1-2.8,1.8c-1.3,1.3-1.9,2.8-2,4.3
	c-0.1,1.4,0.2,2.7,0.4,3.5c-1.2,0.6-2.8,1.3-4.3,2c0,0,0.1-0.7,0.3-1.7c0.2-1,0.5-2.4,0.8-3.7c0.2-0.7,0.3-1.4,0.5-2
	c0.2-0.6,0.3-1.2,0.5-1.7c0.3-1,0.5-1.7,0.5-1.7s0.1-0.3,0.2-0.7c0.1-0.4,0.3-0.9,0.4-1.5c0.4-1,0.7-2.1,0.7-2.1h0
	c0,0,0.1-0.4,0.3-1c0.1-0.3,0.2-0.7,0.3-1c0.1-0.4,0.3-0.8,0.5-1.2c0.6-1.6,1.2-3.1,1.2-3.1c1-0.7,2.4-1.3,3.8-1.9
	c1.4-0.6,2.8-1.1,4-1.4c0.7,1,2.1,2.3,3.9,3.3c1.8,1,4.2,1.6,7,1.1c2.6-0.4,5.7-2.2,8.5-3.8c0.7-0.4,1.4-0.8,2-1.2
	c0.6-0.4,1.3-0.7,1.8-1.1c1.1-0.7,1.9-1.3,2.5-1.6c-0.7-0.4-2-1.1-3.6-2c-1.6-0.8-3.4-1.7-5.4-2.5c-2-0.8-4-1.5-5.9-2
	c-1.9-0.5-3.7-0.7-5-0.6c-1.5,0.2-2.7,0.6-3.6,1.3c-0.9,0.6-1.6,1.4-2,2.3c-0.5,0.8-0.8,1.7-0.9,2.5c-0.1,0.8-0.1,1.5-0.1,2.1
	c-1.3,0.2-3.1,0.5-4.8,0.7c0,0,0.1-0.3,0.4-0.7c0.2-0.5,0.6-1.1,1-1.9c0.4-0.8,0.8-1.7,1.4-2.6c0.5-0.9,1.1-1.9,1.7-3
	c0.6-1,1.2-2,1.8-2.9c0.6-0.9,1.1-1.8,1.6-2.5c1-1.4,1.7-2.4,1.7-2.4v0c0,0,0.2-0.3,0.6-0.9c0.4-0.5,0.9-1.2,1.4-1.8
	c0.5-0.7,1-1.3,1.4-1.8c0.2-0.3,0.4-0.5,0.5-0.6c0.1-0.1,0.2-0.2,0.2-0.2c1.1-0.3,2.6-0.6,4.2-0.7c1.5-0.2,3.1-0.2,4.3-0.2
	c0.4,1.2,1.3,2.9,2.8,4.3c1.5,1.5,3.6,2.7,6.4,3.2c0.6,0.1,1.3,0.1,2,0.1c0.7,0,1.5-0.1,2.2-0.2c0.8-0.1,1.5-0.2,2.3-0.4
	c0.8-0.2,1.6-0.3,2.3-0.5c0.8-0.2,1.6-0.4,2.4-0.6c0.8-0.2,1.5-0.4,2.2-0.6c1.3-0.4,2.4-0.6,3-0.8c-1.2-1.3-4-4.2-7.3-6.9
	c-3.3-2.7-7-5.2-9.7-5.7c-1.2-0.2-2.3-0.2-3.3,0c-0.9,0.2-1.7,0.5-2.4,1c-0.6,0.5-1.2,1-1.6,1.6c-0.9,1.1-1.3,2.3-1.5,3.2
	c-1.3-0.2-3.1-0.4-4.8-0.7c0,0,0.5-0.5,1.2-1.3c0.4-0.4,0.8-0.8,1.2-1.3c0.4-0.5,1-0.9,1.5-1.4c1-0.9,2-1.9,2.8-2.6
	c0.8-0.7,1.3-1.1,1.3-1.1s0.8-0.7,1.7-1.5c0.4-0.4,0.9-0.7,1.2-1c0.3-0.3,0.5-0.4,0.5-0.4l0,0c0,0,0.3-0.3,0.8-0.7
	c0.5-0.4,1.2-0.9,1.8-1.4c1.4-1,2.7-2,2.7-2c1.2-0.1,2.7,0.1,4.2,0.4c1.5,0.3,3,0.6,4.2,1c0.1,1.2,0.5,3.1,1.5,4.9
	c1,1.8,2.7,3.6,5.3,4.7c1.2,0.6,2.7,0.8,4.3,1c0.8,0.1,1.6,0.2,2.5,0.2c0.8,0,1.6,0.1,2.5,0.1c3.2,0.1,6.2,0.2,7.4,0.1
	c-0.8-1.5-2.7-5.1-5.1-8.6c-2.4-3.5-5.4-6.9-7.8-8.1c-1.4-0.7-2.6-0.9-3.7-0.9c-1.1,0-2.1,0.4-2.9,0.8c-1.7,0.9-2.8,2.4-3.3,3.3
	c-1.2-0.5-2.8-1.3-4.4-1.9c0,0,0.2-0.2,0.7-0.4c0.4-0.3,1.1-0.6,1.8-1c0.8-0.4,1.6-1,2.6-1.5c1-0.5,2-1,3-1.6c1-0.5,2.1-1,3.1-1.5
	c1-0.4,1.9-0.9,2.7-1.2c1.6-0.6,2.7-1.1,2.7-1.1v0c0,0,0.4-0.2,1-0.4c0.6-0.3,1.4-0.5,2.2-0.8c1.6-0.5,3.2-1.1,3.2-1.1
	c1.1,0.3,2.5,1,3.9,1.6c0.7,0.4,1.3,0.7,2,1.1c0.6,0.4,1.2,0.8,1.7,1.1c-0.3,1.2-0.5,3.1,0,5.1c0.4,2,1.5,4.2,3.7,6.1
	c1.9,1.6,5,2.9,7.9,3.9c3.2,1.1,6.2,2.1,7.5,2.4c-0.3-1.7-1.1-5.7-2.4-9.7c-0.6-2-1.4-4.1-2.3-5.8c-0.4-0.9-0.9-1.7-1.3-2.4
	c-0.5-0.7-1-1.3-1.5-1.8c-0.9-0.9-1.8-1.4-2.8-1.8c-0.9-0.4-1.7-0.5-2.5-0.4c-0.8,0-1.5,0.2-2.2,0.4c-1.4,0.4-2.4,1.3-3,1.9
	c-1-0.9-2.4-2-3.6-3.2c0,0,0.7-0.2,1.7-0.4c1-0.2,2.4-0.6,3.7-0.8C130.8,51,132.1,50.7,133.2,50.5z M153.9,55.5
	c2.1,1.9,4,3.2,5.8,5.5c1.8,2.3,1.8,3.2,2.9,5.2c1.1,2,1.8,5.2,2.1,6c0.3,0.7-5.1-8.5-8.7-11.9C152.5,56.9,153.9,55.5,153.9,55.5z
	 M187.9,74.4c0.1,2.3-0.8,5.5-0.8,6.3c0,0.8-0.7-9.9-2.4-14.5c-1.7-4.6,0.3-5.3,0.3-5.3c1,2.6,2.1,4.6,2.7,7.5
	C188.2,71.4,187.8,72.1,187.9,74.4z M238,115.3c-0.8,2.7-1.1,5-2.4,7.6c-1.3,2.7-2.1,3-3.4,4.9c-1.3,1.9-3.9,3.9-4.5,4.5
	c-0.5,0.6,5.4-8.3,6.9-13C236.1,114.6,238,115.3,238,115.3z M246.4,144c-2.1,1.8-3.6,3.6-6.2,5.1c-2.5,1.6-3.3,1.4-5.5,2.3
	c-2.2,0.9-5.4,1.1-6.2,1.4c-0.8,0.2,9.1-4,12.8-7.2C245.1,142.4,246.4,144,246.4,144z M243.6,170.8c-2.5,1.2-4.4,2.5-7.3,3.3
	c-2.9,0.8-3.6,0.4-5.9,0.7c-2.3,0.3-5.5-0.4-6.3-0.3c-0.8,0,9.8-1.5,14.3-3.5C242.8,169,243.6,170.8,243.6,170.8z M231.9,197.6
	c-2.7,0.7-4.8,1.7-7.8,2c-3,0.3-3.6-0.2-5.9-0.3c-2.3-0.1-5.4-1.3-6.2-1.5c-0.8-0.1,9.9,0.3,14.7-1
	C231.5,195.6,231.9,197.6,231.9,197.6z M217.8,218.2c-2.8,0.1-5.1,0.5-8,0.1c-3-0.4-3.5-1-5.7-1.7c-2.2-0.7-4.9-2.5-5.7-2.8
	c-0.7-0.3,9.6,2.5,14.5,2.4C217.8,216.1,217.8,218.2,217.8,218.2z M195.5,235.9c-2.6-1-4.9-1.5-7.5-2.9c-2.6-1.5-2.8-2.3-4.6-3.7
	c-1.8-1.5-3.6-4.2-4.1-4.8c-0.6-0.6,7.9,6,12.5,7.8C196.3,234,195.5,235.9,195.5,235.9z M169.9,240.3c-2.1-0.8-3.9-1.1-6-2.4
	c-2-1.3-2.2-2-3.6-3.3c-1.4-1.3-2.7-3.9-3.1-4.4c-0.4-0.5,6.1,5.3,9.8,6.8C170.6,238.4,169.9,240.3,169.9,240.3z M142.3,244.6
	c-1.6-1.5-3.2-2.5-4.6-4.5c-1.4-2-1.2-2.7-2-4.4c-0.8-1.7-1-4.6-1.2-5.2c-0.2-0.6,3.6,7.3,6.4,10
	C143.7,243.2,142.3,244.6,142.3,244.6z M115.5,240.6c-0.7-2.1-1.7-3.7-2-6.1c-0.3-2.4,0.2-3,0.3-4.9c0.1-1.9,1.2-4.5,1.3-5.2
	c0.1-0.7-0.1,8.1,1.1,11.8C117.5,240,115.5,240.6,115.5,240.6z M56.1,180.2c0,0,5.9-5.9,6.4-6.5c0.5-0.6,6.2-3.8,9.3-4.9
	c3.1-1.1,0.3,0,0.3,0s-8.8,5-9.2,6.1C62.4,175.9,56.1,180.2,56.1,180.2z M54.2,159.3c0,0,5.9-5.9,6.4-6.5c0.5-0.6,6.2-3.8,9.3-4.9
	c3.1-1.1,0.3,0,0.3,0s-8.8,5-9.2,6C60.5,155,54.2,159.3,54.2,159.3z M56.2,130.8c0,0,5.7-4.6,8.1-5.2c2.4-0.7,11.4-1.9,11.7-2
	c0.3-0.1-9.2,3.8-11,4.4C63.2,128.6,56.2,130.8,56.2,130.8z M64.7,106c2.9-0.7,8.3-2.9,10.7-2.9c2.4,0,2-0.4,5.3,0.5
	c3.3,0.9,6.6,1.5,6.6,1.5s-8.8-1-12.8,0.5C70.7,107.1,64.7,106,64.7,106z M81.3,82.4c2.8,0,5.1-0.3,8,0.2c2.9,0.5,3.4,1.1,5.6,1.9
	c2.2,0.7,4.8,2.7,5.6,3c0.7,0.3-9.5-2.9-14.4-2.9C81.3,84.4,81.3,82.4,81.3,82.4z M102.8,65.8c2.5,1.1,4.8,1.8,7.2,3.4
	c2.5,1.7,2.7,2.4,4.4,4c1.7,1.6,3.3,4.4,3.8,5c0.5,0.6-7.5-6.5-11.9-8.6C101.9,67.6,102.8,65.8,102.8,65.8z M129.5,55.5
	c2.1,1.9,4,3.2,5.8,5.5c1.9,2.3,1.8,3.2,2.9,5.2c1.1,2,1.8,5.2,2.1,6c0.3,0.7-5.1-8.5-8.7-11.9C128.1,56.9,129.5,55.5,129.5,55.5z
	 M138.4,29.4c1.7-1.7,1-1.9,4.3-3.2c3.3-1.3,6.3-3,6.3-3s-7.4,5.1-8.6,9.5c-1.2,4.4-6.6,7.4-6.6,7.4
	C135.1,37.2,136.7,31.1,138.4,29.4z"/>
<text transform="matrix(1 0 0 1 121.0142 190.5645)" class="st0 st1 st2">3</text>
</svg>
