<?xml version="1.0" encoding="utf-8"?>
<!-- Generator: Adobe Illustrator 25.0.1, SVG Export Plug-In . SVG Version: 6.00 Build 0)  -->
<svg version="1.1" id="Layer_1" xmlns="http://www.w3.org/2000/svg" xmlns:xlink="http://www.w3.org/1999/xlink" x="0px" y="0px"
	 viewBox="0 0 500 500" style="enable-background:new 0 0 500 500;" xml:space="preserve">
<style type="text/css">
	.st0{opacity:0.2;}
	.st1{fill:#149A9A;stroke:#2E353A;stroke-linecap:round;stroke-linejoin:round;}
	.st2{opacity:0.6;fill:#149A9A;stroke:#2E353A;stroke-linecap:round;stroke-linejoin:round;enable-background:new    ;}
	.st3{opacity:0.3;fill:#149A9A;stroke:#2E353A;stroke-linecap:round;stroke-linejoin:round;enable-background:new    ;}
	.st4{fill:#2E353A;stroke:#2E353A;stroke-linecap:round;stroke-linejoin:round;}
	.st5{fill:none;stroke:#FFFFFF;stroke-width:0.5;stroke-miterlimit:10;}
	.st6{fill:#FFFFFF;stroke:#2E353A;stroke-linecap:round;stroke-linejoin:round;}
	.st7{fill:none;stroke:#2E353A;stroke-width:0.75;stroke-linecap:round;stroke-linejoin:round;}
	.st8{fill:#2E353A;}
	.st9{fill:#92E3A9;stroke:#2E353A;stroke-linecap:round;stroke-linejoin:round;}
	.st10{fill:#073A39;stroke:#2E353A;stroke-linecap:round;stroke-linejoin:round;}
	.st11{opacity:0.3;enable-background:new    ;}
	.st12{fill:none;stroke:#2E353A;stroke-linecap:round;stroke-linejoin:round;}
	.st13{opacity:0.49;fill:#92E3A9;enable-background:new    ;}
	.st14{fill:#FFFFFF;stroke:#2E353A;stroke-miterlimit:10;}
	.st15{fill:none;stroke:#2E353A;stroke-width:3;stroke-linecap:round;stroke-linejoin:round;}
	.st16{fill:#FFFFFF;}
</style>
<g id="freepik--background-simple--inject-1--inject-43" class="st0">
	<path class="st1" d="M451.9,289.8c1.3-6.5,3.5-12.8,6.4-18.8c8-16.4,13.8-30.7,8.7-49c-12.5-44.7-63.2-49.9-88.2-83.6
		c-38.7-52.1-133.7-56.6-179.1-11.6c-13.9,13.8-20.4,33.3-34.5,46.9c-20.7,20.1-51.5,22.7-72.8,42.8c-34.7,32.7-38.1,88.1-7.3,124.9
		c32.5,38.8,78.5,32.5,123.1,24.2c21.9-4.1,44.8-8.5,67.1-5.3c47.7,6.7,104.3,32.9,150.6,6.8c24.6-13.9,25.3-35.6,24.7-60.9
		C450.4,300.7,450.9,295.2,451.9,289.8z"/>
	<path class="st2" d="M451.9,289.8c1.3-6.5,3.5-12.8,6.4-18.8c8-16.4,13.8-30.7,8.7-49c-12.5-44.7-63.2-49.9-88.2-83.6
		c-38.7-52.1-133.7-56.6-179.1-11.6c-13.9,13.8-20.4,33.3-34.5,46.9c-20.7,20.1-51.5,22.7-72.8,42.8c-34.7,32.7-38.1,88.1-7.3,124.9
		c32.5,38.8,78.5,32.5,123.1,24.2c21.9-4.1,44.8-8.5,67.1-5.3c47.7,6.7,104.3,32.9,150.6,6.8c24.6-13.9,25.3-35.6,24.7-60.9
		C450.4,300.7,450.9,295.2,451.9,289.8z"/>
</g>
<g id="freepik--Shadow--inject-1--inject-43" class="st0">
	<ellipse class="st1" cx="257.5" cy="385.5" rx="191.5" ry="40.5"/>
	<ellipse class="st3" cx="257.5" cy="385.5" rx="191.5" ry="40.5"/>
</g>
<g id="freepik--Calendar--inject-1--inject-43">
	<path class="st4" d="M423.6,159.3c0,0-9.8,7.5-11.1,13.2s0.4,11.9,1.5,15.5s1.3,21.3-9.4,29.2s-15.5,15.7-14.4,25.5
		s15.7,20.5,27.8,23s29.2-3.1,35.9-17.5s-2.3-30.3-7.3-39.3s-4.6-17.5,1-17.8s8.4,1,8.6-6.9s-1.7-20.1-11.9-26.3
		S423.6,159.3,423.6,159.3z"/>
	<path class="st5" d="M399.5,255.8c1,0.7,10,4.3,16.7-6s-2.4-19.9-0.7-29"/>
	<path class="st5" d="M434.5,171.2c0,0-3.1-10.1,3.6-6.8c7.2,3.5,13,20,10.5,23.8"/>
	<path class="st5" d="M432.7,169.9c0,0-3.8-7.2-1.2-10.5s8.2,0.5,11.2,2.8"/>
	<path class="st5" d="M441.2,189.6c0,0,1,4.5-2,13.5s-8.5,19.2-3,28.8s9.8,16,3.5,25.5"/>
	<path class="st5" d="M441.2,194.9c0.2,5.9-0.2,11.7-1.2,17.5c-1.8,10,3.8,16.5,9.5,22.8s4.2,11.5,2.2,17.2"/>
	<path class="st5" d="M432.4,171.4c0,0-11.8,1-15.2-0.5s-2.8-2.8-2.8-2.8"/>
	<path class="st6" d="M434,211.3c0,0,1.5,15.5,3.5,24.5s5.1,20.3,4.3,23.5s-18,29.7-18,29.7l-5.1-3.5l10.6-31.7l-8.9-29.7
		C420.4,224.1,428.5,212.2,434,211.3z"/>
	<path class="st6" d="M432.6,208.8c-2.5-2.9-7.9-10.4-7.9-10.4l-8.4-10l-11.7-16.1c-1.5-2.1-6.7-1.4-21.7-1.1s-60.4-8.4-60.4-8.4
		l-1.5,10c0,0,41.6,9,52.1,10s20.3,2.3,20.3,2.3c-1.4,2.9-2.7,5.8-3.8,8.8c-1.1,3.4-14.6,21.9-14.6,21.9s-0.3,0.2-0.9,0.6
		c-0.1,3.3,0.2,10.4,5.2,14.2c3.9,2.9,9.5,4.1,13.6,4.6l0,0c0.1-0.2,0.1-0.4,0.2-0.6c0.6-1.5,4.8-3.8,7.1-4s9.4,0.2,13.6-0.2
		s6.5-6.1,6.5-6.1s9.3-9.1,13.6-12.8C433.7,210.4,433.2,209.5,432.6,208.8z"/>
	<polyline class="st7" points="398.8,187.3 393.5,185 397.4,191.1 	"/>
	<path class="st7" d="M385.4,222.3c4,2.5,8.7,3.5,13.4,2.9"/>
	<path class="st7" d="M381,215.3c0,0,0.9,3.5,6.4,5.8"/>
	<path class="st7" d="M429.2,253.8c0,0,3.6-1.6,6.5,2.5"/>
	<polyline class="st7" points="430.2,226.6 420.4,224.1 429.1,231 	"/>
	<path class="st7" d="M403.2,176c0,0-5,8.7-10.8,8.4c-7.9-0.4-30.3-7-30.3-9.3s6.1-3.2,6.1-3.2"/>
	<path class="st1" d="M420.4,183.2c0,0-4-1-6.9,0.8s-10.5,18.4-10.5,18.4s0.6,0.8,2.9,0.8s2.9,3.1,2.9,5.9s-0.2,4.2,0.8,4
		s6.7-2.3,7.9-1.5s-1.5,4.6-1,5s5.4-4.4,6.9-9.6s3.1-12.9,2.7-15.9S423,184,420.4,183.2z"/>
	<path class="st6" d="M423.6,199.2c-2.1,2.4-4.4,4.6-6.7,6.7c-4.4,4-8.1,6.9-7.9,5s4.6-12.3,5.8-18s3.3-9.6,5.6-9.6
		S427.6,195,423.6,199.2z"/>
	<path class="st6" d="M421.3,174.4c0.3,0.9,1,1.7,1.9,2.1c1.3,0.4,11.3-5.4,11.3-5.4s7.1,15.1,5.9,17.4s-4.6,5.2-8.4,7.9
		s-10.9,4.8-13.6,3.3s-0.8-17.3-0.8-17.3s-2.1-2.5,0.2-6.5S421.3,174.4,421.3,174.4z"/>
	<path class="st7" d="M437.4,190.1c0,0,0.2-1.2-2-1.2s-6.1,4.1-6.1,4.1"/>
	<line class="st7" x1="427.7" y1="193.3" x2="426.5" y2="192.1"/>
	<path class="st7" d="M426,195.5c0,0-3.1-0.5-3.6-4.4"/>
	<path class="st7" d="M433.1,183.9c0,0-0.8-3.7-4-4.4"/>
	<path class="st8" d="M429.2,185.9c-0.8,0.6-1.6,0.8-1.9,0.4s0.1-1.2,0.9-1.8s1.6-0.8,1.9-0.4S430,185.3,429.2,185.9z"/>
	<path class="st8" d="M434,192.2c-0.6,0.5-1.4,0.7-1.6,0.4s0.1-1,0.7-1.5s1.4-0.7,1.6-0.4S434.7,191.7,434,192.2z"/>
	<path class="st6" d="M415.4,355.5l9.8,13.6c0,0,0,2.5-3.5,2.5s-5.5,0-7.5-2.5s-2-4-4-5s-4-1-3-6.5S415.4,355.5,415.4,355.5z"/>
	<path class="st6" d="M425.1,369.4c-1.6,0.7-3.3,1-5,0.7c-3.5-0.6-5.7-4.2-7-5.7s-2.9-1.5-4.4-2.8c-0.7-0.6-1.3-1.3-1.9-2.1
		c-0.2,3.6,1.5,3.7,3.2,4.5c2,1,2,2.5,4,5s4,2.5,7.5,2.5C424.4,371.6,425,370.1,425.1,369.4z"/>
	<path class="st4" d="M414.8,353.7c-2-6-4.9-41.9-6.3-53.3c-3-23.1-16.3-53.1-16.3-53.1l0.8-12.3c-4.1-0.5-9.7-1.7-13.6-4.6
		c-5-3.7-5.3-10.8-5.2-14.2c-2.5,1.6-10,6.5-16.4,11.7c-7.9,6.3-13.2,28.8-14.8,35.9s-3.3,28-3.3,28s-13.8,5.4-19.4,13
		s-22.5,24.9-22.5,24.9l1.5,5.8c0,0,5.2-3.6,9.6-7.1s38.8-22.6,41.1-24s5-4,8.1-11.7c1.1-2.8,2.7-7.4,4.3-12.1l5.3-16.6l5.1-4.4
		c5.1,13.7,16.8,40,18.5,43.8c2,4.5,3.5,24.6,9,37.2s7,18.6,7,18.6S416.8,359.8,414.8,353.7z"/>
	<line class="st5" x1="392.6" y1="237.4" x2="394.5" y2="248.6"/>
	<path class="st9" d="M122.2,151.3L93.3,396.6c-0.1,1,0.6,2,1.7,2.1c0.4,0,0.8,0,1.2-0.3l18.6-11.4c2.3-1.4,5.3-0.8,6.8,1.5
		l23.3,34.7l9.7-145.8L122.2,151.3z"/>
	<path class="st9" d="M122,157.5l-26.1,233c-0.2,1.4,0.9,2.7,2.3,2.9c0.7,0.1,1.3-0.1,1.8-0.5l13.6-10c2.9-2.1,6.9-1.5,9,1.4
		c0.1,0.1,0.1,0.2,0.2,0.3l15.9,24.2c0.4,0.7,1.3,0.9,2,0.4c0.4-0.3,0.7-0.8,0.7-1.3l-18.5-250.4c0-0.2-0.3-0.4-0.5-0.3
		C122.2,157.2,122,157.3,122,157.5z"/>
	<path class="st10" d="M122.4,154.1L95.9,390.4c-0.2,1.4,0.9,2.7,2.3,2.9c0.7,0.1,1.3-0.1,1.8-0.5l13.6-10c2.9-2.1,6.9-1.5,9,1.4
		c0.1,0.1,0.1,0.2,0.2,0.3l15.9,24.2c0.4,0.7,1.3,0.9,2,0.4c0.4-0.3,0.7-0.8,0.7-1.3l-18.8-253.7C122.5,154,122.5,154,122.4,154.1
		C122.4,154,122.4,154,122.4,154.1z"/>
	<path class="st9" d="M117.5,381.5c2.1,0,4.1,1.1,5.3,2.9l15.9,24.2c0.4,0.7,1.3,0.9,2,0.4c0.4-0.3,0.7-0.8,0.7-1.3l-2.3-30.6
		l-21.9,4.3C117.3,381.5,117.4,381.5,117.5,381.5z"/>
	<path class="st11" d="M117.5,381.5c2.1,0,4.1,1.1,5.3,2.9l15.9,24.2c0.4,0.7,1.3,0.9,2,0.4c0.4-0.3,0.7-0.8,0.7-1.3l-2.3-30.6
		l-21.9,4.3C117.3,381.5,117.4,381.5,117.5,381.5z"/>
	<polygon class="st4" points="122.8,151.1 144.8,423.1 402.2,374.1 341.7,162 	"/>
	<polygon class="st1" points="134.7,157 149.9,408.8 391.9,364.8 340.9,169.2 	"/>
	<polygon class="st6" points="149.5,280.9 161,400.2 380.9,360.2 360.5,270.6 	"/>
	<line class="st12" x1="191.9" y1="394.3" x2="188.3" y2="356"/>
	<line class="st12" x1="225.6" y1="388.4" x2="222.1" y2="356.4"/>
	<line class="st12" x1="258.6" y1="382" x2="254.5" y2="356.4"/>
	<line class="st12" x1="292.6" y1="376.1" x2="287.7" y2="345.7"/>
	<line class="st12" x1="322.5" y1="370.7" x2="318.3" y2="341"/>
	<line class="st12" x1="351.2" y1="365.4" x2="345" y2="329.7"/>
	<path class="st6" d="M418.7,285.5c0,0-3.1,3.1-3.3,4.7s1.4,6.4,1.4,6.4l4.8,0.8l2.1-8.4L418.7,285.5z"/>
	<path class="st13" d="M135.9,226.6c0,0,5.1,73.1,9.8,99.8s13.3,66.6,13.3,66.6s150-23.2,224-54.6l-6-28.7L135.9,226.6z"/>
	<path class="st1" d="M129.1,154.3l210.7,11.4c0,0,20.5,61.4,40.9,96.2s54.1,32.4,54.1,32.4s-77.2,42.2-137.3,64.7
		c-62.6,23.4-116.9,27.6-116.9,27.6S131.2,318.9,129.1,154.3z"/>
	<path class="st14" d="M153.3,143.3c-3.9,0-6.7,3.5-7.6,8.9l4,0.2c0.6-3.1,1.9-5.1,3.6-5.1c2.1,0,4.4,3.3,4.4,8.1s-2.3,8.1-4.4,8.1
		c-1.1,0-2,0.9-2,2s0.9,2,2,2c4.7,0,8.4-5.3,8.4-12.1S157.9,143.3,153.3,143.3z"/>
	<path class="st7" d="M159,158.6c-0.2,0.7-0.4,1.4-0.7,2.1"/>
	<path class="st7" d="M147.6,150.4c0,0,1.5-5.4,5.9-5.1c3.5,0.2,6.4,5.4,5.9,10.9"/>
	<path class="st14" d="M188,145.1c-3.9,0-6.7,3.5-7.6,8.9l4,0.2c0.6-3.1,1.9-5.1,3.6-5.1c2.1,0,4.4,3.3,4.4,8.1s-2.3,8.1-4.4,8.1
		c-1.1,0-2,0.9-2,2s0.9,2,2,2c4.7,0,8.4-5.3,8.4-12.1S192.7,145.1,188,145.1z"/>
	<path class="st7" d="M193.8,160.4c-0.2,0.7-0.4,1.4-0.7,2.1"/>
	<path class="st7" d="M182.4,152.2c0,0,1.5-5.4,5.9-5.1c3.5,0.2,6.4,5.4,5.9,10.9"/>
	<path class="st14" d="M222.8,146.8c-3.9,0-6.7,3.5-7.6,8.9l4,0.2c0.6-3.1,1.9-5.1,3.6-5.1c2.1,0,4.4,3.3,4.4,8.1s-2.3,8.1-4.4,8.1
		c-1.1,0-2,0.9-2,2s0.9,2,2,2c4.7,0,8.4-5.3,8.4-12.1S227.4,146.8,222.8,146.8z"/>
	<path class="st7" d="M228.5,162.1c-0.2,0.7-0.4,1.4-0.7,2.1"/>
	<path class="st7" d="M217.1,153.9c0,0,1.5-5.4,5.9-5.1c3.5,0.2,6.4,5.4,5.9,10.9"/>
	<path class="st14" d="M257.5,148.6c-3.9,0-6.7,3.5-7.6,8.9l4,0.2c0.6-3.1,1.9-5.1,3.6-5.1c2.1,0,4.4,3.3,4.4,8.1s-2.3,8.1-4.4,8.1
		c-1.1,0-2,0.9-2,2s0.9,2,2,2c4.7,0,8.4-5.3,8.4-12.1S262.2,148.6,257.5,148.6z"/>
	<path class="st7" d="M263.2,163.9c-0.2,0.7-0.4,1.4-0.7,2.1"/>
	<path class="st7" d="M251.9,155.7c0,0,1.5-5.4,5.9-5.1c3.5,0.2,6.4,5.4,5.9,10.9"/>
	<path class="st14" d="M292.9,150.1c-3.9,0-6.7,3.5-7.6,8.9l4,0.2c0.6-3.1,1.9-5.1,3.6-5.1c2.1,0,4.4,3.3,4.4,8.1s-2.3,8.1-4.4,8.1
		c-1.1,0-2,0.9-2,2s0.9,2,2,2c4.7,0,8.4-5.3,8.4-12.1S297.6,150.1,292.9,150.1z"/>
	<path class="st7" d="M298.6,165.4c-0.2,0.7-0.4,1.4-0.7,2.1"/>
	<path class="st7" d="M287.2,157.2c0,0,1.5-5.4,5.9-5.1c3.5,0.2,6.4,5.4,5.9,10.9"/>
	<path class="st14" d="M326.9,152c-3.9,0-6.7,3.5-7.6,8.9l4,0.2c0.6-3.1,1.9-5.1,3.6-5.1c2.1,0,4.4,3.3,4.4,8.1s-2.3,8.1-4.4,8.1
		c-1.1,0-2,0.9-2,2s0.9,2,2,2c4.7,0,8.4-5.3,8.4-12.1S331.6,152,326.9,152z"/>
	<path class="st7" d="M332.6,167.3c-0.2,0.7-0.4,1.4-0.7,2.1"/>
	<path class="st7" d="M321.2,159.1c0,0,1.5-5.4,5.9-5.1c3.5,0.2,6.4,5.4,5.9,10.9"/>
	<path class="st6" d="M423.8,289c0,0,2,2.7,2,3.9s-2.7,3.1-2.7,5.9s-3.5,2-3.9,0s0.8-4.7,0.8-4.7s-1.6-1-2-4.5s2.8-2.5,2.8-2.5
		L423.8,289z"/>
	<path class="st6" d="M373.8,261.9c-14.5-24.6-29.7-63.6-35.1-77.9l-188.3-7.6c-0.1,139.1,42,196.6,42,196.6s47.9-3.7,103.2-24.4
		c53.1-19.9,116.5-53.2,116.5-53.2S391.8,292.6,373.8,261.9z"/>
	<path class="st4" d="M338.6,184.1l-188.3-7.6c0,13.7,0.4,26.6,1.1,38.7l198.8-1.9C345.1,201,341,190.2,338.6,184.1z"/>
	<line class="st15" x1="342" y1="225.5" x2="350.9" y2="225.2"/>
	<line class="st15" x1="315.8" y1="226.4" x2="335.3" y2="225.8"/>
	<line class="st15" x1="284.1" y1="227.5" x2="309.2" y2="226.6"/>
	<line class="st15" x1="251.9" y1="228.6" x2="278.6" y2="227.7"/>
	<line class="st15" x1="220.8" y1="229.6" x2="245.2" y2="228.8"/>
	<line class="st15" x1="187.9" y1="230.8" x2="212.4" y2="229.9"/>
	<line class="st15" x1="159.1" y1="231.8" x2="181.9" y2="231"/>
	<line class="st12" x1="155.4" y1="253.2" x2="362.5" y2="240.6"/>
	<path class="st12" d="M188.1,251.4c0,0,3.4,55.1,39.7,116.2"/>
	<path class="st12" d="M221.5,249.2c0,0,3.8,63,43.6,109.1"/>
	<path class="st12" d="M251.8,247.4c0,0,2,58,46.8,99.7"/>
	<path class="st12" d="M283.1,246c0,0,4.9,64.5,48.2,87.2"/>
	<path class="st12" d="M316,243.4c0,0,3.5,48.8,47.8,75.5"/>
	<path class="st12" d="M341.9,241.8c0,0,11.9,50,45.3,66.2"/>
	<line class="st12" x1="159.9" y1="281.6" x2="371.5" y2="258.3"/>
	<path class="st12" d="M165.4,306.5c0,0,45.2-1.8,215.9-33.2"/>
	<path class="st12" d="M173.4,332.9c0,0,44,5,216.4-49.9"/>
	<path class="st12" d="M182.9,355.8c0,0,36.7,12.1,216.9-65"/>
	<path class="st16" d="M231.7,203.6l-67.8-0.9c-1.1,0-2.1-0.9-2.2-2l-0.6-5.5c-0.1-1.2,0.8-2.3,2-2.5c0.1,0,0.2,0,0.3,0l67,1.2
		c1,0,1.9,0.7,2.1,1.7l1.4,5.2c0.3,1.2-0.4,2.4-1.6,2.7C232.1,203.6,231.9,203.6,231.7,203.6z"/>
</g>
</svg>
